<svg width="158" height="233" viewBox="0 0 158 233" fill="none" xmlns="http://www.w3.org/2000/svg">
<path fill-rule="evenodd" clip-rule="evenodd" d="M155.103 166.008C155.103 164.297 152.737 161.262 152.732 159.713C154.722 159.357 156.385 156.661 155.944 154.972C155.168 154.379 153.133 153.21 152.291 152.664C147.163 152.82 149.112 145.683 148.531 142.055C147.947 138.505 147.513 134.794 146.658 131.225C145.139 128.368 144.426 125.167 142.974 122.325C142.326 121.383 141.278 120.52 140.964 119.425C137.788 115.955 133.416 113.875 129.817 110.936C131.214 110.488 131.121 108.604 131.031 107.394C131.355 105.816 131.008 103.836 129.569 102.946C129.083 101.361 126.957 100.808 125.714 101.818C124.897 98.1573 121.703 95.9353 118.356 94.5773C118.359 94.5663 118.362 94.5553 118.365 94.5453C114.99 93.2053 110.945 92.5373 107.578 93.2903C109.355 73.4763 94.1854 72.7493 86.4874 74.4143C82.5494 75.2663 76.6404 77.9173 75.2984 81.6033C74.5404 83.6843 72.3654 90.3963 72.0564 92.5373C66.1774 89.1813 59.362 84.7553 54.2628 91.5123C53.2417 92.6893 52.1119 93.5643 50.584 93.9683C45.8136 95.2073 39.4819 95.2483 36.7705 100.113C35.1498 103.127 36.6074 105.113 36.1719 108.127C14.6981 123.213 -3.24719 178.789 0.78211 204.644C1.75141 213.896 6.48381 230.274 18.1646 228.232C24.1223 234.751 124.12 234.751 134.431 228.232C142.919 230.453 151.543 227.015 155.103 218.883C159.623 207.731 154.833 195.688 153.984 184.249C153.468 181.361 152.701 179.068 152.291 176.112C152.12 174.88 152.71 172.83 152.291 171.694C152.488 170.955 155.103 167.718 155.103 166.008Z" fill="white"/>
<path fill-rule="evenodd" clip-rule="evenodd" d="M107.835 86.8862C108.071 87.8982 107.855 89.0382 107.895 90.0772C107.932 91.0692 108.049 92.0562 108.222 93.0332C110.035 92.0792 112.177 91.9572 114.244 92.2642C116.916 92.6612 120.009 93.5402 122.104 95.3272C122.621 95.7682 123.05 96.2902 123.408 96.8662C123.839 97.5572 124.114 98.3382 124.796 98.8332C125.852 99.6002 127.161 99.8962 128.176 100.745C129.211 101.611 129.854 102.904 129.99 104.24C130.062 104.95 129.945 105.615 129.81 106.308C129.689 106.932 129.749 107.188 129.913 107.788C130.042 108.26 129.796 108.795 129.395 109.054C130.254 109.645 131.102 110.253 131.936 110.886C136.79 114.572 140.896 119.167 143.741 124.574L143.81 124.708L143.89 124.869C144.583 126.295 146.398 130.462 146.623 131.398C146.784 131.888 146.94 132.379 147.086 132.873C147.469 134.183 147.794 135.509 148.063 136.845L148.135 137.21C148.354 138.333 148.73 139.663 148.67 140.859C149.3 144.126 149.858 147.407 150.335 150.702C150.397 151.133 150.225 151.484 149.959 151.717C150.596 151.819 151.23 151.945 151.856 152.072L152.22 152.149L152.402 152.189C153.707 152.483 154.994 152.912 155.849 154.008C156.77 155.194 156.789 156.718 155.864 157.912C155.078 158.926 153.93 159.408 152.733 159.713C152.496 159.772 152.257 159.827 152.019 159.875C151.858 159.909 151.753 159.689 151.904 159.605L152.159 159.464L152.505 159.274C153.408 158.776 154.346 158.214 154.845 157.316C155.524 156.096 154.987 154.968 153.823 154.349C152.848 153.83 151.643 153.697 150.561 153.519L150.114 153.446C148.982 153.265 147.828 153.147 146.686 153.277C145.687 153.391 144.675 153.731 143.868 154.342L143.793 154.401L143.716 154.466C143.008 155.079 141.99 156.458 143.325 156.855C144.346 157.157 145.589 157.082 146.661 157.141L146.8 157.149C147.698 157.21 148.636 157.21 149.545 157.318C149.87 157.356 150.191 157.409 150.506 157.483C151.408 157.696 151.098 158.897 150.303 158.981C150.109 159.002 149.91 159.013 149.711 159.017C149.192 159.408 148.473 159.586 147.859 159.829C147.272 160.061 146.682 160.292 146.088 160.518C146.6 160.541 147.111 160.583 147.62 160.647C147.785 160.666 147.787 160.888 147.62 160.905C146.395 161.029 145.169 161.165 143.948 161.336C142.057 161.598 140.179 161.949 138.343 162.483C137.002 162.876 135.676 163.343 134.391 163.888L134.002 164.056L133.841 164.126C132.674 164.632 131.165 165.224 130.495 166.338C130.144 166.919 129.99 167.818 130.484 168.374C131.013 168.973 132.12 168.904 132.861 168.933L132.92 168.936C134.488 169.012 136.057 169.022 137.627 168.968C140.916 168.851 144.208 168.492 147.438 167.86C148.034 167.744 148.292 168.638 147.692 168.777C143.882 169.663 140.03 170.149 136.12 170.172H135.692C134.169 170.464 132.675 170.898 131.194 171.388L130.898 171.487C130.024 171.783 128.53 172.077 128.014 172.945C127.672 173.522 127.792 173.917 128.131 174.186C128.726 174.657 129.994 174.746 130.611 174.769C133.083 174.862 135.557 174.879 138.03 174.826C139.267 174.799 140.503 174.754 141.738 174.691C142.947 174.628 144.238 174.448 145.442 174.564C145.96 174.615 146.133 175.376 145.571 175.517C144.086 175.894 142.42 175.861 140.886 175.909L140.709 175.915C139.061 175.974 137.412 175.999 135.764 175.995C134.349 175.989 132.935 175.961 131.522 175.909L130.273 175.859L130.052 175.849C129.386 175.813 128.706 175.736 128.116 175.462C127.571 176.375 127.978 177.599 128.682 178.322C129.352 179.011 130.317 179.349 131.242 179.561C131.329 179.58 131.416 179.598 131.503 179.615C133.535 180.03 135.605 179.994 137.507 180.928C139.106 181.714 140.57 183.024 142.361 183.335C143.963 183.614 145.127 182.908 145.981 181.602C146.027 181.53 146.074 181.458 146.118 181.386C146.79 180.304 147.273 179.112 147.981 178.051C148.343 177.51 148.75 176.99 149.249 176.568C149.473 176.375 151.04 175.543 151.286 175.293C152.34 174.211 151.406 171.935 151.681 170.578C152.002 168.999 153.39 168.443 154.222 167.22C155.804 164.891 151.465 162.709 152.762 160.163C152.779 160.131 152.8 160.108 152.828 160.093C152.942 160.032 153.124 160.108 153.113 160.258C152.969 162.156 154.778 163.462 155.431 165.106C156.174 166.977 154.987 168.11 153.774 169.359C152.219 170.963 153.314 172.759 152.967 174.691C152.922 174.944 152.849 175.167 152.755 175.367C153.021 175.532 153.226 175.805 153.271 176.186C153.804 180.709 154.377 185.218 155.313 189.678L155.513 190.626L155.781 191.89C156.448 195.052 157.071 198.227 157.19 201.459C157.561 204.187 157.709 206.938 157.488 209.684C156.821 218.043 152.15 226.789 143.663 229.354C141.698 229.949 139.615 230.103 137.6 229.686C136.909 229.545 135.941 229.232 135.073 228.758C135.125 229.316 135.165 229.873 135.183 230.429C135.469 230.747 135.598 231.229 135.435 231.641C134.743 231.413 134.114 231.052 133.548 230.559L133.454 230.475C133.118 229.227 133.02 227.861 132.971 226.546L132.958 226.172C132.945 225.808 132.937 225.451 132.924 225.102C132.853 222.932 132.903 220.757 133.015 218.588L133.097 216.992C133.286 213.269 133.44 209.554 133.336 205.821C133.218 201.524 132.85 197.246 132.39 192.973C132.151 190.768 131.881 188.568 131.604 186.368C131.382 184.597 131.01 182.691 131.004 180.865C129.582 180.56 128.186 179.977 127.311 178.783C126.383 177.517 126.246 175.898 127.07 174.6C126.274 173.51 126.926 172.482 127.911 171.789C126.398 170.941 125.555 168.629 125.331 167.021C125.179 165.918 125.131 164.267 125.602 163.026C124.926 163.05 124.25 163.12 123.574 163.236C122.792 163.373 122.025 163.574 121.269 163.823L120.886 163.95C120.692 164.015 120.475 164.091 120.259 164.181C121.626 166.442 119.87 168.492 117.618 169.078C117.189 169.189 116.752 169.268 116.31 169.331C115.315 169.469 114.299 169.511 113.312 169.602C111.424 169.775 109.524 170.022 107.629 170.103C107.213 170.122 106.945 169.927 106.818 169.656C106.814 169.652 106.812 169.65 106.812 169.646C106.767 169.574 106.738 169.498 106.727 169.418C106.734 169.424 106.742 169.428 106.748 169.433C106.657 168.925 106.962 168.308 107.629 168.234C110.365 167.925 113.139 167.911 115.883 167.685L116.059 167.67C116.921 167.596 117.935 167.459 118.617 166.913C119.251 166.406 119.308 165.746 119.054 165.151C119.05 165.165 119.046 165.182 119.044 165.197C119.025 165.315 118.862 165.311 118.81 165.229C118.651 164.988 118.611 164.751 118.651 164.523C118.461 164.303 118.231 164.108 117.981 163.958C116.876 163.287 115.423 163.103 114.166 162.904C112.791 162.686 111.405 162.587 110.017 162.521C107.285 162.392 104.545 162.614 101.857 163.105C101.745 163.124 101.699 162.967 101.809 162.931C102.857 162.585 103.928 162.293 105.011 162.063C104.986 162.058 104.961 162.054 104.936 162.048C104.841 162.025 104.773 161.909 104.805 161.816C104.809 161.801 104.815 161.786 104.822 161.773C104.361 161.562 104.169 160.852 104.726 160.564C106.465 159.666 108.506 159.26 110.414 158.89C112.245 158.537 114.096 158.29 115.949 158.07C119.082 157.703 122.498 157.711 125.513 156.722L125.637 156.68C126.865 156.257 128.33 155.398 128.416 153.949C128.542 151.757 125.287 152.328 123.931 152.381C120.219 152.522 116.511 152.78 112.816 153.178C112.061 153.258 111.307 153.34 110.553 153.425C109.398 153.554 108.24 153.689 107.086 153.833C106.442 153.913 105.783 154.019 105.119 154.12C104.912 154.171 104.71 154.207 104.507 154.226C104.492 154.228 104.479 154.224 104.469 154.218C103.503 154.353 102.534 154.456 101.591 154.427C101.483 154.425 101.416 154.255 101.53 154.205C102.747 153.689 104.101 153.385 105.459 153.146C106.3 152.518 107.316 152.015 108.151 151.529C109.296 150.861 110.608 149.878 111.907 149.479C112.492 149.018 113.156 148.648 113.767 148.397C113.591 148.124 113.528 147.746 113.559 147.427C113.676 146.283 114.591 145.645 115.647 145.421C115.974 145.353 116.353 145.303 116.756 145.284C116.764 145.07 116.859 144.861 117.071 144.705L117.133 144.657L117.177 144.622C117.886 144.046 119.294 142.424 117.599 142.306C116.699 142.242 115.938 142.902 115.222 143.348C113.735 144.276 112.296 144.322 110.598 144.091L109.834 143.982L109.707 143.965C108.479 143.804 107.233 143.781 106.548 145.034C105.812 146.374 105.555 147.596 104.071 148.334C102.654 149.037 101.08 149.177 99.7789 150.145C98.3839 151.18 97.3359 152.634 96.1949 153.924C93.6789 156.764 90.7999 159.273 87.8339 161.632L87.3059 162.05C84.5739 164.21 81.7549 166.336 78.6959 168C78.6749 168.01 78.6539 168.014 78.6349 168.014C78.5529 168.006 78.4909 167.9 78.5649 167.828C82.1379 164.356 86.3169 161.541 89.9859 158.161C91.6129 156.663 93.161 155.086 94.651 153.45C95.952 152.015 97.106 150.403 98.623 149.181C99.36 148.587 100.157 148.133 101.048 147.816C101.881 147.517 102.815 147.37 103.581 146.913C105.084 146.021 104.938 143.908 106.44 142.948C107.728 142.125 109.297 142.426 110.725 142.621L110.895 142.644C111.821 142.767 112.778 142.87 113.661 142.504C114.535 142.143 115.239 141.467 116.12 141.107C117.348 140.602 119.088 140.723 119.718 142.073C120.32 143.363 119.498 144.529 118.539 145.385C119.847 145.622 120.994 146.254 121.091 147.543C122.05 147.511 123.007 147.477 123.966 147.444C127.307 147.327 130.664 147.103 134.006 147.163C133.93 146.822 133.896 146.471 133.892 146.114C133.89 145.916 133.898 145.717 133.913 145.514C133.938 145.167 134.166 144.958 134.505 144.922L135.26 144.842L135.512 144.816C136.927 144.683 138.508 144.655 139.586 145.59C140.165 146.095 140.631 147.258 140.348 148.033C141.007 148.26 141.635 148.549 142.207 148.915C143.342 148.534 144.534 148.577 145.674 148.974L145.81 149.022C146.621 149.32 147.77 149.884 148.211 150.689C147.141 143.436 145.7 136.244 143.887 129.14C142.731 126.303 141.269 123.591 139.497 121.088C135.033 114.782 128.602 110.445 122.826 105.459C122.316 106.02 121.767 106.554 121.254 107.068L121.036 107.287C119.99 108.346 118.9 109.36 117.785 110.346C115.455 112.407 113.002 114.309 110.567 116.241C105.658 120.137 101.22 124.274 97.528 129.36C97.461 129.451 97.2769 129.398 97.3289 129.276C99.8609 123.253 105.112 118.674 109.881 114.426C112.389 112.191 114.956 110.011 117.368 107.671C118.492 106.581 119.581 105.452 120.609 104.269L120.864 103.973C121.536 103.186 123.109 100.784 124.149 102.517C124.367 102.879 124.357 103.343 124.149 103.706C123.854 104.222 123.479 104.714 123.069 105.186C124.526 105.979 125.954 106.817 127.35 107.703C127.27 107.276 127.29 106.804 127.365 106.332L127.389 106.182L127.491 105.596C127.637 104.732 127.712 103.929 127.164 103.087C126.479 102.033 125.188 101.704 124.159 101.095C122.974 100.394 122.355 99.4552 121.72 98.2632C120.505 95.9822 117.759 95.0682 115.399 94.3342L115.102 94.2422C112.921 93.5652 110.562 93.2042 108.382 93.8532C108.586 94.8062 108.854 95.7442 109.188 96.6592C109.544 97.6322 110.358 98.7152 110.274 99.7662C110.217 100.494 109.344 101.272 108.62 100.716C107.595 99.9292 107.39 98.6472 107.115 97.4262C106.849 96.2452 106.68 95.0352 106.607 93.8262C106.538 92.6622 106.592 91.4982 106.736 90.3422L106.846 89.4922L106.873 89.2952C106.992 88.4372 107.171 87.5352 107.653 86.8622C107.7 86.7982 107.814 86.7962 107.835 86.8862ZM78.0819 82.0582C78.0969 82.1272 78.108 82.1952 78.118 82.2622C78.189 82.5522 78.2149 82.8302 78.2059 83.1102C78.2099 83.2112 78.203 83.3122 78.184 83.4122C78.146 83.7412 78.0669 84.0792 77.9599 84.4482C77.7319 85.2332 77.4709 86.0092 77.1789 86.7742C76.6029 88.2862 75.9219 89.7282 75.0799 91.1112C73.5589 93.6082 71.6269 95.6822 69.3479 97.4742C69.7799 97.8312 70.2029 98.2022 70.6269 98.5662C72.6739 100.329 74.6659 102.172 76.5959 104.063C80.0219 107.422 83.38 110.843 86.659 114.346C88.276 116.074 89.863 117.825 91.442 119.587L91.4939 119.646L91.549 119.713C92.11 120.391 93.231 122.008 94.067 121.749C94.489 121.617 94.9329 120.987 95.2209 120.687L95.7509 120.134C95.9269 119.949 96.102 119.763 96.274 119.574C99.358 116.195 102.276 112.685 105.015 109.016C106.352 107.227 107.645 105.403 108.89 103.548C109.53 102.594 110.159 101.632 110.774 100.661C111.37 99.7232 111.851 98.7142 112.728 98.0142C113.372 97.5002 114.265 97.9712 114.102 98.8142C113.847 100.141 112.929 101.263 112.206 102.385C111.479 103.512 110.736 104.628 109.976 105.732C108.514 107.859 106.988 109.94 105.407 111.98C104.046 113.736 102.626 115.447 101.168 117.124L100.769 117.58C99.2 119.369 97.661 121.269 95.927 122.902C94.375 124.364 92.6799 123.938 91.2659 122.517C89.4769 120.72 87.8169 118.777 86.0959 116.915C82.6579 113.193 79.183 109.5 75.673 105.846L74.519 104.644C73.173 103.239 71.8329 101.825 70.5279 100.385L70.3599 100.197C68.8709 98.5232 67.358 96.4242 65.242 95.5732C65.089 95.5112 65.145 95.2942 65.311 95.3252C66.665 95.5752 67.7959 96.2582 68.8479 97.0732C69.7939 95.5082 70.6369 93.8582 71.3729 92.1702L70.9009 91.9652C67.5239 90.5052 63.718 89.0332 60.0926 89.2702C58.6315 89.3652 57.0725 89.9192 56.0637 91.0162C55.1502 92.0102 54.6941 93.3502 53.8558 94.4092C52.8956 95.6212 51.6432 96.1672 50.1062 96.2162L49.3588 96.2392C48.4992 96.2672 47.6749 96.3122 46.803 96.5012C44.4406 97.0142 41.95 97.8452 39.9687 99.2652C39.25 99.7792 38.5079 100.487 38.1604 101.267C37.8158 102.04 37.7168 102.945 37.6832 103.779C37.667 104.186 37.7889 104.723 37.687 105.112C37.6987 105.067 37.7038 105.091 37.7053 105.137C38.022 105.387 38.2377 105.802 38.2612 106.216C40.2361 105.187 42.2806 104.284 44.3647 103.471C46.6852 102.565 49.078 101.839 51.471 101.152C53.8131 100.48 56.2645 100.201 58.6521 99.7222C58.9561 99.6612 59.0618 100.072 58.7785 100.181C56.2691 101.145 53.841 102.288 51.3106 103.195C48.7815 104.102 46.2713 105.083 43.8155 106.174C39.0687 108.284 34.4836 110.968 30.7439 114.61C27.0915 118.167 24.2743 122.488 21.6541 126.832C19.0154 131.208 16.6604 135.742 14.5615 140.4C10.4092 149.615 7.29555 159.303 5.24555 169.199C3.25055 178.83 2.13595 188.804 2.50715 198.647C2.68335 203.322 3.25415 208.001 4.58175 212.497C5.21605 214.646 6.00995 216.744 7.01305 218.748C8.07085 220.861 9.49605 222.743 10.462 224.891C10.5415 225.068 10.5719 225.238 10.5675 225.395C14.6872 228.966 21.1354 226.56 25.594 224.428C35.8531 219.521 45.9221 214.15 55.4926 207.987C64.9379 201.904 73.89 195.116 82.63 188.069C81.954 187.372 81.3579 186.59 80.8339 185.882C79.7529 184.419 78.939 182.762 78.379 181.033C77.724 179.009 77.5209 176.842 77.7069 174.727L77.7599 174.129C77.9379 172.131 78.1439 170.104 78.5819 168.152C78.5859 168.126 78.6049 168.116 78.6259 168.116C78.6469 168.116 78.6689 168.129 78.6769 168.152C79.8579 171.933 79.9529 175.997 81.2799 179.73C81.8139 181.23 82.6419 182.68 83.6359 183.925C84.0649 184.464 84.5669 184.931 85.0799 185.387C85.1149 185.155 85.1609 184.925 85.2299 184.698L85.2859 184.519C85.3549 184.302 85.4399 184.06 85.5579 183.846C85.3909 183.798 85.2289 183.745 85.0679 183.686C84.9409 183.64 84.9139 183.435 85.0679 183.401C85.4879 183.304 85.9219 183.255 86.3629 183.234C86.4329 183.223 86.4999 183.221 86.5679 183.225C87.3939 183.2 88.235 183.259 89.031 183.272C90.411 183.293 91.786 183.318 93.164 183.38C95.8 183.494 98.7769 183.999 101.372 183.386C103.729 182.828 106.053 181.255 107.944 179.776C109.596 178.483 110.87 176.946 112.241 175.414C112.143 175.429 112.045 175.444 111.948 175.457L111.064 175.579C109.948 175.728 108.623 175.845 107.737 175.308C107.399 175.103 107.496 174.638 107.841 174.511C108.745 174.18 109.867 174.454 110.83 174.408C111.586 174.372 112.351 174.292 113.097 174.135C113.342 174.084 113.585 174.025 113.826 173.956C115.592 173.446 117.667 171.654 116.264 169.697C116.211 169.623 116.27 169.555 116.342 169.542C116.374 169.536 116.407 169.542 116.435 169.566C118.032 170.889 117.202 173.26 115.691 174.277C115.172 174.628 114.584 174.873 113.976 175.052C114.092 175.266 114.113 175.528 113.973 175.777C112.791 177.887 110.788 179.74 108.911 181.23C106.985 182.76 104.762 184.204 102.373 184.88C99.614 185.658 96.5819 185.073 93.7829 184.825C92.2659 184.692 90.7529 184.533 89.2379 184.358C88.8329 184.312 88.4119 184.276 87.9849 184.236C88.3869 184.764 88.7059 185.373 88.9149 185.738C89.5949 186.926 88.9679 188.49 87.6499 188.853C87.5119 188.892 87.3709 188.913 87.2309 188.917C86.8759 189.629 86.0309 190.153 85.2499 189.885C84.9099 189.769 84.582 189.61 84.267 189.42C79.351 193.74 74.175 197.793 68.851 201.594C58.9786 208.64 48.6305 215.076 37.9004 220.734C35.4835 222.008 33.0481 223.248 30.5921 224.44L28.4783 225.46C26.1384 226.586 23.7438 227.706 21.2589 228.405C20.7744 228.542 20.2671 228.652 19.7474 228.736C19.7406 228.783 19.739 228.827 19.7421 228.87C19.2748 228.932 18.867 228.942 18.5189 228.898L18.4396 228.888C15.3938 229.101 12.1359 228.357 10.1764 226.131C9.84975 226.36 9.37355 226.386 8.95335 226.056C6.84005 224.397 5.58025 221.871 4.47465 219.46C3.35365 217.014 2.47505 214.465 1.82935 211.854C0.539852 206.638 0.0283532 201.258 0.00135322 195.893C-0.0961468 175.219 5.07955 154.363 14.0694 135.802C16.3494 131.095 18.8627 126.475 21.6527 122.05C24.4351 117.637 27.666 113.536 31.8037 110.318C32.9935 109.392 34.2313 108.546 35.508 107.767C34.6511 107.342 34.3108 106.261 34.2508 105.302C34.1177 103.17 34.3716 100.714 35.6194 98.9152C37.3697 96.3912 40.503 94.8352 43.4084 94.0792C44.9251 93.6842 46.4939 93.4542 48.0584 93.3762C48.865 93.3362 49.7031 93.4682 50.5 93.3812C51.2031 93.3052 51.6379 92.8852 52.0423 92.3332C53.0781 90.9192 53.7525 89.4352 55.2383 88.3982C56.7628 87.3342 58.7384 86.9272 60.5749 87.0372C62.714 87.1662 64.6659 88.0092 66.5509 88.9792C68.2509 89.8532 69.9019 90.8222 71.5109 91.8552C71.8059 91.1642 72.0839 90.4672 72.3419 89.7692C72.8429 88.4132 73.2789 87.0152 73.6329 85.6142C73.9909 84.1942 73.9389 82.3182 75.0219 81.2502C75.9629 80.3212 77.7769 80.6862 78.0819 82.0582ZM151.071 176.841L151.063 176.843C148.873 178.141 147.825 181.386 146.794 182.805C146.878 183.28 146.938 183.764 147.054 184.214C147.32 185.248 147.669 186.273 148.072 187.258C148.782 188.997 149.672 190.654 150.493 192.341C151.155 193.697 151.803 195.078 152.307 196.506C152.252 196.56 152.201 196.625 152.159 196.706C151.612 197.73 151.184 197.529 150.175 197.305L150.174 197.303C149.597 195.536 148.765 193.877 148.017 192.182L147.835 191.768L147.656 191.354C147.031 189.903 146.46 188.439 146.128 186.884C145.917 185.893 145.83 184.874 145.818 183.861C145.271 184.312 144.614 184.635 143.786 184.76C142.014 185.027 140.409 183.917 138.965 183.026L138.64 182.827C137.736 182.277 136.839 181.769 135.797 181.509C134.614 181.213 133.391 181.213 132.189 181.063C132.045 181.044 131.9 181.025 131.754 181.002C132.223 182.555 132.44 184.242 132.719 185.797C133.108 187.979 133.425 190.179 133.729 192.373C134.321 196.625 134.733 200.911 134.942 205.199C135.144 209.352 135.042 213.488 134.892 217.639L134.817 219.663C134.757 221.311 134.708 222.961 134.737 224.61C134.817 224.616 134.897 224.629 134.978 224.648C135.81 224.842 136.378 225.692 137.139 226.07C138.745 226.869 140.684 226.859 142.393 226.455C146.281 225.533 149.513 222.819 151.642 219.504C154.199 215.526 155.137 210.844 155.107 206.161C155.072 200.89 154.219 195.85 153.031 190.761L152.955 190.437C151.955 186.197 151.329 176.881 151.071 176.841ZM42.2169 166.206C42.2391 167.624 41.6628 169.14 41.3461 170.518C41.0051 172.002 40.6648 173.486 40.32 174.97L40.01 176.299C39.7518 177.407 39.4973 178.515 39.2691 179.63C39.0815 180.546 39.0029 181.754 38.6955 182.764C42.3519 181.284 46.014 179.82 49.67 178.345C54.1742 176.528 58.6996 174.761 63.214 172.973C67.712 171.193 72.1849 169.168 76.7739 167.647C77.8659 167.283 78.605 169.027 77.559 169.511C72.899 171.673 67.968 173.366 63.193 175.26L56.2866 178.003C49.9551 180.516 43.6193 183.017 37.2517 185.432C32.9144 187.076 28.594 188.769 24.2292 190.331C22.1482 191.075 20.0484 191.779 17.9778 192.55C16.2432 193.197 14.3672 194.156 13.7249 196.02C13.6911 196.118 13.558 196.078 13.5728 195.978C13.8327 194.173 15.1722 193.045 16.6826 192.191C18.6872 191.055 20.8892 190.228 23.0052 189.317L23.2931 189.192C27.6143 187.307 31.9702 185.498 36.339 183.719C36.2957 183.613 36.2701 183.5 36.2682 183.382L36.2558 183.385C36.1763 182.577 36.5467 181.857 36.8131 181.105L37.5773 178.948C38.0864 177.512 38.5432 176.058 39.0137 174.609C39.5057 173.095 40.0023 171.582 40.4981 170.068C40.9181 168.787 41.2004 167.259 41.9189 166.113C42.0055 165.975 42.2444 166.053 42.2169 166.206ZM126.362 163.018L126.308 163.293C126.244 163.615 126.185 163.94 126.17 164.265C126.128 165.117 126.225 165.968 126.451 166.791C126.673 167.604 126.983 168.391 127.425 169.111C127.843 169.79 128.45 170.322 128.836 171.018C128.876 171.092 128.902 171.165 128.912 171.238C129.06 171.176 129.206 171.121 129.348 171.077C130.526 170.703 131.731 170.39 132.952 170.155L132.758 170.142L132.633 170.132C130.593 169.96 128.668 169.292 129.084 166.909C129.319 165.562 130.376 164.659 131.508 164.018L131.65 163.94C131.711 163.906 131.775 163.872 131.836 163.842C130.811 163.669 130.068 163.456 128.811 163.244C127.995 163.107 127.178 163.031 126.362 163.018ZM33.153 133.665C35.1592 137.72 36.6686 142.032 37.8073 146.406C38.3571 148.519 38.8235 150.652 39.1987 152.802L39.3219 153.52L39.392 153.91C39.7424 155.826 40.1875 157.903 39.6728 159.773C39.5049 160.384 38.4908 160.626 38.2068 159.965C37.3504 157.97 37.4708 155.676 37.2225 153.541C36.9616 151.301 36.6056 149.071 36.162 146.86C35.3098 142.611 34.1137 138.461 32.7804 134.343L32.6316 133.885C32.5184 133.58 33.0115 133.379 33.153 133.665ZM110.266 151.806C109.668 152.087 109.07 152.345 108.542 152.603C108.502 152.624 108.46 152.643 108.417 152.664C109.015 152.563 109.615 152.468 110.215 152.379C110.209 152.184 110.228 151.992 110.266 151.806ZM133.66 149.775C133.57 149.804 133.491 149.851 133.422 149.916L133.388 149.95C133.306 150.026 133.248 150.117 133.214 150.222C133.161 150.323 133.136 150.431 133.141 150.548L133.171 150.772C133.211 150.916 133.284 151.04 133.388 151.145L133.559 151.277C133.675 151.344 133.798 151.382 133.929 151.391L133.986 151.393H134.157C134.255 151.39 134.347 151.366 134.433 151.32C134.523 151.291 134.602 151.244 134.671 151.179L134.705 151.145C134.788 151.069 134.846 150.978 134.88 150.873C134.925 150.787 134.949 150.695 134.953 150.597V150.548L134.922 150.323C134.887 150.197 134.827 150.087 134.743 149.99L134.705 149.95L134.534 149.817C134.419 149.751 134.295 149.713 134.164 149.704L134.107 149.702H133.986C133.869 149.698 133.761 149.722 133.66 149.775ZM128.163 149.489C127.714 149.571 127.46 150.116 127.573 150.529C127.699 150.986 128.133 151.189 128.569 151.126L128.613 151.119C129.123 151.025 129.624 151.062 130.11 151.241C130.539 151.399 131.036 151.064 131.15 150.651C131.28 150.178 130.99 149.769 130.56 149.611C129.789 149.326 128.961 149.342 128.163 149.489ZM39.1538 119.466C40.1761 120.964 40.8143 122.957 41.444 124.669L41.5069 124.839C42.1762 126.639 42.8219 128.453 43.424 130.277C44.6259 133.918 46.1922 137.727 46.4817 141.573C46.5351 142.283 45.4494 142.567 45.1346 141.938C44.2302 140.13 43.7438 138.244 43.2087 136.305C42.6983 134.456 42.1665 132.614 41.6346 130.771C41.1028 128.929 40.5884 127.081 40.0646 125.237C39.5553 123.443 38.846 121.448 38.7294 119.581C38.7142 119.338 39.0364 119.293 39.1538 119.466ZM62.2262 107.401C63.591 108.348 64.7079 109.734 65.8629 110.919C67.0349 112.122 68.1909 113.336 69.3359 114.564C71.2489 116.616 73.1279 118.702 75.0679 120.729C78.9349 124.769 83.3099 128.486 88.6469 130.385C89.9389 130.845 89.3729 132.918 88.0779 132.449C82.6189 130.469 78.0969 126.808 74.1079 122.667C72.0419 120.522 70.147 118.23 68.298 115.897C67.433 114.806 66.575 113.711 65.729 112.605L65.2219 111.94C64.1579 110.536 62.856 109.136 62.0773 107.55C62.0336 107.461 62.1295 107.334 62.2262 107.401Z" fill="black"/>
<path fill-rule="evenodd" clip-rule="evenodd" d="M126.142 33.651C124.23 25.5873 120.05 18.083 113.357 12.0183C93.217 -7.90058 56.2323 2.91102 56.3998 32.9274C55.6775 36.4333 55.3843 40.0381 55.6234 43.6135C55.7223 45.139 56.3823 47.2679 55.4956 48.6412C53.4955 51.2092 52.3331 53.1022 53.0138 56.5192C53.5826 59.5022 55.612 61.6162 58.3509 62.7392C59.9935 63.2112 61.552 64.2382 62.1605 65.8042C65.817 72.5002 68.525 78.0702 74.289 82.6342C75.777 83.8092 91.031 90.8562 96.058 90.8562C110.773 90.8562 129.319 85.5232 129.627 69.0802C129.68 65.4692 129.047 61.8152 128.649 58.2322C127.682 50.0552 128.023 41.5826 126.142 33.651Z" fill="white"/>
<path fill-rule="evenodd" clip-rule="evenodd" d="M125.811 29.618C125.816 29.5182 125.959 29.4958 125.986 29.5943C126.533 31.5356 126.843 33.5132 127.271 35.4847C127.683 37.3836 128.072 39.2881 128.396 41.2038C129.006 44.8193 129.521 48.4443 130 52.0783L130.119 52.9873C130.951 59.3823 132.325 66.0443 131.123 72.4763C130.098 77.9653 126.66 82.3883 122.23 85.6313C118.036 88.7023 112.95 90.6733 107.9 91.7933C102.48 92.9963 96.0564 93.3553 91.6464 89.3793C89.8814 87.7873 92.2874 84.6282 94.2034 86.0652C98.7004 89.4372 104.42 88.4433 109.495 87.1013L109.648 87.0603C114.102 85.8733 118.585 84.0753 122.121 81.0403C126.03 77.6853 127.963 73.0283 128.186 67.9213C128.312 65.0523 128.044 62.1863 127.756 59.3343L127.724 59.0173C127.393 55.7552 127.045 52.4943 126.725 49.2313C126.432 46.2556 126.18 43.2627 126.047 40.2737L125.985 38.7661C125.855 35.7267 125.681 32.6428 125.811 29.618ZM73.0704 4.36335C80.3884 0.552053 88.7984 -0.812048 96.9424 0.467052C104.771 1.69675 111.956 5.73815 117.327 11.5332C119.949 14.3626 122.276 17.6353 123.763 21.2107C124.502 22.9869 125.081 24.8398 125.389 26.7428C125.547 27.7212 125.703 28.7348 125.733 29.7267C125.76 30.645 125.491 31.5062 125.522 32.4398C125.527 32.5858 125.304 32.6139 125.27 32.474C125.015 31.4331 124.402 30.646 124.018 29.6573C123.73 28.9191 123.404 28.1984 123.072 27.4798L122.787 26.8641C121.96 25.0746 120.97 23.3587 119.991 21.6489C118.021 18.2051 115.492 15.0754 112.531 12.4346C107.331 7.79795 100.661 4.80505 93.7004 4.26605C86.4744 3.70645 79.1464 5.42935 72.9754 9.24595C66.8054 13.0623 62.1394 18.9949 59.717 25.8256C58.4948 29.2725 57.8198 32.8639 57.6628 36.5157C57.5834 38.3641 57.6575 40.228 57.787 42.0729L57.8514 42.9527C57.9267 44.0077 57.9784 45.0587 57.8208 46.0881C58.9338 45.7409 60.1004 45.597 61.2713 45.7688C63.0114 46.0241 64.0504 46.7376 64.8314 48.2923C64.8714 48.3743 64.7904 48.4553 64.7094 48.4143C63.6974 47.9095 62.0603 48.1754 60.9888 48.4403C59.8737 48.7163 58.8694 49.1953 57.9218 49.8433C56.1689 51.0413 54.7949 52.8983 54.4577 55.0283C54.1317 57.0863 54.9761 59.1693 56.3946 60.6443C57.1247 61.4043 57.9975 62.0603 58.9746 62.4693C60.1604 62.9663 61.3342 62.9513 62.3834 63.7713C63.0324 64.2783 62.8754 65.1463 62.4353 65.7093C64.6484 68.1373 66.6114 70.7933 68.8254 73.2303C69.8504 74.3603 70.8684 75.4912 71.8514 76.6582L72.2184 77.0973C73.2004 78.2823 74.7614 79.5342 75.2104 81.0242C75.4894 81.9512 74.4964 83.1643 73.4934 82.7413C71.9544 82.0933 70.8554 80.4073 69.8164 79.1133L69.7484 79.0293C68.6574 77.6893 67.6894 76.2733 66.8044 74.7903L66.5134 74.3023C64.9124 71.6093 63.3254 68.8163 62.3048 65.8573C62.2374 65.9263 62.166 65.9893 62.0908 66.0433C60.6203 67.0893 58.4827 66.2853 57.0142 65.6053C55.6279 64.9643 54.3569 64.0002 53.3663 62.8372C51.2118 60.3092 50.2186 57.0353 50.9382 53.7543C51.5477 50.9743 53.4734 48.2703 55.998 46.8648C54.8327 45.5228 54.3501 43.7136 54.029 41.9448C53.6191 39.687 53.5374 37.3731 53.6487 35.0835C53.8708 30.5232 55.0439 26.0279 56.8575 21.8521C60.1021 14.3802 65.8384 8.13025 73.0704 4.36335ZM57.6684 54.2233C59.2044 53.9353 60.6357 53.8663 62.1171 54.5163C63.7244 55.2213 64.8554 56.3863 65.9064 57.7513C67.1024 59.3043 64.0364 61.0003 63.2634 58.9393L63.2414 58.8753C63.0344 58.2653 62.6634 57.6753 62.1936 57.1323C62.0527 57.3483 61.8642 57.5383 61.6428 57.6473C61.3747 57.7793 60.9653 57.6883 60.9008 57.3453C60.8294 56.9653 60.9084 56.5043 61.1277 56.1823L61.1577 56.1383C60.0921 55.2813 58.8103 54.6543 57.6684 54.4523C57.5544 54.4323 57.5556 54.2443 57.6684 54.2233Z" fill="black"/>
<path fill-rule="evenodd" clip-rule="evenodd" d="M105.76 76.4932C104.34 75.9132 103.073 74.9462 102.146 73.7112C101.824 73.2822 101.741 72.8292 101.808 72.4142C101.884 71.9482 102.16 71.5252 102.536 71.2422C102.913 70.9572 103.385 70.8172 103.841 70.8892C104.238 70.9512 104.632 71.1682 104.945 71.6182L105.01 71.7082C105.561 72.4542 106.278 73.0652 107.096 73.4592C107.884 73.8392 108.766 74.0172 109.678 73.9142C111.416 73.7172 112.613 72.7772 113.886 71.5012C114.044 71.3402 114.202 71.1732 114.36 71.0052C114.46 70.8512 114.599 70.7532 114.754 70.7012C114.925 70.6442 115.119 70.6472 115.297 70.7092C115.468 70.7692 115.621 70.8822 115.724 71.0332C115.821 71.1772 115.877 71.3542 115.859 71.5572C115.742 72.8802 115.051 74.0612 114.069 74.9882C112.978 76.0172 111.532 76.7302 110.171 76.9792C108.672 77.2552 107.144 77.0582 105.76 76.4932ZM110.879 56.0852C112.474 57.0552 114.905 59.3172 113.189 61.7222C111.168 63.8432 108.26 61.4112 106.827 60.3122C105.498 59.4602 104.004 61.6512 105.237 62.6472C115.595 70.3182 119.798 56.3392 111.686 54.9442C110.792 54.7912 110.461 55.7852 110.879 56.0852ZM92.3189 47.1618C92.4949 44.973 95.8269 44.476 96.1589 46.6419C96.4549 48.5822 96.1059 50.3642 95.2319 52.1112C94.3979 53.7802 92.2999 53.0012 92.1409 51.4822C91.9279 49.4452 92.2089 48.5232 92.3189 47.1618ZM117.684 46.1928C118.149 45.5841 118.82 45.1686 119.623 45.4034C122.134 46.1374 121.394 49.7032 120.512 51.4392C120.033 52.3822 118.484 52.6212 117.784 51.7912C116.644 50.4372 116.097 47.7346 117.548 46.4014C117.587 46.3325 117.631 46.263 117.684 46.1928ZM95.1969 37.5843L95.5939 37.5149C96.8209 37.3026 98.3459 37.0986 99.2139 38.0854C99.6749 38.6087 99.8329 39.5814 99.2139 40.0823C98.1259 40.9636 96.9219 40.622 95.6179 40.6967C94.5429 40.7584 93.5099 40.9363 92.4749 41.2324C90.2029 41.8819 88.3519 43.0676 86.4119 44.3695C86.1579 44.5403 85.8979 44.2146 86.0189 43.9764C87.1389 41.7819 89.3089 39.9793 91.4829 38.8805C92.6439 38.294 93.9129 37.8075 95.1969 37.5843ZM115.395 36.6013L115.699 36.6634C119.003 37.3543 123.295 38.7342 124.859 41.9805C124.919 42.4395 124.856 42.5379 124.805 42.6021L124.788 42.6235C124.745 42.6784 124.712 42.7541 124.513 42.8166C124.458 42.8034 124.402 42.7895 124.345 42.7747C123.628 42.5867 123.061 42.3277 122.512 42.059L121.916 41.7654C121.225 41.4265 120.528 41.0999 119.789 40.8588C118.213 40.3444 116.591 39.982 114.945 39.7885C114.588 39.7466 114.244 39.6261 113.973 39.4196C113.716 39.2236 113.519 38.9522 113.429 38.5914C113.313 38.1245 113.347 37.771 113.597 37.3498C113.785 37.0335 114.055 36.8143 114.364 36.6884C114.679 36.56 115.038 36.5298 115.395 36.6013Z" fill="black"/>
<path fill-rule="evenodd" clip-rule="evenodd" d="M92.0568 77.8183C93.7678 73.8093 97.5008 70.8633 101.799 69.7853C104.955 68.9973 108.268 69.0223 111.485 69.3353C113.171 69.4983 114.979 69.6313 116.568 70.2583C117.925 70.7933 119.03 71.8043 119.862 72.9913C120.851 74.3983 121.524 76.0082 121.997 77.6582C122.064 77.8932 122.127 78.1292 122.186 78.3672C121.98 79.6122 121.544 80.6722 120.391 81.4552C119.266 82.2192 117.924 82.5322 116.586 82.6432C116.455 82.5802 116.328 82.5152 116.212 82.4492C114.126 81.2542 112.659 78.4323 110.027 78.8143C107.678 79.1553 106.132 82.1123 104.735 83.8453C100.252 84.3683 95.7718 83.0202 92.1238 80.4552C91.9378 79.5782 91.9278 78.6923 92.0568 77.8183ZM125.233 74.7773C124.874 73.7703 124.423 72.7953 123.887 71.8763C122.117 68.8383 119.4 66.4173 116.174 65.0333C108.542 61.7653 98.6678 64.0693 92.5048 69.4303C90.3998 71.2633 88.2708 73.9563 87.6268 76.8533C87.4348 76.8913 87.2538 76.9912 87.1038 77.1322C82.6518 74.3272 78.0658 71.6293 74.4778 67.7423C71.8728 64.9173 70.0598 61.5743 68.9498 57.9013C68.8598 57.5993 68.3718 57.6433 68.3868 57.9783C68.3908 58.0563 68.3948 58.1342 68.3998 58.2122C68.3528 58.0682 68.1338 58.1423 68.1168 58.2823C67.5198 62.7443 66.7728 67.4753 67.4608 71.9603C67.8718 74.6373 69.0878 76.5962 70.7118 78.7122C72.4528 80.9802 74.4228 83.0893 76.4378 85.1123C77.7168 86.3963 79.0518 87.8773 80.6178 88.8193C82.4388 89.9133 84.5038 90.7443 86.4478 91.5883C88.4238 92.4503 90.4308 93.2453 92.4748 93.9353C96.5618 95.3193 100.786 96.2753 105.084 96.6943C108.525 97.0283 112.458 97.3923 115.756 96.0973C118.283 95.1053 120.324 93.3113 121.942 91.1533C123.704 88.8023 125.096 86.1243 125.866 83.3013C126.666 80.3683 125.402 75.2493 125.233 74.7773Z" fill="black"/>
<path fill-rule="evenodd" clip-rule="evenodd" d="M133.33 50.5722C131.316 64.2022 117.255 65.7092 114.757 52.1782C115.158 52.0032 115.446 51.6572 115.386 50.9862C115.372 48.037 116.287 44.9204 118.946 43.2805C121.694 41.5885 124.909 41.4206 128.089 41.4633C134.157 41.3188 134.03 46.3927 133.33 50.5722ZM112.556 44.6446C110.651 44.5643 108.242 44.6315 106.536 45.7922C106.067 44.5288 104.849 43.1797 103.617 42.4584C108.194 42.5924 112.905 42.1418 117.515 41.792C116.412 42.5446 115.385 43.6753 114.718 44.9825C114.098 44.6522 113.211 44.683 112.556 44.6446ZM104.162 52.0172C98.8814 70.2012 85.7004 62.2752 84.2634 59.9452C81.6714 56.0892 81.1834 46.7145 83.4414 44.2081C86.6734 41.9416 91.2484 42.5249 95.0664 42.4694C102.081 42.564 107.062 44.6632 104.162 52.0172ZM139.565 43.654C138.131 43.4663 136.597 43.4285 135.264 44.0604C134.853 42.314 133.563 40.854 132.108 40.2115C131.931 39.9904 131.958 39.8717 131.356 39.9048C127.66 38.7936 123.524 39.3815 119.972 40.5211C114.362 40.9937 108.477 41.3663 102.82 42.0175C97.5214 39.6368 81.5304 39.2879 80.5364 45.1556C79.2864 44.9686 77.1574 43.9843 76.1074 45.3194C68.4024 44.0126 60.4403 45.8288 52.7018 46.6376C50.7539 46.9965 49.7506 50.8642 51.9617 50.8112C53.2048 50.4732 51.9235 48.4032 53.5974 48.2472C61.0638 47.4312 68.3664 46.2739 75.9094 46.1384C75.6474 47.4414 80.8984 47.5261 80.9764 46.7653C80.9874 46.771 80.9994 46.7748 81.0104 46.7798C79.7134 51.6172 80.8844 58.5802 83.2294 61.5802C86.5154 65.5082 94.7644 66.6352 98.4214 64.1072C103.139 61.7752 108.048 50.0662 106.669 46.1756C109.171 45.3822 111.645 45.6204 114.242 46.0245C113.647 47.7045 112.621 51.8402 114.098 52.1992C113.827 60.4102 121.296 65.5332 128.182 62.1652C134.143 59.3662 136.227 50.5062 135.498 45.1292C136.24 46.5634 142.469 45.002 139.565 43.654Z" fill="black"/>
</svg>
