<svg width="598" height="556" viewBox="0 0 598 556" fill="none" xmlns="http://www.w3.org/2000/svg">
<path d="M551.1 292.5L555.6 289.9C577.2 269.6 590.8 240.7 590.8 208.7C590.8 175.6 576.1 148 553.2 127.6L549.9 124C538.4 62.2 485.9 29.3 408.2 21.2L222.6 6.69995C143.4 6.69995 104.1 35.3 46.6998 150.7L44.0998 152.8C21.3998 173.2 7.2998 200.9 7.2998 233.8C7.2998 269.5 24.0998 301.3 50.2998 321.7L54.0998 329.1C54.0998 329.1 140.5 545.8 481.6 549.2C478.3 551.3 585.7 534.1 559.6 431.7C552 402.4 550.7 346.7 551.1 292.5Z" fill="white" stroke="#010101" stroke-width="13" stroke-miterlimit="10"/>
<path d="M470 284.4C437.9 318.3 375 310.7 328.7 304.7C282.4 298.7 241.2 275 212.8 238.1C195 215 163.8 208.4 138.6 220.8C135.3 240.9 123 258.4 105.2 268.3C103.6 283.2 107.4 298.8 117.3 311.7C165.4 374.2 235 414.1 313.2 424.3C326.1 426 339 426.8 351.8 426.8C416.6 426.8 450.8 430.4 503 390.3C529.4 370 521.3 329.9 523.5 281C525 245 514.4 237.6 470 284.4Z" fill="#010101"/>
<path d="M505.799 387.9C501.399 361.7 458.099 331.5 396.199 309.9C373.199 310.4 349.399 307.4 328.799 304.8C305.599 301.8 283.699 294.4 264.099 283C198.199 278.9 148.699 291.7 142.999 317.8C135.199 353.1 210.099 399.6 310.299 421.6C318.099 423.3 325.799 424.8 333.499 426.1C339.699 426.5 345.799 426.7 351.999 426.7C416.799 426.7 450.999 430.3 503.199 390.2C504.099 389.4 504.999 388.7 505.799 387.9Z" fill="#010101"/>
<path d="M523.4 280.8C521.2 329.7 529.3 369.8 502.9 390.1C450.7 430.3 416.5 426.6 351.7 426.6C338.9 426.6 326 425.8 313.1 424.1C234.9 414 165.3 374 117.2 311.5C107.3 298.7 103.4 283.1 105.1 268.1C122.8 258.2 135.2 240.7 138.5 220.6C163.7 208.2 194.9 214.9 212.7 237.9C241.2 274.9 282.4 298.5 328.6 304.5C374.9 310.5 437.8 318 469.9 284.2C514.4 237.6 525 245 523.4 280.8Z" stroke="#010101" stroke-width="13" stroke-miterlimit="10"/>
<path d="M172.799 178.6C168.699 178.6 164.799 177 161.899 174.1C158.999 171.2 157.399 167.3 157.399 163.2C157.399 159.1 158.999 155.2 161.899 152.3C181.299 132.9 207.199 122.2 234.699 122.2C262.199 122.2 288.099 132.9 307.499 152.3C310.399 155.2 311.999 159.1 311.999 163.2C311.999 167.3 310.399 171.2 307.499 174.1C304.599 177 300.699 178.6 296.599 178.6C292.499 178.6 288.599 177 285.699 174.1C272.099 160.5 253.999 153 234.699 153C215.399 153 197.299 160.5 183.699 174.1C180.799 177 176.899 178.6 172.799 178.6Z" fill="white" stroke="#010101" stroke-width="13" stroke-miterlimit="10"/>
<path d="M464.5 177.6C460.9 177.6 457.4 176.2 454.7 173.5C439 157.8 413.4 157.8 397.7 173.5C392.3 178.9 383.5 178.9 378.1 173.5C372.7 168.1 372.7 159.3 378.1 153.9C404.6 127.4 447.8 127.4 474.4 153.9C479.8 159.3 479.8 168.1 474.4 173.5C471.6 176.2 468 177.6 464.5 177.6Z" fill="white" stroke="#010101" stroke-width="13.9645" stroke-miterlimit="10"/>
<path d="M52.2998 274.1C41.4998 235.5 64.0998 195.5 102.6 184.8C102.6 184.8 125 177.6 159.4 194.4C199.7 214.1 225.3 185.8 225.3 185.8" stroke="#010101" stroke-width="9" stroke-miterlimit="10" stroke-linecap="round"/>
<path d="M221.56 161.237C236.602 156.792 246.081 144 242.731 132.666C239.382 121.332 224.473 115.747 209.431 120.192C194.389 124.637 184.911 137.429 188.26 148.763C191.61 160.097 206.519 165.682 221.56 161.237Z" fill="#010101"/>
<path d="M411.324 167.741C423.146 164.938 431.108 155.826 429.108 147.389C427.107 138.952 415.902 134.385 404.08 137.188C392.258 139.991 384.295 149.103 386.296 157.54C388.296 165.977 399.502 170.544 411.324 167.741Z" fill="#010101"/>
<path d="M173.8 113C204.8 69.5 265.2 59.5 308.7 90.5" stroke="#010101" stroke-width="3.8353" stroke-miterlimit="10" stroke-linecap="round"/>
<path d="M152.1 114.4C180 59.6 247 37.8 301.8 65.6" stroke="#010101" stroke-width="4.4165" stroke-miterlimit="10" stroke-linecap="round"/>
<path d="M537.6 219.6C527.3 207 505.4 204.2 493.5 207.9C478.4 212.6 464.4 221.5 449.2 205.4" stroke="#010101" stroke-width="5.227" stroke-miterlimit="10" stroke-linecap="round"/>
<path d="M373.799 157.5C374.099 187.4 388.099 216.7 414.299 235.4C414.299 235.4 417.499 280.5 370.899 278.4" stroke="#010101" stroke-width="13.9645" stroke-miterlimit="10" stroke-linecap="round"/>
<path d="M384.1 84.1C422.6 64.4 469.7 79.7 489.4 118.1" stroke="#010101" stroke-width="3.1031" stroke-miterlimit="10" stroke-linecap="round"/>
<path d="M383.8 67.4C427.3 49.7 476.8 70.6 494.6 114" stroke="#010101" stroke-width="3.3708" stroke-miterlimit="10" stroke-linecap="round"/>
<path d="M449.1 308.8L449.2 317.8C449.2 320.7 451.8 323 454.8 322.6C460.3 321.8 465.8 320.9 471.2 320C473.7 319.6 475.4 317.3 475.2 314.7L473.7 299.3C473.3 295.5 468.9 293.6 465.9 295.9C461.6 299.2 456.9 302.1 451.9 304.4C450.1 305.2 449.1 306.9 449.1 308.8Z" fill="white"/>
<path d="M514.4 257.6C513.3 257.1 509.7 256.9 500.3 263.9L512.7 310.6C514.3 310.2 515.9 309.7 517.5 309.3C517.5 307.3 517.5 305.3 517.5 303.3C517.5 302.9 517.5 302.5 517.5 302C517.5 300.1 517.5 298.2 517.5 296.3C517.5 295.7 517.5 295.1 517.5 294.5C517.5 292.7 517.6 290.8 517.6 288.9C517.6 288.2 517.6 287.5 517.7 286.8C517.7 285.3 517.8 283.8 517.9 282.2C517.9 281.7 517.9 281.2 518 280.7C518.1 278.8 518.1 277 518.1 275.4C518.2 260 515.1 257.9 514.4 257.6Z" fill="white"/>
<path d="M332.1 321.3L333 314.1C333.2 312.4 332 310.9 330.4 310.7C329.6 310.6 328.8 310.5 328.1 310.4C308.3 307.8 289.5 302.1 272 293.6C270.2 292.7 268.1 293.8 267.7 295.7L264.8 308.9C264.4 310.5 265.4 312.1 267 312.5C287.3 317.6 307.9 321.5 328.8 323.9C330.4 324.2 331.9 323 332.1 321.3Z" fill="white"/>
<path d="M177.799 222C167.299 219.5 155.999 220 145.499 224.1C144.299 224.6 143.299 225.6 142.999 226.9C140.999 235.5 137.299 243.6 132.399 250.8C131.099 252.7 131.699 255.2 133.599 256.4C143.199 262.3 152.899 267.8 162.799 272.9C168.799 276 175.999 272.1 176.699 265.4L180.699 226.2C180.999 224.3 179.699 222.4 177.799 222Z" fill="white"/>
<path d="M255.399 300.5L257.299 292C257.999 288.7 256.599 285.2 253.699 283.4C236.499 272.4 221.199 258.3 208.399 241.7C206.999 239.9 205.599 238.3 203.999 236.7C199.199 231.8 190.899 234.7 190.199 241.6L186.399 278.3C185.999 281.8 187.899 285.1 191.199 286.5C208.799 294.2 226.799 300.9 245.099 306.5C249.599 307.9 254.299 305.1 255.399 300.5Z" fill="white"/>
<path d="M396.7 320L396.5 321.7C396.2 324.7 398.6 327.2 401.6 327.2C412.4 326.9 423.1 326.2 433.8 325.1C436.4 324.8 438.3 322.7 438.3 320.1V316.2C438.3 313 435.3 310.6 432.2 311.4C422.4 313.8 412 315.1 401.5 315.6C398.9 315.6 396.9 317.5 396.7 320Z" fill="white"/>
<path d="M343.7 316.9L343.2 320.9C342.9 323.4 344.7 325.7 347.2 325.9C358.4 326.8 369.6 327.3 380.8 327.4C383.1 327.4 385 325.7 385.2 323.4L385.5 320.5C385.7 318 383.8 315.7 381.3 315.7C370.1 315.3 359 314.3 348.5 313.2C346.2 312.8 344 314.5 343.7 316.9Z" fill="white"/>
<path d="M492.099 315.7C493.699 315.3 495.299 315 496.899 314.6C499.699 313.9 501.399 311 500.699 308.2L493.199 280C492.199 276.2 487.399 274.8 484.599 277.6C484.499 277.7 484.499 277.7 484.399 277.8C483.299 278.9 482.699 280.5 482.899 282L485.799 311.1C486.099 314.3 489.099 316.4 492.099 315.7Z" fill="white"/>
<path d="M351.8 421.4C357 421.4 361.9 421.4 366.7 421.4C366.9 421.4 367.1 421.4 367.3 421.4C372.2 421.4 376.3 417.7 376.8 412.8L379 389.8C379.5 384.6 375.6 379.9 370.4 379.5C362.3 378.8 354.2 377.9 346.2 376.8C341 376.1 336.1 379.8 335.5 385L332.4 410.6C331.7 416.1 335.9 421 341.5 421.2C344.8 421.3 348.3 421.4 351.8 421.4Z" fill="white"/>
<path d="M479.1 400.1C480.7 399.1 482.3 398.1 484 397.1C485.7 396 486.7 394 486.5 391.9L485.6 382.1C485.3 379 482.5 376.8 479.4 377.2C478.5 377.3 477.6 377.4 476.8 377.5C474.3 377.8 472.3 379.9 472 382.4L470.8 394.8C470.4 399.3 475.2 402.4 479.1 400.1Z" fill="white"/>
<path d="M238.599 349.2C222.199 343 206.199 335.9 190.699 328C186.399 325.8 181.299 328.6 180.799 333.4L178.099 359.9C177.899 362.3 178.899 364.7 180.799 366.1C195.099 376.5 210.299 385.6 226.199 393.1C230.099 395 234.799 392.7 235.699 388.4L242.699 357C243.499 353.8 241.699 350.4 238.599 349.2Z" fill="white"/>
<path d="M421.9 414L426.4 390.9C427.4 386 423.6 381.4 418.5 381.4C417.1 381.4 415.7 381.4 414.3 381.4C408.9 381.4 403.6 381.3 398.2 381.1C394 381 390.4 384.1 390 388.3L387.7 412.6C387.2 417.3 391 421.4 395.8 421.3C402.4 421.2 408.7 420.9 414.7 420.4C418.4 420.1 421.2 417.4 421.9 414Z" fill="white"/>
<path d="M122.9 286.4C118.1 282.9 111.5 287.7 113.5 293.3C115.4 298.7 118.2 303.8 121.7 308.4C132.8 322.9 145.2 336.1 158.5 348C162.2 351.3 168.2 349 168.7 344L171 321.6C171.2 319.2 170 316.9 167.9 315.7C152.4 306.8 137.4 297 122.9 286.4Z" fill="white"/>
<path d="M499.6 386C503.5 383 506.6 379.5 509 375.3C509.8 374 508.6 372.4 507.2 372.7C504 373.3 500.7 373.9 497.4 374.4C496.5 374.6 495.9 375.4 496 376.3L496.8 384.8C497 386.1 498.5 386.8 499.6 386Z" fill="white"/>
<path d="M320.9 413.6L325.1 379.3C325.5 376 323.3 373.1 320.1 372.4C300.1 368.5 280.4 363.4 261 357.1C257.5 356 253.8 358.1 253 361.7L245.4 395.7C244.7 398.7 246.4 401.8 249.3 402.9C269.9 410.6 291.6 416 314 418.9C314 418.9 314 418.9 314.1 418.9C317.4 419.4 320.4 416.9 320.9 413.6Z" fill="white"/>
<path d="M438.6 385.9L434.3 408.1C433.4 412.9 437.8 417.1 442.5 415.9C446.5 414.9 450.4 413.6 454.4 412.2C456.8 411.3 458.5 409.1 458.8 406.5L460.6 387.3C461 383.2 457.6 379.7 453.4 380C450.5 380.2 447.7 380.4 444.8 380.6C441.7 380.7 439.1 382.9 438.6 385.9Z" fill="white"/>
<path d="M370.9 138.8C366.9 119.4 373.9 100.1 392.6 92.7" stroke="#010101" stroke-width="3.1031" stroke-miterlimit="10" stroke-linecap="round"/>
<path d="M301.1 96.7999C301.1 96.7999 315 107.4 314.2 138.8" stroke="#010101" stroke-width="3.1031" stroke-miterlimit="10" stroke-linecap="round"/>
<path d="M426.2 249.8C426.2 249.8 445.3 266.9 461.3 265.8" stroke="#010101" stroke-width="3.1031" stroke-miterlimit="10" stroke-linecap="round"/>
<path d="M321.1 276.7C311.6 273.5 306.6 263.2 309.8 253.7C313 244.2 323.3 239.2 332.8 242.4" stroke="#010101" stroke-width="9.3839" stroke-miterlimit="10" stroke-linecap="round"/>
<path d="M329.7 266.9C337.9 261.2 349.2 263.1 354.9 271.3Z" fill="#8CBF4A"/>
<path d="M329.7 266.9C337.9 261.2 349.2 263.1 354.9 271.3" stroke="#010101" stroke-width="9.3839" stroke-miterlimit="10" stroke-linecap="round"/>
<path d="M142 386.3C142 386.3 432 564.3 513.8 434.2" stroke="#010101" stroke-width="2.7721" stroke-miterlimit="10" stroke-linecap="round"/>
<path d="M125.1 389C125.1 389 423.9 585.6 523.3 472" stroke="#010101" stroke-width="5.227" stroke-miterlimit="10" stroke-linecap="round"/>
<path d="M320.8 447.1C320.8 447.1 394.4 477.9 438.2 455.2" stroke="#010101" stroke-width="5.227" stroke-miterlimit="10" stroke-linecap="round"/>
<path d="M121.6 100.1C121.6 100.1 175.6 -0.900084 298.9 42.1999C364.5 65.0999 379.1 52.3999 407.2 49.3999C407.2 49.3999 475.2 39.4999 502.7 99.9999" stroke="#010101" stroke-width="5.227" stroke-miterlimit="10" stroke-linecap="round"/>
<path d="M546.7 191.3C560.7 205.3 560.7 228 546.7 241.9" stroke="#010101" stroke-width="3.1031" stroke-miterlimit="10" stroke-linecap="round"/>
<path d="M504.1 162.2C512.7 159.6 522.1 159.1 531.5 161.2C560.3 167.7 578.4 196.3 572 225.1C568.6 240 559.4 252.1 547.2 259.3" stroke="#010101" stroke-width="2.5953" stroke-miterlimit="10" stroke-linecap="round"/>
<path d="M98.4994 159.5C50.4994 162.5 16.4994 216.1 25.1994 254.6C27.9994 267.3 34.0994 278.4 42.2994 287.3" stroke="#010101" stroke-width="2.5953" stroke-miterlimit="10" stroke-linecap="round"/>
<path d="M131.1 200.1C133.9 206.3 135.5 213.2 135.5 220.5C135.5 247.6 113.6 269.5 86.5 269.5" stroke="#010101" stroke-width="9" stroke-miterlimit="10" stroke-linecap="round"/>
</svg>
