<svg xmlns="http://www.w3.org/2000/svg" xmlns:xlink="http://www.w3.org/1999/xlink" viewBox="0 0 5760 1080"><defs><style>.cls-1{fill:url(#Dégradé_sans_nom_5);}.cls-2{fill:#ebecec;}.cls-3{opacity:0.1;}.cls-14,.cls-20,.cls-23,.cls-3,.cls-30,.cls-31,.cls-4,.cls-5,.cls-6,.cls-7{isolation:isolate;}.cls-4{opacity:0.05;}.cls-17,.cls-5,.cls-6,.cls-7{fill:#0c0c1c;}.cls-23,.cls-5{opacity:0.4;}.cls-14,.cls-15,.cls-31,.cls-6{opacity:0.6;}.cls-18,.cls-7{opacity:0.8;}.cls-8{fill:#090916;}.cls-9{fill:#2a122d;}.cls-10{fill:#29132d;}.cls-11{fill:#161630;}.cls-12{fill:#080816;}.cls-13{fill:#190b1c;}.cls-14,.cls-26{fill:#482647;}.cls-16{fill:#0a0a1c;}.cls-19,.cls-20{fill:#04040a;}.cls-20{opacity:0.7;}.cls-21,.cls-30{opacity:0.5;}.cls-22{opacity:0.9;}.cls-23,.cls-28,.cls-30{fill:#070711;}.cls-24{fill:#0b0b19;}.cls-25{fill:#0b0b1c;}.cls-27{fill:#0c0c1e;}.cls-29{fill:#0e0e23;}.cls-31{fill:#3d1f3d;}.cls-32{fill:#ffce54;}.cls-33{fill:#fc6e51;}.cls-34{fill:#04040c;}.cls-35{fill:#101028;}.cls-36{fill:#15152d;}.cls-37{fill:#431f3d;}.cls-38{fill:#321935;}.cls-39{fill:#fff;}</style><linearGradient id="Dégradé_sans_nom_5" y1="540" x2="5760" y2="540" gradientUnits="userSpaceOnUse"><stop offset="0.14" stop-color="#692339"/><stop offset="0.23" stop-color="#642239"/><stop offset="0.34" stop-color="#572039"/><stop offset="0.43" stop-color="#441d3a"/><stop offset="0.71" stop-color="#271936"/><stop offset="1" stop-color="#17122a"/></linearGradient></defs><title>Landscape-full-night</title><g id="fond"><rect class="cls-1" width="5760" height="1080"/></g><g id="sun-moon"><circle class="cls-2" cx="2704.83" cy="130.9" r="50"/><path class="cls-3" d="M2678.21,143.22A21.5,21.5,0,0,0,2662.14,157a50.12,50.12,0,0,0,34.67,23.31,21.51,21.51,0,0,0-18.6-37Z"/><path class="cls-3" d="M2746,102.55a50.26,50.26,0,0,0-14.19-13.73l-.16,0a12.15,12.15,0,1,0,14.35,13.7Z"/><circle class="cls-3" cx="2738.18" cy="133.49" r="9.95"/><circle class="cls-3" cx="2678.45" cy="104.64" r="6.07"/><circle class="cls-3" cx="2723.41" cy="154.21" r="6.07"/><path class="cls-4" d="M2741.62,164.76c-62.09,10.33-76.16-60.56-55.36-80.29a50,50,0,1,0,55.36,80.29Z"/></g><g id="background-trees"><path class="cls-5" d="M3296.37,1029.28a23.6,23.6,0,0,0-.19-2.86l5.11,10.92-7.35-38.3-1-2.33c-.19-1.69-.38-3.4-.6-5.17l2.7,6.11-5.94-46.59-2.35-7.07c-.3-2.46-.6-4.92-.88-7.37l4.89,12.82L3277.82,865v4.38c-.57-4.7-.89-7.39-.89-7.39a19.21,19.21,0,0,1-.24,2.5c0,1.07-.23,2.46-.4,4.12V865l-13.43,82.13,6.2-14.57c-.23,2.13-.49,4.44-.75,6.66l-2.18,5.77-7.8,37.45,6-7.81q-.42,3.5-.79,6.86l-2.14,3.3-9.94,47,7.87-13.83c-.92,8.08-1.5,13-1.5,13h.45l-3.95,7.69,24.27-3.46,17.78-2.54-1-2.36C3296,1030,3296.33,1029.67,3296.37,1029.28Z"/><path class="cls-5" d="M3255.47,1028.66a17.14,17.14,0,0,0-.17-2.14l4.66,7.76-6.71-27.12-.92-1.66c-.17-1.18-.36-2.42-.54-3.66l2.44,4.28L3248.82,973l-2.13-5c-.28-1.75-.54-3.51-.82-5.24l4.49,9.09-11.9-60v3.24c-.51-3.33-.84-5.23-.84-5.23a12.15,12.15,0,0,1-.19,1.77c-.1.75-.21,1.75-.38,2.93V912l-12.12,58.32,5.66-10.37-.7,4.75-2.14,4.27-7.11,26.63,5.47-5.54c-.26,1.65-.5,3.27-.73,4.88l-2,2.32-9,33.24,7.21-9.83-1.37,9.23h.41l-3.62,5.38,22.21-2.48,16.24-1.81-.94-1.65C3255.11,1029.15,3255.43,1028.92,3255.47,1028.66Z"/><path class="cls-5" d="M3215.85,1044.09c0-.19,0-.9-.11-2l3.44,7.76-5-27.23-.68-1.64c-.13-1.2-.26-2.44-.41-3.68l1.82,4.28-4-33.11-1.58-5c-.21-1.75-.4-3.49-.6-5.24l3.32,9.08-8.81-60v3.12l-.6-5.26a15.3,15.3,0,0,1-.15,1.77c0,.77-.17,1.75-.28,2.93v-2.56l-9.06,58.34,4.28-10.37-.52,4.75-1.51,4.27-5.26,26.61,4-5.54c-.17,1.65-.36,3.27-.53,4.88l-1.46,2.33L3185.5,1046l5.32-9.83c-.62,5.75-1,9.21-1,9.21h.3l-2.67,5.39,16.41-2.48,12-1.8-.71-1.66C3215.51,1044.6,3215.85,1044.37,3215.85,1044.09Z"/><path class="cls-5" d="M3160.45,1041a13.65,13.65,0,0,0-.12-1.56l3.14,5.94-4.51-20.81-.62-1.26c-.13-.92-.24-1.86-.36-2.8l1.64,3.31L3156,998.4l-1.45-3.87c-.17-1.32-.37-2.67-.54-4l3,6.94-8-45.86V954c-.34-2.54-.55-4-.55-4a10.32,10.32,0,0,1-.13,1.37l-.26,2.25v-2l-8.21,44.64,3.83-7.9c-.17,1.21-.32,2.41-.47,3.63l-1.39,3.2-4.79,20.31,3.68-4.28c-.17,1.26-.32,2.5-.49,3.72l-1.33,1.8-6.11,25.64,4.85-7.52c-.57,4.4-.92,7.07-.92,7.07h.28l-2.37,4.11,15-1.88,10.94-1.37-.64-1.28C3160.28,1041.36,3160.43,1041.14,3160.45,1041Z"/><path class="cls-5" d="M3127.31,1034.37a10.17,10.17,0,0,0-.11-1.11l2.52,4.27-3.61-15-.49-.9a13.59,13.59,0,0,0-.3-2l1.33,2.38-2.93-18.06-1.16-2.76c-.15-.94-.27-1.9-.42-2.84l2.39,5-6.41-32.72v1.69c-.28-1.82-.43-2.87-.43-2.87l-.13,1a5.37,5.37,0,0,1-.19,1.61v-1.39l-6.52,31.8,3-5.67c-.11.86-.24,1.74-.37,2.59l-1.11,2.29-3.82,14.53,2.95-3c-.15.89-.28,1.79-.41,2.67l-1.05,1.26-4.87,18.25,3.87-5.37c-.47,3.15-.75,5-.75,5h.24l-2,2.93,11.93-1.35,8.74-1-.52-.9A.46.46,0,0,0,3127.31,1034.37Z"/><path class="cls-5" d="M3187.32,1030.46a14.77,14.77,0,0,0,0-1.63l3.18,6.2-4.7-21.67-.62-1.32c-.13-.95-.26-1.93-.38-2.93l1.68,3.46-3.71-26.39-1.48-4c-.19-1.39-.36-2.78-.55-4.28l3.07,7.25-8.14-47.85v2.48c-.36-2.67-.58-4.28-.58-4.28a9.86,9.86,0,0,1-.15,1.42c-.15.91-.12,1.38-.23,2.35v-2.14l-8.31,46.48,3.86-8.25c-.15,1.26-.3,2.52-.47,3.78l-1.41,3.36-4.87,21.22,3.74-4.42c-.17,1.32-.32,2.6-.49,3.89l-1.35,1.86-6.22,26.67,4.94-7.85c-.58,4.6-.94,7.38-.94,7.38h.28l-2.48,4.27,15.22-2,11.13-1.45-.66-1.32C3187.08,1030.93,3187.3,1030.73,3187.32,1030.46Z"/><path class="cls-5" d="M3391.22,1013.89a22.86,22.86,0,0,0-.17-2.86l5.1,10.92-7.35-38.3-1-2.32c-.19-1.69-.39-3.42-.6-5.18l2.67,6.12L3384,935.68l-2.35-7.1c-.3-2.43-.6-4.89-.88-7.35l4.9,12.82-13-84.43v4.27c-.57-4.68-.89-7.37-.89-7.37a19.21,19.21,0,0,1-.24,2.5c0,1.07-.23,2.46-.4,4.12v-3.61l-13.28,82L3364,917c-.23,2.14-.49,4.44-.75,6.67l-2.26,5.89L3353.2,967l6-7.8c-.28,2.33-.53,4.61-.79,6.86l-2.14,3.29-9.93,47,7.86-13.84c-.92,8.1-1.49,13-1.49,13h.44l-4,7.57,24.28-3.34,17.78-2.54-1-2.35C3390.83,1014.6,3391.2,1014.28,3391.22,1013.89Z"/><path class="cls-6" d="M3477.49,974.14a28,28,0,0,0-.25-3.54l7.28,13.57-10.47-47.62-1.43-2.88c-.28-2.14-.58-4.28-.86-6.41l3.83,7.6L3467,877l-3.29-8.91c-.41-3-.83-6.09-1.24-9.13l7,15.88L3450.93,770v5.42c-.81-5.83-1.28-9.16-1.28-9.16a22.42,22.42,0,0,1-.32,3.12l-.54,5.1V770l-18.93,102,8.82-18.11c-.34,2.76-.7,5.52-1.07,8.3l-3.2,7.33L3423.3,916l8.54-9.68c-.38,2.89-.74,5.73-1.13,8.55l-3,4.08-14.19,58.47,11.24-17.09c-1.35,10.06-2.14,16.13-2.14,16.13h.56l-5.62,9.4,34.64-4.27,25.34-3.14-1.47-2.93C3476.94,975,3477.45,974.61,3477.49,974.14Z"/><path class="cls-7" d="M3623,906.23a32.76,32.76,0,0,0-.21-3.55l5.54,13.55-7.95-47.59-1.09-2.89c-.22-2.14-.43-4.27-.67-6.41l2.91,7.61L3615.08,809l-2.57-8.8c-.32-3.06-.64-6.09-.94-9.15l5.3,15.9-14.1-104.93v5.43c-.62-5.84-1-9.17-1-9.17a29.21,29.21,0,0,1-.24,3.1c-.11,1.32-.26,3.06-.45,5.13v-4.49l-14.36,101.88,6.71-18.11-.83,8.3-2.44,7.33L3581.76,848l6.41-9.68c-.3,2.89-.58,5.73-.85,8.55l-2.27,4.08-10.68,58.47,8.54-17.09c-1,10.06-1.62,16.13-1.62,16.13h.49l-4.27,9.4,26.31-4.27,19.23-3.16-1.13-2.91C3622.52,907.1,3622.92,906.7,3623,906.23Z"/><path class="cls-5" d="M2766.08,1004.81a15,15,0,0,0-.2-2.31l5.45,8.72-7.82-30.71-1.09-1.86c-.19-1.36-.4-2.73-.64-4.14l2.86,4.89-6.41-37.35-2.43-5.63c-.3-2-.62-3.93-.92-5.89l5.21,10.25L2746.2,873.1v3.49c-.6-3.76-1-5.92-1-5.92a12.73,12.73,0,0,1-.24,2c-.1.83-.25,1.94-.42,3.29v-2.89l-14.17,65.76,6.6-11.67c-.25,1.78-.53,3.55-.79,5.34l-2.41,4.75-8.32,29.92,6.41-6.26c-.3,1.86-.57,3.69-.83,5.49l-2.29,2.65-10.68,37.72,8.42-11.09c-1,6.41-1.6,10.4-1.6,10.4h.47l-4.28,6.07,25.9-2.77,19-2.14-1.11-1.88C2765.65,1005.41,2766.05,1005.15,2766.08,1004.81Z"/><path class="cls-5" d="M2692.69,1035.18a35.75,35.75,0,0,0-.28-3.57l7.46,13.57-10.69-47.59-1.47-2.89c-.28-2.13-.56-4.27-.86-6.41l3.92,7.61L2682.22,938l-3.47-8.8-1.28-9.15,7.16,15.9-19-104.93v5.43c-.83-5.83-1.32-9.17-1.32-9.17l-.32,3.1c-.15,1.33-.34,3.06-.6,5.13V831L2644,933l9.06-18.1c-.37,2.74-.75,5.52-1.11,8.29l-3.3,7.33L2637.15,977l8.74-9.68c-.41,2.88-.79,5.73-1.16,8.55l-3.12,4.08-14.53,58.49,11.52-17.1c-1.37,10.07-2.14,16.14-2.14,16.14h.64l-5.75,9.4,35.46-4.27,25.94-3.16-1.51-2.91C2692.09,1036.06,2692.62,1035.65,2692.69,1035.18Z"/><path class="cls-5" d="M2968.54,1019.56a17.15,17.15,0,0,0-.12-2l3.44,7.76-5-27.23-.69-1.65c-.12-1.19-.25-2.41-.38-3.67l1.8,4.27-4-33-1.6-5-.58-5.24,3.29,9.11-8.78-60v3.1c-.39-3.34-.6-5.26-.6-5.26a13.53,13.53,0,0,1-.17,1.77c0,.77-.15,1.75-.28,3v-2.56l-8.95,58.3,4.27-10.35c-.17,1.57-.34,3.15-.51,4.75l-1.52,4.27L2943,986.37l4.06-5.54c-.19,1.65-.36,3.29-.53,4.88l-1.45,2.35-6.71,33.44,5.32-9.83-1,9.23h.3l-2.76,5.28,16.39-2.48,12-1.79-.71-1.67A1,1,0,0,0,2968.54,1019.56Z"/><path class="cls-5" d="M2999.1,1025.8a13.65,13.65,0,0,0-.12-1.56l3.14,5.94-4.51-20.82-.62-1.26c-.13-.92-.24-1.86-.36-2.82l1.64,3.34-3.65-25.33-1.46-3.85c-.17-1.32-.36-2.67-.53-4l3,6.94-8-45.86v2.37c-.34-2.54-.56-4-.56-4l-.13,1.36a21.17,21.17,0,0,1-.25,2.14v-1.94l-8.06,44.64,3.83-7.91c-.17,1.2-.32,2.42-.47,3.64l-1.39,3.2-4.79,20.35,3.68-4.28c-.17,1.26-.32,2.5-.5,3.72l-1.32,1.8-6.11,25.64,4.85-7.52c-.58,4.4-.92,7.07-.92,7.07h.28l-2.44,4.11,15-1.89,10.94-1.38-.64-1.27C2998.85,1026.18,2999.08,1026,2999.1,1025.8Z"/><path class="cls-5" d="M3029,1025.82v-1.11l2.5,4.27-3.61-15-.49-.89a12.85,12.85,0,0,0-.3-2l1.32,2.37-2.92-18.06-1.16-2.76c-.15-.94-.28-1.9-.43-2.84l2.42,5-6.41-32.74v1.71c-.28-1.84-.43-2.87-.43-2.87l-.13,1a14,14,0,0,1-.19,1.6v-1.39l-6.52,31.8,3.06-5.64-.39,2.58-1.11,2.29-3.82,14.53,3-3-.39,2.67-1.07,1.26-4.87,18.25,3.87-5.36c-.45,3.14-.75,5-.75,5h.24l-1.95,2.93,11.93-1.35,8.74-1-.52-.92A.39.39,0,0,0,3029,1025.82Z"/><path class="cls-5" d="M2715.26,1010.45c0-.19,0-.89-.11-2l3.14,7.76L2713.76,989l-.62-1.64a36.9,36.9,0,0,0-.36-3.68l1.64,4.28-3.65-33.13-1.45-5c-.18-1.75-.35-3.48-.54-5.22l3,9.09-8-59.93v3.1c-.36-3.33-.55-5.26-.55-5.26a15.5,15.5,0,0,1-.15,1.8c0,.75-.15,1.73-.26,2.93v-2.57l-8.16,58.3,3.82-10.34c-.15,1.56-.32,3.14-.47,4.74l-1.39,4.28-4.79,26.63,3.68-5.56c-.17,1.67-.32,3.29-.49,4.87l-1.3,2.35-6.14,33.45,4.85-9.83c-.57,5.75-.92,9.23-.92,9.23h.28l-2.43,5.39,15-2.46,10.92-1.82-.65-1.67C2715,1011,2715.23,1010.73,2715.26,1010.45Z"/><path class="cls-6" d="M2593.36,995.05a32.24,32.24,0,0,0-.26-3.55l7.27,13.57-10.45-47.62-1.46-2.88c-.28-2.14-.55-4.28-.85-6.41l3.82,7.58L2583,898l-3.38-8.81c-.42-3-.83-6.11-1.26-9.14l7.06,15.81-18.55-104.91v5.43c-.84-5.84-1.29-9.19-1.29-9.19s-.12,1.09-.34,3.12c-.13,1.32-.32,3-.57,5.11v-4.47l-18.94,101.94,8.85-18.1c-.37,2.76-.71,5.53-1.07,8.29l-3.23,7.35-11.09,46.55,8.55-9.7c-.36,2.88-.75,5.72-1.11,8.54l-3.06,4.09-14.27,58.53,11.24-17.31c-1.33,10.07-2.14,16.14-2.14,16.14h.64l-5.64,9.4,34.64-4.28,25.35-3.16-1.56-2.93C2592.78,995.92,2593.31,995.54,2593.36,995.05Z"/><path class="cls-7" d="M2407.58,962.6a26.23,26.23,0,0,0-.26-3.54l7.42,13.57L2404.05,925l-1.47-2.88c-.28-2.14-.56-4.28-.86-6.41l3.89,7.6-8.55-57.89-3.41-8.83-1.29-9.12,7.12,15.86-18.91-104.91v5.42c-.84-5.83-1.31-9.18-1.31-9.18a22.42,22.42,0,0,1-.32,3.12c-.15,1.3-.34,3-.6,5.1v-4.46l-19.23,101.94,9-18.11-1.09,8.3-3.27,7.33-11.29,46.48,8.55-9.62c-.38,2.85-.77,5.7-1.15,8.55l-3.12,4.06-14.45,58.49,11.46-17.09c-1.37,10.06-2.14,16.13-2.14,16.13h.64l-5.73,9.4,35.26-4.27,25.82-3.16-1.52-2.93C2407,963.48,2407.54,963.07,2407.58,962.6Z"/><path class="cls-8" d="M2319,945.87a33,33,0,0,0-.26-3.57l7.4,13.57-10.69-47.59-1.47-2.91c-.28-2.13-.58-4.27-.88-6.41l4,7.55-8.54-57.92-3.45-8.8c-.42-3.06-.85-6.12-1.26-9.15l7.06,16L2292,741.74v5.42c-.83-5.83-1.3-9.19-1.3-9.19s-.13,1.09-.34,3.12c-.13,1.33-.34,3.06-.58,5.13v-4.48l-19.23,102,9-18.1c-.36,2.73-.72,5.51-1.09,8.29l-3.27,7.33-11.37,46.48,8.68-9.68c-.38,2.86-.75,5.7-1.13,8.55l-3.1,4.08-14.45,58.49,11.44-17.1c-1.35,10.07-2.14,16.14-2.14,16.14h.64l-5.73,9.4,35.29-4.27,25.79-3.17-1.5-2.9C2318.44,946.75,2319,946.34,2319,945.87Z"/><path class="cls-8" d="M2151.71,929.58a33,33,0,0,0-.26-3.57l7.39,13.57L2148.16,892l-1.48-2.9c-.27-2.14-.57-4.28-.87-6.42l4,7.55-8.55-57.92-3.44-8.8q-.64-4.59-1.26-9.15l7,16-18.91-104.93v5.43c-.83-5.84-1.3-9.19-1.3-9.19s-.13,1.09-.35,3.12c-.12,1.32-.34,3.05-.57,5.13v-4.49l-19.24,102,9-18.1c-.36,2.73-.73,5.51-1.09,8.29l-3.27,7.33-11.37,46.48,8.68-9.68c-.39,2.86-.75,5.71-1.13,8.55l-3.1,4.08-14.45,58.49,11.43-17.09c-1.34,10.06-2.13,16.13-2.13,16.13h.64l-5.73,9.4L2126,937l25.8-3.16-1.5-2.91C2151.13,930.46,2151.66,930.05,2151.71,929.58Z"/></g><g id="relief"><path class="cls-9" d="M2677.11,1001.5c8.3,1.69,684.09,37.93,684.09,37.93v41.07h-414l-270.18-79"/><path class="cls-10" d="M3649.68,858.51C3629.16,863.66,3479.57,928.2,3409,969S3065,1079.42,3065,1079.42h584.71L5760,1080,5351,949,4867,806l-692-57Z"/><polygon class="cls-11" points="2113.63 935.02 2232.8 910.78 3076.55 1080.39 2113.63 1080.39 -7.07 1080.78 484.18 1041.6 1141.19 1030.55 1567.15 971.28 2113.63 935.02"/><polygon class="cls-12" points="3034.2 1077.47 2880.32 1062.32 2776.59 1069.89 2533.26 1062.32 2203.06 1077.47 3034.2 1077.47"/><path class="cls-13" d="M4457,1079.42,4287,1020l-320-32-365.71,54L3439.45,1041l-163.08,8.55-200.14,30.86Z"/><path class="cls-14" d="M2578.12,995.19c3.72-.36,193.21,38.11,193.21,38.11l-123.95-15.92-91.76-13.64Z"/><polygon class="cls-14" points="2366.72 949.25 2489.26 977.59 2369.56 963.42 2311.86 954.23 2366.72 949.25"/></g><g id="front-trees"><g class="cls-15"><path class="cls-16" d="M2611,108.54s6.41-18.65,9-30.44c3.16-13.78,3.63-78.77,3.63-78.77H2628s.39,70.14-1.73,88S2611,150.82,2611,150.82Z"/><rect class="cls-17" x="2590.56" y="-2.5" width="20.39" height="1000.7"/></g><g class="cls-18"><path class="cls-16" d="M2421.47,103.43s-6.41-18.09-9-29.52c-3.1-13.37-3.65-76.38-3.65-76.38h-4.43s-.36,68,1.76,85.32,15.32,61.55,15.32,61.55Z"/><rect class="cls-17" x="2421.47" y="-4.26" width="20.39" height="970.43"/></g><path class="cls-19" d="M2261.57,103.43s6.41-18.09,9-29.52c3.1-13.37,3.63-76.38,3.63-76.38h4.43s.38,68-1.73,85.32-15.33,61.55-15.33,61.55Z"/><rect class="cls-20" x="2241.19" y="-4.26" width="20.39" height="970.43"/><g class="cls-21"><path class="cls-19" d="M3496.3,105.58a298.86,298.86,0,0,0,12.33-29.52c4.27-13.37,5-76.39,5-76.39h6.07s.51,68-2.39,85.32-21,61.56-21,61.56Z"/><rect class="cls-19" x="3468.3" y="-2.11" width="28" height="970.43"/></g><g class="cls-22"><path class="cls-19" d="M3631.75,43.43s6.09-18.09,8.55-29.52c3-13.37,3.5-76.38,3.5-76.38h4.27s.35,68-1.66,85.32S3631.7,84.4,3631.7,84.4Z"/><rect class="cls-19" x="3612.21" y="-64.26" width="19.53" height="970.43"/></g><path class="cls-23" d="M3416.33,983.88,3764,834.67l304.7-63.52-652.41,232.59h-22.78Z"/><path class="cls-23" d="M3631.25,889.58l123.39-53,172.6-36-296,105.52h-19Z"/><rect class="cls-24" x="3552.16" y="-2.11" width="34.19" height="997.27"/><path class="cls-8" d="M3532.14,98.33V-2.11h4.76V55.21s.39,24.37,1,50.16A32.38,32.38,0,0,0,3532.14,98.33Z"/><path class="cls-24" d="M3537.8,105.37c.6,26.62,1.41,54.79,2.14,59.12,1.6,8.59,13.27,10.74,13.27,10.74V199.7a116.08,116.08,0,0,1-10.69-6.44c-10.68-6.91-10.68-15-10.68-30.38V98.33A32.69,32.69,0,0,1,3537.8,105.37Z"/><path class="cls-24" d="M3494.82-2.11s.5,19.47.64,27.46c.26,15.46,4.77,23.47,9,33.06,3.74,8.48,22.4,33.47,26.7,39.19a6.44,6.44,0,0,0-.65-.52,6.44,6.44,0,0,1,.65.52l1,1.2V113s-21.84-29.73-27.46-40.51c-5.41-10.39-11.82-32.48-11.82-40.79V-2.11Z"/><path class="cls-25" d="M3517.86,79.47s3.34-21.25,2.8-29.24,0-52.25,0-52.25h-1.35s-1.75,35.76-1.43,40.79c.41,6.44-2.24,30.06-3.82,31.49a9.22,9.22,0,0,1-3.72,1.87Z"/><path class="cls-25" d="M3517.37,49.61s-3.55-12.13-4.94-16.25a132.23,132.23,0,0,1-4.76-20.78,128.56,128.56,0,0,1,0-14.69h-1.86V16c0,2.15,5.47,22.12,5.79,24.26S3516.09,61,3516.09,61Z"/><path class="cls-8" d="M3586.36,100.58A261.28,261.28,0,0,0,3602.06,72c5.41-12.88,6.41-74.07,6.41-74.07h7.74s.64,66-3,82.72-26.78,59.69-26.78,59.69Z"/><polygon class="cls-26" points="3556.44 360.36 3562.8 382.61 3565.26 571.84 3557.29 617.29 3556.44 360.36"/><polygon class="cls-26" points="3557.29 639.47 3557.29 896.39 3565.26 868.48 3565.26 598.33 3557.29 639.47"/><path class="cls-26" d="M3553.29,188.61V199.7s-19.7-7.66-20.47-21-.68-63.1-.68-63.1,2.63,34.35,2.63,44S3538.4,184.68,3553.29,188.61Z"/><path class="cls-26" d="M3517.37,92.36s-5.21-7-9.79-14.77a110.64,110.64,0,0,1-8-17.18c-2.71-8.14-5.58-20-5.58-20s6.63,19.32,8.55,23.79a127.12,127.12,0,0,0,9,16.51c4.65,7.11,9.51,13.61,9.7,14Z"/><polygon class="cls-26" points="3565.26 365.56 3557.29 344.45 3557.29 162.67 3557.29 162.67 3565.26 365.56"/><rect class="cls-24" x="3393.55" y="-4.26" width="22.8" height="1008"/><path class="cls-24" d="M3361.17,117.86c-5.17-3.75-9.55-8.31-14.43-12.36.18,12.71,1.31,32.52,6.31,42.14,7.67,14.82,36,38.78,39,58.91s3.83,24.24,3.83,24.24V164.24S3364.4,124.56,3361.17,117.86Z"/><path class="cls-24" d="M3360.89,117.45c-2.13-5.47-4.27-38.32-4.27-49L3354.1-3.27h-6.82l-.56,97.13s-.17,4.81,0,11.66c4.88,4.06,9.26,8.59,14.43,12.36Z"/><path class="cls-24" d="M3356.68,68.46s21.37-24.52,25.48-27.35,5.15-44.19,5.15-44.19h-4.49s-.58,30.06-3.06,35.84-23.65,19.71-23.65,19.71Z"/><path class="cls-24" d="M3326.49,82.18c-1-6.27,3.59-3.69,3.78-38.9,0-8.27-.15-46.68-.15-46.68H3326s.11,43.8-.28,52c-.34,6.85-1.21,17.18-3.16,20.31A17.4,17.4,0,0,0,3326.49,82.18Z"/><path class="cls-24" d="M3346.6,107.39s-17.83-15.57-19.84-23.79a13.38,13.38,0,0,1-.27-1.42,17.45,17.45,0,0,1-4-13.29c-.38.6-.81.94-1.28.88-2.86-.43-3-73.23-3-73.23h-3.68s.39,76.62,2.78,86.07S3346,128,3350,139,3346.6,107.39,3346.6,107.39Z"/><path class="cls-24" d="M3416.33,223.09s19.23-24.59,20.22-40.6,3.18-184,3.18-184h8.85s.87,173.91,0,191.47-12.14,50.49-26.4,68.92c-3.54,4.59-5.57,20.67-5.57,20.67Z"/><path class="cls-27" d="M3448.79,48.37s16.48-19.95,18.08-26.54a212.6,212.6,0,0,0,2.65-23.34h2.65s1.6,25.76,0,29.05-23.51,35.9-23.51,35.9Z"/><polygon class="cls-26" points="3397.46 404.38 3402.39 426.62 3404.3 615.85 3398.12 661.3 3397.46 404.38"/><polygon class="cls-26" points="3398.12 688.61 3398.12 977.46 3404.3 946.1 3404.3 642.35 3398.12 688.61"/><polygon class="cls-26" points="3404.3 409.57 3398.12 388.47 3398.12 206.68 3398.12 206.68 3404.3 409.57"/><path class="cls-26" d="M3392,192.19l-35.13-47.32c.44.8,2.13,7.06,2.13,7.06l33,43.61Z"/><path class="cls-26" d="M3324.05,92.49c.26.4,23.64,34.09,23.64,34.09l-1.07,2.94Z"/><rect class="cls-24" x="2504.2" y="-2.11" width="34.19" height="997.27"/><path class="cls-8" d="M2558.48,98.33V-2.11h-4.77V55.21s-.38,24.37-1,50.16A32.42,32.42,0,0,1,2558.48,98.33Z"/><path class="cls-8" d="M2552.75,105.37c-.6,26.62-1.41,54.79-2.14,59.12-1.6,8.59-13.27,10.74-13.27,10.74V199.7a114.75,114.75,0,0,0,10.69-6.44c10.68-6.91,10.68-15,10.68-30.38V98.33A33,33,0,0,0,2552.75,105.37Z"/><path class="cls-8" d="M2595.73-2.11s-.49,19.47-.64,27.46c-.26,15.46-4.77,23.47-9,33.06-3.74,8.48-22.4,33.47-26.69,39.19a5.38,5.38,0,0,1,.64-.52,5.38,5.38,0,0,0-.64.52l-.9,1.18V113s21.84-29.74,27.46-40.51c5.41-10.39,11.82-32.49,11.82-40.8V-2.11Z"/><path class="cls-8" d="M2572.69,79.47s-3.33-21.25-2.8-29.24,0-52.25,0-52.25h1.43s1.76,35.76,1.43,40.79c-.4,6.44,2.14,30.06,3.83,31.49a9.16,9.16,0,0,0,3.72,1.87Z"/><path class="cls-8" d="M2573.18,49.61s3.55-12.13,4.94-16.25a131.12,131.12,0,0,0,4.76-20.78,124.13,124.13,0,0,0,0-14.69h1.86V16c0,2.15-5.47,22.12-5.79,24.26S2574.46,61,2574.46,61Z"/><path class="cls-8" d="M2504.2,100.58A259.69,259.69,0,0,1,2488.49,72c-5.41-12.88-6.41-74.07-6.41-74.07h-7.74s-.64,66,3,82.72,26.82,59.69,26.82,59.69Z"/><polygon class="cls-26" points="2534.12 360.36 2527.75 382.61 2525.29 571.84 2533.26 617.29 2534.12 360.36"/><polygon class="cls-26" points="2533.26 639.47 2533.26 896.39 2525.29 868.48 2525.29 598.33 2533.26 639.47"/><path class="cls-26" d="M2537.26,188.61V199.7s19.7-7.66,20.47-21,.75-63.06.75-63.06-2.63,34.35-2.63,44S2552.15,184.68,2537.26,188.61Z"/><path class="cls-26" d="M2573.18,92.36s5.22-7,9.79-14.77a109.72,109.72,0,0,0,8-17.18c2.72-8.14,5.58-20,5.58-20s-6.63,19.32-8.55,23.79a127.36,127.36,0,0,1-9,16.47c-4.64,7.1-9.49,13.61-9.71,14Z"/><polygon class="cls-26" points="2525.29 365.56 2533.26 344.45 2533.26 162.67 2533.26 162.67 2525.29 365.56"/><path class="cls-19" d="M2187.2,100.17a259.67,259.67,0,0,0,15.67-28.64c5.4-12.88,6.41-74.07,6.41-74.07H2217s.67,66-3,82.74-26.78,59.69-26.78,59.69Z"/><rect class="cls-19" x="2151.58" y="-4.26" width="35.63" height="940.95"/><rect class="cls-28" x="2311.86" y="-2.69" width="39.51" height="939.4"/><path class="cls-28" d="M2391.74,111.12c6.41-3.52,11.89-7.75,18-11.53-.23,11.83-1.64,30.3-7.84,39.27-9.55,13.8-44.88,36.15-48.53,54.9s-4.75,22.58-4.75,22.58v-62S2387.62,117.43,2391.74,111.12Z"/><path class="cls-28" d="M2392,110.73c2.67-5.11,5.32-35.72,5.26-45.66l3.2-66.84H2409l.68,90.54s.22,4.47,0,10.86c-6.07,3.78-11.52,8-18,11.53A4.44,4.44,0,0,0,2392,110.73Z"/><path class="cls-28" d="M2397.34,65.07s-26.71-22.84-31.8-25.49-6.41-41.17-6.41-41.17h5.58s.73,27.91,3.82,33.38,29.41,18.38,29.41,18.38Z"/><path class="cls-29" d="M2434.78,77.86c1.31-5.84-4.46-3.45-4.7-36.26,0-7.68.17-43.5.17-43.5h5.15s-.12,40.8.37,48.46c.4,6.44,1.49,16.1,3.91,18.94A13.68,13.68,0,0,1,2434.78,77.86Z"/><path class="cls-28" d="M2409.78,101.35s22.16-14.51,24.64-22.15c.15-.5.28-1,.36-1.34a13.66,13.66,0,0,0,4.9-12.38,1.93,1.93,0,0,0,1.6.81C2444.83,65.91,2445-2,2445-2h4.57s-.47,71.41-3.46,80.23-35.52,42.32-40.5,52.58S2409.78,101.35,2409.78,101.35Z"/><path class="cls-28" d="M2323,209.17s-23.81-22.91-25.14-37.85-4-171.45-4-171.45h-11s-1,162,0,178.37,15.11,47.23,32.83,64.4c4.42,4.3,6.94,19.33,6.94,19.33Z"/><path class="cls-8" d="M2282.67,46.35s-20.48-18.6-22.46-24.74-3.32-21.74-3.32-21.74h-3.31s-2,24.06,0,27.07,29.34,33.45,29.34,33.45Z"/><polygon class="cls-14" points="2346.52 378.14 2340.37 398.84 2338 575.21 2345.69 617.57 2346.52 378.14"/><polygon class="cls-14" points="2345.69 643.01 2345.69 912.22 2338 882.98 2338 599.9 2345.69 643.01"/><polygon class="cls-14" points="2338 382.97 2345.69 363.28 2345.69 193.89 2345.69 193.89 2338 382.97"/><path class="cls-14" d="M2353.28,180.38l43.72-44.1c-.56.73-2.76,6.59-2.76,6.59l-41,40.65Z"/><path class="cls-14" d="M2437.82,87.46l-29.41,31.78,1.33,2.74Z"/><polygon class="cls-30" points="2187.2 936.69 1836.5 1104.02 756.28 1111.61 2151.58 931.82 2187.2 936.69"/><path class="cls-30" d="M2356.5,936.93,1739,1083H1555l762-155.82C2322.33,926.69,2356.5,936.93,2356.5,936.93Z"/><polygon class="cls-30" points="1725.11 1083 1715.91 1179.06 2297.97 973.42 2209.94 968.31 1725.11 1083"/><path class="cls-23" d="M3586.36,995.16c3.48,0,732.66-234.57,732.66-234.57L4175,749l-214.08,44.63L3579.15,968.79Z"/></g><g id="fire-camp"><path class="cls-19" d="M3038.93,1036l-4.75-.3c-1.46-.09-2.51-2.33-2.34-5s1.48-4.78,2.95-4.69l9.46.6,42.25,2.68-.6,9.71Z"/><path class="cls-26" d="M3044,1034.11h-.12l-6-.42a.45.45,0,0,1,.06-.89s3,.22,6,.42a.45.45,0,0,1,.41.48A.44.44,0,0,1,3044,1034.11Z"/><path class="cls-26" d="M3035.26,1035.42c1.39-.47,3.22,1.22,4.07,3.77s.42,5-1,5.46-3.21-1.22-4.06-3.77S3033.87,1035.89,3035.26,1035.42Z"/><path class="cls-31" d="M3035.84,1037.15a2,2,0,0,0-.16.53,5.62,5.62,0,0,0,.3,2.64,4.59,4.59,0,0,0,1.81,2.61,4.73,4.73,0,0,0-.14-3.18A4.5,4.5,0,0,0,3035.84,1037.15Z"/><path class="cls-24" d="M3082.56,1029.73l-12.31,4.15-5.94,2-25.95,8.76c1.39-.47,1.83-2.91,1-5.46s-2.68-4.24-4.07-3.77l4.91-1.66,12.64-4.26,22.58-7.62,9-3c1.39-.46,3.22,1.23,4.07,3.77s.42,5-1,5.46Z"/><path class="cls-26" d="M3043.84,1035.79a.42.42,0,0,1-.45-.3.44.44,0,0,1,.28-.56l12.44-4.17a.44.44,0,0,1,.56.28.45.45,0,0,1-.28.56l-12.44,4.17Z"/><path class="cls-26" d="M3083.68,1026.54a.44.44,0,0,0-.56-.28c-.09,0-8.86,3.08-11.34,3.91a3,3,0,0,0-1.82,1.48,3.36,3.36,0,0,0-.13,2.37l.42-.14.42-.14h0a2.49,2.49,0,0,1,.08-1.7,2.2,2.2,0,0,1,1.31-1c2.49-.82,11.26-3.87,11.35-3.9A.44.44,0,0,0,3083.68,1026.54Z"/><path class="cls-32" d="M3065.25,1009.27a11.43,11.43,0,0,1,3.75,8.94,8.65,8.65,0,0,1-17.29,0c0-9.45,7.38-14.61,7.38-14.61s1,6.59,2.32,7.86S3065.25,1009.27,3065.25,1009.27Z"/><path class="cls-33" d="M3075.84,1014.39a15.3,15.3,0,0,1-2.64,8.62A15.55,15.55,0,0,1,3053,1028a15.67,15.67,0,0,1-5.87-5.56,15.45,15.45,0,0,1-2.24-8c0-16.66,15.9-25.88,16.4-26.17,0,.18-1.28,5.49,1,7.74s5.29-.75,5.29-.75S3075.84,1003.48,3075.84,1014.39Zm-6.84,3.82a11.43,11.43,0,0,0-3.75-8.94s-2.57,3.47-3.84,2.19-2.32-7.86-2.32-7.86-7.38,5.16-7.38,14.61a8.65,8.65,0,0,0,17.29,0Z"/><path class="cls-26" d="M3086.5,1029.25c1.47.09,2.52,2.33,2.35,5s-1.48,4.78-2.95,4.69-2.51-2.33-2.35-5S3085,1029.16,3086.5,1029.25Z"/><path class="cls-31" d="M3086.69,1031.54a1.94,1.94,0,0,0-.29-.46,4.43,4.43,0,0,0-1.08,3,4.65,4.65,0,0,0,.69,3.1,4.48,4.48,0,0,0,1.07-3A5.6,5.6,0,0,0,3086.69,1031.54Z"/></g><g id="front-sapin"><path class="cls-34" d="M2443.59,604.06s-.3,2.14-.83,6c-7,50-68.93,400.38-68.93,400.38h0s140.05,5.62,141.46-4.27S2443.59,604.06,2443.59,604.06Z"/><path class="cls-35" d="M2444.55,740.28,2427.69,774s16.8,106,12.42,75.61c-.35-2.4-2.14,74.3-2.14,73.06s14-2.35,14-2.35-1.5-57.7.49-65.76c6.95-28.55,13.57-74,13.57-74Z"/><polygon class="cls-8" points="2421.43 774.24 2432.84 844.94 2375.69 893.75 2404.27 803.71 2421.43 774.24"/><polygon class="cls-35" points="2472.65 786.96 2472.65 786.96 2459.72 854.57 2510.31 930.23 2488.57 818.24 2472.65 786.96"/><polygon class="cls-8" points="2430.87 856.69 2431.43 854.57 2386.87 899.39 2350.39 1012.5 2427.67 923.62 2430.87 856.69"/><polygon class="cls-35" points="2456.71 858.59 2456.71 858.59 2506.36 933.54 2533.3 1025.63 2459.87 922.71 2456.71 858.59"/><polygon class="cls-8" points="2441.26 611.31 2441.26 733.55 2392.55 808.5 2441.26 611.31"/><polygon class="cls-35" points="2446.88 611.31 2494.64 814.25 2446.88 732.63 2446.88 611.31"/><path class="cls-35" d="M2456,926.49h-6.88c3.12,31.28,1.73,62.57,1,93.86l65.21-6.11Z"/><path class="cls-8" d="M2449.1,926.49h-6.77L2361,1028.7l89.12-8.35C2450.77,989.06,2452.22,957.8,2449.1,926.49Z"/><polygon class="cls-26" points="2457.89 680.68 2480.69 774.24 2463.06 727.46 2457.89 680.68"/><polygon class="cls-26" points="2480.69 810.78 2485.03 821.73 2500.63 899.82 2480.69 831.49 2480.69 810.78"/><path class="cls-26" d="M2489.24,918l14.55,23.51s21.37,63.71,21.37,67.32C2525.29,1010.56,2489.24,918,2489.24,918Z"/><path class="cls-34" d="M3329.11,788s.17,1.35.54,3.89c4.51,32.31,44.54,258.59,44.54,258.59h0s-90.47,3.63-91.39-2.71S3329.11,788,3329.11,788Z"/><path class="cls-35" d="M3328.54,876l10.87,21.77s-10.85,68.39-8,48.86c.21-1.54,1.33,48,1.37,47.21s-9.08-1.52-9.08-1.52,1-37.27-.3-42.49c-4.51-18.44-8.79-47.82-8.79-47.82Z"/><polygon class="cls-8" points="3343.45 897.91 3336.1 943.58 3373.01 975.13 3354.55 916.96 3343.45 897.91"/><polygon class="cls-35" points="3310.37 906.14 3310.37 906.14 3318.73 949.82 3286.05 998.7 3300.09 926.34 3310.37 906.14"/><polygon class="cls-8" points="3337.36 951.19 3337 949.82 3365.79 978.76 3389.36 1051.85 3339.41 994.43 3337.36 951.19"/><polygon class="cls-36" points="3320.67 952.43 3320.67 952.43 3288.59 1000.84 3271.18 1060.33 3318.62 993.85 3320.67 952.43"/><polygon class="cls-8" points="3330.65 792.66 3330.65 871.65 3362.11 920.05 3330.65 792.66"/><polygon class="cls-36" points="3327.02 792.66 3296.16 923.77 3327.02 871.03 3327.02 792.66"/><path class="cls-36" d="M3321.14,996.26h4.45c-2,20.22-1.11,40.44-.62,60.65l-42.12-4Z"/><path class="cls-8" d="M3325.59,996.26h4.27l52.68,66.06-57.57-5.38C3324.48,1036.72,3323.58,1016.5,3325.59,996.26Z"/><polygon class="cls-26" points="3319.9 837.48 3305.18 897.91 3316.57 867.7 3319.9 837.48"/><polygon class="cls-26" points="3305.18 921.53 3302.38 928.6 3292.29 979.06 3305.18 934.91 3305.18 921.53"/><path class="cls-26" d="M3299.64,990.81l-9.42,15.16s-13.85,41.16-13.85,43.49C3276.37,1050.61,3299.64,990.81,3299.64,990.81Z"/><path class="cls-34" d="M2233,648.47l-.66,4.79c-5.56,39.79-54.84,318.43-54.84,318.43h0s111.38,4.48,112.49-3.34S2233,648.47,2233,648.47Z"/><path class="cls-8" d="M2233.73,756.91l-13.42,26.71s13.37,84.31,9.89,60.14c-.28-1.9-1.67,59.09-1.69,58.11s11.16-1.86,11.16-1.86-1.18-45.88.38-52.32c5.54-22.69,10.8-58.85,10.8-58.85Z"/><polygon class="cls-34" points="2215.35 783.82 2224.41 840.02 2178.95 878.85 2201.69 807.26 2215.35 783.82"/><polygon class="cls-35" points="2256.06 793.92 2256.06 793.92 2245.8 847.69 2286.02 907.87 2268.73 818.8 2256.06 793.92"/><polygon class="cls-34" points="2222.85 849.38 2223.3 847.69 2187.86 883.34 2158.84 973.31 2220.31 902.62 2222.85 849.38"/><polygon class="cls-35" points="2243.41 850.9 2243.41 850.9 2282.88 910.5 2304.32 983.74 2245.91 901.89 2243.41 850.9"/><polygon class="cls-34" points="2231.12 654.24 2231.12 751.46 2192.37 811.06 2231.12 654.24"/><polygon class="cls-35" points="2235.59 654.24 2273.58 815.64 2235.59 750.71 2235.59 654.24"/><path class="cls-35" d="M2242.83,904.88h-5.49c2.48,24.9,1.39,49.77.77,74.67l51.87-4.87Z"/><path class="cls-34" d="M2237.34,904.88H2232l-64.71,81.21,70.87-6.62C2238.73,954.65,2239.82,929.78,2237.34,904.88Z"/><polygon class="cls-26" points="2244.35 709.4 2262.47 783.82 2248.45 746.61 2244.35 709.4"/><polygon class="cls-26" points="2262.47 812.88 2265.91 821.58 2278.33 883.68 2262.47 829.34 2262.47 812.88"/><path class="cls-26" d="M2269.29,898.17l11.58,18.64s17.1,50.67,17.1,53.53C2297.93,971.75,2269.29,898.17,2269.29,898.17Z"/><path class="cls-34" d="M3504.36,719.1l.66,4.79c5.58,39.79,54.84,318.43,54.84,318.43h0s-111.37,4.49-112.5-3.34S3504.36,719.1,3504.36,719.1Z"/><path class="cls-35" d="M3503.67,827.43l13.51,26.82s-13.38,84.31-9.88,60.14c.26-1.9,1.65,59.11,1.69,58.11s-11.17-1.86-11.17-1.86,1.17-45.88-.39-52.32c-5.53-22.69-10.79-58.85-10.79-58.85Z"/><polygon class="cls-34" points="3522.03 854.45 3512.97 910.67 3558.42 949.48 3535.71 877.89 3522.03 854.45"/><polygon class="cls-36" points="3481.32 864.55 3481.32 864.55 3491.6 918.32 3451.36 978.5 3468.64 889.43 3481.32 864.55"/><polygon class="cls-34" points="3514.55 920.01 3514.08 918.32 3549.51 953.97 3578.53 1043.94 3517.07 973.25 3514.55 920.01"/><polygon class="cls-36" points="3493.97 921.53 3493.97 921.53 3454.5 981.13 3433.08 1054.37 3491.47 972.52 3493.97 921.53"/><polygon class="cls-34" points="3506.28 724.87 3506.28 822.09 3545 881.69 3506.28 724.87"/><polygon class="cls-36" points="3501.79 724.87 3463.82 886.27 3501.79 821.34 3501.79 724.87"/><path class="cls-36" d="M3494.57,975.51h5.51c-2.48,24.9-1.37,49.78-.77,74.67l-51.89-4.76Z"/><path class="cls-34" d="M3500.08,975.51h5.39l64.71,81.21-70.87-6.62C3498.67,1025.29,3497.56,1000.41,3500.08,975.51Z"/><polygon class="cls-26" points="3493.05 780.03 3474.91 854.45 3488.93 817.24 3493.05 780.03"/><polygon class="cls-26" points="3474.91 883.51 3471.47 892.21 3459.05 954.31 3474.91 899.97 3474.91 883.51"/><path class="cls-26" d="M3468,968.8l-11.58,18.64s-17.09,50.67-17.09,53.53C3439.45,1042.38,3468,968.8,3468,968.8Z"/><polygon class="cls-30" points="2535.95 997.76 2538.63 1035.88 2430.4 1045.39 1932.56 1136.59 2371.36 988.29 2501.76 983.87 2535.95 997.76"/></g><g id="tente"><polygon class="cls-23" points="2914.52 1029.3 2867.23 1038.31 2758.73 1016.51 2760.65 1016.16 2769.94 989.64 2928.41 1017.1 2914.52 1029.3"/><polyline class="cls-37" points="2914.52 922.71 2914.52 1029.3 2928.41 1017.1 2914.52 922.71"/><g class="cls-21"><path class="cls-28" d="M2922.19,1022.52,2918,972.64l-1.06-12.47-1-12.47c-.55-8.33-1.12-16.65-1.48-25h.1c.93,8.3,1.64,16.61,2.38,24.92l1,12.48.87,12.48,3.51,49.94Z"/></g><path class="cls-38" d="M2792.7,924.67c4.28-1.07,121.82-2,121.82-2v106.6s-150.2-13.74-153.87-13.14Z"/><g class="cls-21"><polygon class="cls-28" points="2857.4 1024.14 2899.5 922.83 2901.7 922.81 2859.63 1024.34 2857.4 1024.14"/></g><g class="cls-21"><polygon class="cls-28" points="2769.39 1016.63 2807.76 924.04 2810 924 2771.63 1016.8 2769.39 1016.63"/></g></g><g id="stars"><g class="cls-21"><path class="cls-39" d="M3305.61,189.26a2,2,0,1,0-1.78-1.78A2,2,0,0,0,3305.61,189.26Z"/></g><g class="cls-21"><path class="cls-39" d="M3218,58.08a2,2,0,1,0-1.78-1.77A2,2,0,0,0,3218,58.08Z"/></g><g class="cls-21"><path class="cls-39" d="M2985,176a2,2,0,1,0-1.77-1.77A2,2,0,0,0,2985,176Z"/></g><g class="cls-21"><path class="cls-39" d="M2985,66.63a2,2,0,1,0-1.77-1.77A2,2,0,0,0,2985,66.63Z"/></g><g class="cls-21"><path class="cls-39" d="M3203,250.25a2,2,0,1,0-2-2A2,2,0,0,0,3203,250.25Z"/></g><g class="cls-21"><path class="cls-39" d="M3151.74,141.6a1.33,1.33,0,1,0-1.15-1.15A1.33,1.33,0,0,0,3151.74,141.6Z"/></g><g class="cls-21"><path class="cls-39" d="M3218,80.65a1.33,1.33,0,1,0-1.15-1.15A1.33,1.33,0,0,0,3218,80.65Z"/></g><g class="cls-21"><path class="cls-39" d="M3258.59,198.94a1.33,1.33,0,1,0-1.32-1.33A1.33,1.33,0,0,0,3258.59,198.94Z"/></g><g class="cls-21"><path class="cls-39" d="M2914.52,43.72a1.33,1.33,0,1,0-1.15-1.15A1.34,1.34,0,0,0,2914.52,43.72Z"/></g><g class="cls-21"><path class="cls-39" d="M2961.53,146.11a1.33,1.33,0,0,0,0-2.55,1.34,1.34,0,0,0-1.14,1.49,1.31,1.31,0,0,0,1.14,1.14Z"/></g><g class="cls-21"><path class="cls-39" d="M3034.2,83.43a1.34,1.34,0,0,0,1.14-1.49,1.17,1.17,0,1,0-2.29.34A1.34,1.34,0,0,0,3034.2,83.43Z"/></g><g class="cls-21"><path class="cls-39" d="M3102.58,204.69a1.34,1.34,0,0,0,1.15-1.49,1.17,1.17,0,1,0-1.15,1.49Z"/></g><g class="cls-21"><path class="cls-39" d="M2938.2,110.18a1.33,1.33,0,0,0,0-2.63,1.34,1.34,0,0,0-1.15,1.49A1.32,1.32,0,0,0,2938.2,110.18Z"/></g><g class="cls-21"><path class="cls-39" d="M3111.13,116.42a1.32,1.32,0,0,0,1.15-1.48,1.17,1.17,0,1,0-2.3.34A1.32,1.32,0,0,0,3111.13,116.42Z"/></g><g class="cls-21"><path class="cls-39" d="M3151.74,46.11a1.33,1.33,0,0,0,0-2.63,1.34,1.34,0,0,0-1.15,1.49A1.32,1.32,0,0,0,3151.74,46.11Z"/></g><g class="cls-21"><path class="cls-39" d="M3054.52,237.6a1.33,1.33,0,0,0,0-2.63,1.32,1.32,0,0,0-1.15,1.48A1.34,1.34,0,0,0,3054.52,237.6Z"/></g><g class="cls-21"><path class="cls-39" d="M3016.05,330.69a1.33,1.33,0,1,0-1.14-1.15A1.33,1.33,0,0,0,3016.05,330.69Z"/></g><g class="cls-21"><path class="cls-39" d="M3122.91,286.22a1.33,1.33,0,0,0,1.14-1.49,1.31,1.31,0,0,0-1.14-1.14,1.32,1.32,0,0,0-1.15,1.48A1.34,1.34,0,0,0,3122.91,286.22Z"/></g><g class="cls-21"><path class="cls-39" d="M3099.4,295.06a1.33,1.33,0,0,0,0-2.63,1.33,1.33,0,0,0,0,2.63Z"/></g><g class="cls-21"><path class="cls-39" d="M3218,174.79a1.33,1.33,0,1,0-1.15-1.15A1.33,1.33,0,0,0,3218,174.79Z"/></g><g class="cls-21"><path class="cls-39" d="M3179.52,267.79a1.33,1.33,0,0,0,0-2.63,1.34,1.34,0,0,0-1.15,1.49A1.32,1.32,0,0,0,3179.52,267.79Z"/></g><g class="cls-21"><path class="cls-39" d="M3286.37,223.32a1.33,1.33,0,1,0-1.32-1.32A1.32,1.32,0,0,0,3286.37,223.32Z"/></g><g class="cls-21"><path class="cls-39" d="M3262.86,232.15a1.33,1.33,0,0,0,0-2.63,1.33,1.33,0,0,0,0,2.63Z"/></g><g class="cls-21"><path class="cls-39" d="M3054.52,118.43a1.32,1.32,0,0,0,1.15-1.48,1.17,1.17,0,1,0-1.15,1.48Z"/></g><g class="cls-21"><path class="cls-39" d="M3183.79,369.82a1.33,1.33,0,1,0,0-2.65h0a1.33,1.33,0,0,0,0,2.65Z"/></g><g class="cls-21"><path class="cls-39" d="M3346.62,268.84a1.33,1.33,0,1,0-1.33-1.32A1.33,1.33,0,0,0,3346.62,268.84Z"/></g><g class="cls-21"><path class="cls-39" d="M3102.58,43.72a1.33,1.33,0,1,0-1.14-1.15A1.33,1.33,0,0,0,3102.58,43.72Z"/></g><g class="cls-21"><path class="cls-39" d="M2985,35.26a1.33,1.33,0,0,0,0-2.63,1.33,1.33,0,0,0,0,2.63Z"/></g><g class="cls-21"><path class="cls-39" d="M1914,80.63a2,2,0,1,0-1.77-1.77A2,2,0,0,0,1914,80.63Z"/></g><g class="cls-21"><path class="cls-39" d="M1843.52,57.72a1.33,1.33,0,1,0-1.15-1.15A1.34,1.34,0,0,0,1843.52,57.72Z"/></g><g class="cls-21"><path class="cls-39" d="M1963.2,97.43a1.34,1.34,0,0,0,1.14-1.49,1.17,1.17,0,1,0-2.29.34A1.34,1.34,0,0,0,1963.2,97.43Z"/></g><g class="cls-21"><path class="cls-39" d="M1867.2,124.18a1.33,1.33,0,0,0,0-2.63,1.34,1.34,0,0,0-1.15,1.49A1.32,1.32,0,0,0,1867.2,124.18Z"/></g><g class="cls-21"><path class="cls-39" d="M2040.13,130.42a1.32,1.32,0,0,0,1.15-1.48,1.17,1.17,0,1,0-2.3.34A1.32,1.32,0,0,0,2040.13,130.42Z"/></g><g class="cls-21"><path class="cls-39" d="M1983.52,132.43a1.32,1.32,0,0,0,1.15-1.48,1.17,1.17,0,1,0-1.15,1.48Z"/></g><g class="cls-21"><path class="cls-39" d="M2031.58,57.72a1.33,1.33,0,1,0-1.14-1.15A1.33,1.33,0,0,0,2031.58,57.72Z"/></g><g class="cls-21"><path class="cls-39" d="M1914,49.26a1.33,1.33,0,0,0,0-2.63,1.33,1.33,0,0,0,0,2.63Z"/></g><g class="cls-21"><path class="cls-39" d="M2692.26,45.71a2.63,2.63,0,1,0-2.63-2.63A2.63,2.63,0,0,0,2692.26,45.71Z"/></g><g class="cls-21"><path class="cls-39" d="M2801.25,104.46a2,2,0,1,0-1.77-1.78A2,2,0,0,0,2801.25,104.46Z"/></g><g class="cls-21"><path class="cls-39" d="M2846.13,267.17a2,2,0,1,0-1.77-1.77A2,2,0,0,0,2846.13,267.17Z"/></g><g class="cls-21"><path class="cls-39" d="M2715.77,269.48a2,2,0,1,0-2-2A2,2,0,0,0,2715.77,269.48Z"/></g><g class="cls-21"><path class="cls-39" d="M2692.26,235.65a1.32,1.32,0,0,0,1.15-1.48,1.17,1.17,0,1,0-1.15,1.48Z"/></g><g class="cls-21"><path class="cls-39" d="M2846.13,134.87a1.33,1.33,0,0,0,0-2.63,1.33,1.33,0,0,0,0,2.63Z"/></g><g class="cls-21"><path class="cls-39" d="M2801.25,235.65a1.32,1.32,0,0,0,1.15-1.48,1.17,1.17,0,1,0-2.29.34A1.31,1.31,0,0,0,2801.25,235.65Z"/></g><g class="cls-21"><path class="cls-39" d="M2677.3,364.65a1.33,1.33,0,0,0,0-2.63,1.33,1.33,0,0,0,0,2.63Z"/></g><g class="cls-21"><path class="cls-39" d="M2762.78,328.68a1.33,1.33,0,1,0-1.32-1.33A1.32,1.32,0,0,0,2762.78,328.68Z"/></g><g class="cls-21"><path class="cls-39" d="M2869.64,284.18a1.32,1.32,0,1,0-1.15-1.14A1.32,1.32,0,0,0,2869.64,284.18Z"/></g><g class="cls-21"><path class="cls-39" d="M2856.82,57.31a1.33,1.33,0,0,0,0-2.63,1.33,1.33,0,0,0,0,2.63Z"/></g><g class="cls-21"><path class="cls-39" d="M2846.13,293a1.32,1.32,0,0,0,1.15-1.48,1.17,1.17,0,1,0-2.29.34A1.31,1.31,0,0,0,2846.13,293Z"/></g><g class="cls-21"><path class="cls-39" d="M1917.13,215.17a2,2,0,1,0-1.77-1.77A2,2,0,0,0,1917.13,215.17Z"/></g><g class="cls-21"><path class="cls-39" d="M1872.25,183.65a1.32,1.32,0,0,0,1.15-1.48,1.17,1.17,0,1,0-2.29.34A1.31,1.31,0,0,0,1872.25,183.65Z"/></g><g class="cls-21"><path class="cls-39" d="M1833.78,276.68a1.33,1.33,0,1,0-1.32-1.33A1.32,1.32,0,0,0,1833.78,276.68Z"/></g><g class="cls-21"><path class="cls-39" d="M1940.64,232.18a1.32,1.32,0,1,0-1.15-1.14A1.32,1.32,0,0,0,1940.64,232.18Z"/></g><g class="cls-21"><path class="cls-39" d="M1917.13,241a1.32,1.32,0,0,0,1.15-1.48,1.17,1.17,0,1,0-2.29.34A1.31,1.31,0,0,0,1917.13,241Z"/></g><g class="cls-21"><path class="cls-39" d="M2703,408.56a1.33,1.33,0,0,0,0-2.63,1.34,1.34,0,0,0-1.15,1.49A1.32,1.32,0,0,0,2703,408.56Z"/></g><g class="cls-21"><path class="cls-39" d="M2792.7,35.26a1.33,1.33,0,0,0,0-2.63,1.33,1.33,0,0,0,0,2.63Z"/></g><g class="cls-21"><path class="cls-39" d="M2762.78,162.8a1.33,1.33,0,1,0-1.14-1.15A1.33,1.33,0,0,0,2762.78,162.8Z"/></g><g class="cls-21"><path class="cls-39" d="M2880.32,116.42a1.32,1.32,0,0,0,1.15-1.48,1.17,1.17,0,1,0-2.29.34A1.32,1.32,0,0,0,2880.32,116.42Z"/></g><g class="cls-21"><path class="cls-39" d="M2677.3,293a1.32,1.32,0,0,0,1.15-1.48,1.17,1.17,0,1,0-2.29.34A1.31,1.31,0,0,0,2677.3,293Z"/></g><g class="cls-21"><path class="cls-39" d="M2644.18,177.33a1.33,1.33,0,1,0-1.15-1.15A1.34,1.34,0,0,0,2644.18,177.33Z"/></g><g class="cls-21"><path class="cls-39" d="M2474.28,285.51a2.63,2.63,0,1,0-2.63-2.63A2.63,2.63,0,0,0,2474.28,285.51Z"/></g><g class="cls-21"><path class="cls-39" d="M2391.74,365.31a2,2,0,1,0-1.77-1.77A2,2,0,0,0,2391.74,365.31Z"/></g><g class="cls-21"><path class="cls-39" d="M2569.25,457.55a2,2,0,1,0-2-2A2,2,0,0,0,2569.25,457.55Z"/></g><g class="cls-21"><path class="cls-39" d="M2391.74,266.51a1.33,1.33,0,1,0-1.14-1.15A1.33,1.33,0,0,0,2391.74,266.51Z"/></g><g class="cls-21"><path class="cls-39" d="M2569.25,382.32a1.33,1.33,0,1,0-1.15-1.15A1.33,1.33,0,0,0,2569.25,382.32Z"/></g><g class="cls-21"><path class="cls-39" d="M2474.28,448.36A1.33,1.33,0,1,0,2473,447a1.33,1.33,0,0,0,1.33,1.33Z"/></g><g class="cls-21"><path class="cls-39" d="M2579,293a1.33,1.33,0,0,0,0-2.63,1.33,1.33,0,0,0,0,2.63Z"/></g><g class="cls-21"><path class="cls-39" d="M3855.77,330.48a2,2,0,1,0-2-2A2,2,0,0,0,3855.77,330.48Z"/></g><g class="cls-21"><path class="cls-39" d="M3817.3,425.65a1.33,1.33,0,0,0,0-2.63,1.33,1.33,0,0,0,0,2.63Z"/></g><g class="cls-21"><path class="cls-39" d="M3902.78,389.68a1.33,1.33,0,1,0-1.32-1.33A1.32,1.32,0,0,0,3902.78,389.68Z"/></g><g class="cls-21"><path class="cls-39" d="M3817.3,354a1.32,1.32,0,0,0,1.15-1.48,1.17,1.17,0,1,0-2.29.34A1.31,1.31,0,0,0,3817.3,354Z"/></g><g class="cls-21"><path class="cls-39" d="M3709.25,443.32a1.33,1.33,0,1,0-1.15-1.15A1.33,1.33,0,0,0,3709.25,443.32Z"/></g><g class="cls-21"><path class="cls-39" d="M3719,354a1.33,1.33,0,0,0,0-2.63,1.33,1.33,0,0,0,0,2.63Z"/></g><g class="cls-21"><path class="cls-39" d="M2391.74,189.26a2,2,0,1,0-1.77-1.78A2,2,0,0,0,2391.74,189.26Z"/></g><g class="cls-21"><path class="cls-39" d="M2202.12,328.68a1.33,1.33,0,1,0-1.33-1.33,1.32,1.32,0,0,0,1.33,1.33Z"/></g><g class="cls-21"><path class="cls-39" d="M2375.14,486.82a1.31,1.31,0,0,0,1.14-1.48,1.3,1.3,0,0,0-1.14-1.14,1.32,1.32,0,0,0,0,2.62Z"/></g><g class="cls-21"><path class="cls-39" d="M2267.81,484.69a1.33,1.33,0,0,0,0-2.63,1.33,1.33,0,0,0,0,2.63Z"/></g><g class="cls-21"><path class="cls-39" d="M2202.12,397.07a1.33,1.33,0,1,0-1.33-1.33,1.33,1.33,0,0,0,1.33,1.33Z"/></g><g class="cls-21"><path class="cls-39" d="M2134.48,470a1.32,1.32,0,1,0-1.15-1.14A1.32,1.32,0,0,0,2134.48,470Z"/></g><g class="cls-21"><path class="cls-39" d="M2267.81,269.48a2,2,0,1,0-2-2A2,2,0,0,0,2267.81,269.48Z"/></g><g class="cls-21"><path class="cls-39" d="M2282.45,387.19a1.32,1.32,0,0,0,1.15-1.48,1.17,1.17,0,1,0-2.29.34A1.31,1.31,0,0,0,2282.45,387.19Z"/></g><g class="cls-21"><path class="cls-39" d="M2282.45,328.68a1.33,1.33,0,1,0-1.32-1.33,1.33,1.33,0,0,0,1.32,1.33Z"/></g><g class="cls-21"><path class="cls-39" d="M2202.12,164.17a2.63,2.63,0,1,0-2.63-2.63A2.64,2.64,0,0,0,2202.12,164.17Z"/></g><g class="cls-21"><path class="cls-39" d="M2134.48,39.77a2.6,2.6,0,1,0,0,.06Z"/></g><g class="cls-21"><path class="cls-39" d="M2134.48,236.31a2,2,0,1,0-2-2A2,2,0,0,0,2134.48,236.31Z"/></g><g class="cls-21"><path class="cls-39" d="M2489.24,142.9a2.63,2.63,0,1,0-2.63-2.62A2.62,2.62,0,0,0,2489.24,142.9Z"/></g><g class="cls-21"><path class="cls-39" d="M2378.54,99.31a2.63,2.63,0,1,0-2.63-2.63A2.63,2.63,0,0,0,2378.54,99.31Z"/></g><g class="cls-21"><path class="cls-39" d="M2068.8,367.51a2.63,2.63,0,1,0-2.63-2.63A2.63,2.63,0,0,0,2068.8,367.51Z"/></g><g class="cls-21"><path class="cls-39" d="M1986.26,348.51a1.33,1.33,0,1,0-1.14-1.15A1.33,1.33,0,0,0,1986.26,348.51Z"/></g><g class="cls-21"><path class="cls-39" d="M1986.26,271.26a2,2,0,1,0-1.77-1.78A2,2,0,0,0,1986.26,271.26Z"/></g><g class="cls-21"><path class="cls-39" d="M1796.64,410.68a1.33,1.33,0,1,0-1.33-1.33,1.32,1.32,0,0,0,1.33,1.33Z"/></g><g class="cls-21"><path class="cls-39" d="M1862.33,351.48a2,2,0,1,0-2-2A2,2,0,0,0,1862.33,351.48Z"/></g><g class="cls-21"><path class="cls-39" d="M1877,410.68a1.33,1.33,0,1,0-1.32-1.33,1.33,1.33,0,0,0,1.32,1.33Z"/></g><g class="cls-21"><path class="cls-39" d="M1796.64,246.17a2.63,2.63,0,1,0-2.63-2.63A2.64,2.64,0,0,0,1796.64,246.17Z"/></g><g class="cls-21"><path class="cls-39" d="M1729,121.77a2.6,2.6,0,1,0,0,.06Z"/></g><g class="cls-21"><path class="cls-39" d="M1729,318.31a2,2,0,1,0-2-2A2,2,0,0,0,1729,318.31Z"/></g><g class="cls-21"><path class="cls-39" d="M2083.76,224.9a2.63,2.63,0,1,0-2.63-2.62A2.62,2.62,0,0,0,2083.76,224.9Z"/></g><g class="cls-21"><path class="cls-39" d="M1973.06,181.31a2.63,2.63,0,1,0-2.63-2.63A2.63,2.63,0,0,0,1973.06,181.31Z"/></g><g class="cls-21"><path class="cls-39" d="M3286.37,93.66a2,2,0,1,0-1.77-1.77A2,2,0,0,0,3286.37,93.66Z"/></g><g class="cls-21"><path class="cls-39" d="M3286.37,46.11a1.32,1.32,0,0,0,1.15-1.48,1.17,1.17,0,1,0-2.29.34A1.3,1.3,0,0,0,3286.37,46.11Z"/></g><g class="cls-21"><path class="cls-39" d="M3258.59,141.6a1.33,1.33,0,1,0-1.15-1.15A1.33,1.33,0,0,0,3258.59,141.6Z"/></g><g class="cls-21"><path class="cls-39" d="M3269.28,98a1.33,1.33,0,0,0,0-2.63,1.33,1.33,0,0,0,0,2.63Z"/></g><g class="cls-21"><path class="cls-39" d="M3432.66,70.39a2.63,2.63,0,0,0,0-5.26h0a2.63,2.63,0,1,0,0,5.26Z"/></g><g class="cls-21"><path class="cls-39" d="M3432.66,409.12a2,2,0,1,0-1.78-1.77A2,2,0,0,0,3432.66,409.12Z"/></g><g class="cls-21"><path class="cls-39" d="M3432.66,320.13a1.33,1.33,0,1,0-1.33-1.32A1.32,1.32,0,0,0,3432.66,320.13Z"/></g><g class="cls-21"><path class="cls-39" d="M3448.58,268.84a1.33,1.33,0,1,0-1.33-1.32A1.33,1.33,0,0,0,3448.58,268.84Z"/></g><g class="cls-21"><path class="cls-39" d="M3432.66,149.66a1.33,1.33,0,0,0,1.14-1.49,1.31,1.31,0,0,0-1.14-1.14,1.32,1.32,0,0,0-1.15,1.48A1.34,1.34,0,0,0,3432.66,149.66Z"/></g><g class="cls-21"><path class="cls-39" d="M3512.43,222a2,2,0,1,0-1.77-1.77A2,2,0,0,0,3512.43,222Z"/></g><g class="cls-21"><path class="cls-39" d="M3521.3,424.85a1.33,1.33,0,1,0,0-2.65,1.33,1.33,0,0,0,0,2.65Z"/></g><g class="cls-21"><path class="cls-39" d="M3521.3,312.65a1.33,1.33,0,1,0-1.32-1.32A1.33,1.33,0,0,0,3521.3,312.65Z"/></g><g class="cls-21"><path class="cls-39" d="M3521.3,500.16a1.33,1.33,0,1,0-1.14-1.15A1.33,1.33,0,0,0,3521.3,500.16Z"/></g><g class="cls-21"><path class="cls-39" d="M3532.14,397.07a1.33,1.33,0,1,0-1.33-1.33,1.33,1.33,0,0,0,1.33,1.33Z"/></g><g class="cls-21"><path class="cls-39" d="M3601.27,189.92a2.63,2.63,0,1,0-2.62-2.63A2.63,2.63,0,0,0,3601.27,189.92Z"/></g><g class="cls-21"><path class="cls-39" d="M3863.61,189.26a2,2,0,1,0-1.78-1.78A2,2,0,0,0,3863.61,189.26Z"/></g><g class="cls-21"><path class="cls-39" d="M3776,58.08a2,2,0,1,0-1.78-1.77A2,2,0,0,0,3776,58.08Z"/></g><g class="cls-21"><path class="cls-39" d="M3761,250.25a2,2,0,1,0-2-2A2,2,0,0,0,3761,250.25Z"/></g><g class="cls-21"><path class="cls-39" d="M3709.74,141.6a1.33,1.33,0,1,0-1.15-1.15A1.33,1.33,0,0,0,3709.74,141.6Z"/></g><g class="cls-21"><path class="cls-39" d="M3776,80.65a1.33,1.33,0,1,0-1.15-1.15A1.33,1.33,0,0,0,3776,80.65Z"/></g><g class="cls-21"><path class="cls-39" d="M3816.59,198.94a1.33,1.33,0,1,0-1.32-1.33A1.33,1.33,0,0,0,3816.59,198.94Z"/></g><g class="cls-21"><path class="cls-39" d="M3660.58,204.69a1.34,1.34,0,0,0,1.15-1.49,1.17,1.17,0,1,0-1.15,1.49Z"/></g><g class="cls-21"><path class="cls-39" d="M3669.13,116.42a1.32,1.32,0,0,0,1.15-1.48,1.17,1.17,0,1,0-2.3.34A1.32,1.32,0,0,0,3669.13,116.42Z"/></g><g class="cls-21"><path class="cls-39" d="M3709.74,46.11a1.33,1.33,0,0,0,0-2.63,1.34,1.34,0,0,0-1.15,1.49A1.32,1.32,0,0,0,3709.74,46.11Z"/></g><g class="cls-21"><path class="cls-39" d="M3776,174.79a1.33,1.33,0,1,0-1.15-1.15A1.33,1.33,0,0,0,3776,174.79Z"/></g><g class="cls-21"><path class="cls-39" d="M3737.52,267.79a1.33,1.33,0,0,0,0-2.63,1.34,1.34,0,0,0-1.15,1.49A1.32,1.32,0,0,0,3737.52,267.79Z"/></g><g class="cls-21"><path class="cls-39" d="M3844.37,223.32a1.33,1.33,0,1,0-1.32-1.32A1.32,1.32,0,0,0,3844.37,223.32Z"/></g><g class="cls-21"><path class="cls-39" d="M3820.86,232.15a1.33,1.33,0,0,0,0-2.63,1.33,1.33,0,0,0,0,2.63Z"/></g><g class="cls-21"><path class="cls-39" d="M3904.62,268.84a1.33,1.33,0,1,0-1.33-1.32A1.33,1.33,0,0,0,3904.62,268.84Z"/></g><g class="cls-21"><path class="cls-39" d="M3660.58,43.72a1.33,1.33,0,1,0-1.14-1.15A1.33,1.33,0,0,0,3660.58,43.72Z"/></g><g class="cls-21"><path class="cls-39" d="M3844.37,93.66a2,2,0,1,0-1.77-1.77A2,2,0,0,0,3844.37,93.66Z"/></g><g class="cls-21"><path class="cls-39" d="M3844.37,46.11a1.32,1.32,0,0,0,1.15-1.48,1.17,1.17,0,1,0-2.29.34A1.3,1.3,0,0,0,3844.37,46.11Z"/></g><g class="cls-21"><path class="cls-39" d="M3816.59,141.6a1.33,1.33,0,1,0-1.15-1.15A1.33,1.33,0,0,0,3816.59,141.6Z"/></g><g class="cls-21"><path class="cls-39" d="M3827.28,98a1.33,1.33,0,0,0,0-2.63,1.33,1.33,0,0,0,0,2.63Z"/></g><g class="cls-21"><path class="cls-39" d="M3990.66,70.39a2.63,2.63,0,0,0,0-5.26h0a2.63,2.63,0,1,0,0,5.26Z"/></g><g class="cls-21"><path class="cls-39" d="M4006.58,268.84a1.33,1.33,0,1,0-1.33-1.32A1.33,1.33,0,0,0,4006.58,268.84Z"/></g><g class="cls-21"><path class="cls-39" d="M3990.66,149.66a1.33,1.33,0,0,0,1.14-1.49,1.31,1.31,0,0,0-1.14-1.14,1.32,1.32,0,0,0-1.15,1.48A1.34,1.34,0,0,0,3990.66,149.66Z"/></g><g class="cls-21"><path class="cls-39" d="M4070.43,222a2,2,0,1,0-1.77-1.77A2,2,0,0,0,4070.43,222Z"/></g><g class="cls-21"><path class="cls-39" d="M4159.27,189.92a2.63,2.63,0,1,0-2.62-2.63A2.63,2.63,0,0,0,4159.27,189.92Z"/></g><g class="cls-21"><path class="cls-39" d="M3601.27,312.65a1.33,1.33,0,1,0-1.32-1.32A1.33,1.33,0,0,0,3601.27,312.65Z"/></g><g class="cls-21"><path class="cls-39" d="M3601.27,433.4a1.33,1.33,0,1,0,0-2.65,1.33,1.33,0,0,0,0,2.65Z"/></g><g class="cls-21"><path class="cls-39" d="M3606.21,556.94a1.33,1.33,0,1,0-1.32-1.33,1.33,1.33,0,0,0,1.32,1.33Z"/></g><g class="cls-21"><path class="cls-39" d="M3648.14,347.91a1.33,1.33,0,0,0,0-2.65,1.33,1.33,0,1,0,0,2.65Z"/></g></g></svg>