<svg xmlns="http://www.w3.org/2000/svg" viewBox="0 0 512 512"><defs><style>.cls-1{fill:none;}.cls-1,.cls-2,.cls-3,.cls-4{stroke:#333;stroke-linecap:round;stroke-linejoin:round;}.cls-2{fill:#777;}.cls-3{fill:#555;}.cls-4{fill:#444;}</style></defs><title>Logo-MB</title><g id="Calque_10" data-name="Calque 10"><polygon class="cls-1" points="192.13 332.65 170.83 319.88 170.83 192.13 192.13 179.35 213.42 192.13 213.42 319.88 192.13 332.65"/><polygon class="cls-1" points="319.88 332.65 298.58 319.88 298.58 192.13 319.88 179.35 341.17 192.13 341.17 319.88 319.88 332.65"/><polygon class="cls-2" points="170.83 192.13 192.13 204.9 213.42 192.13 192.13 179.35 170.83 192.13"/><polygon class="cls-3" points="192.13 332.65 170.83 319.88 170.83 192.13 192.13 204.9 192.13 332.65"/><polygon class="cls-4" points="192.13 332.65 213.42 319.88 213.42 192.13 192.13 204.9 192.13 332.65"/><polygon class="cls-2" points="298.58 192.13 319.88 204.9 341.17 192.13 319.88 179.35 298.58 192.13"/><polygon class="cls-4" points="319.88 204.9 341.17 192.13 341.17 319.88 319.88 332.65 319.88 204.9"/><polygon class="cls-3" points="298.58 192.13 319.88 204.9 319.88 332.65 298.58 319.88 298.58 192.13"/><polygon class="cls-3" points="234.71 281.55 192.13 230.45 192.13 204.9 234.71 256 234.71 281.55"/><polygon class="cls-2" points="192.13 204.9 213.42 192.13 256 243.22 234.71 256 192.13 204.9"/><polygon class="cls-2" points="298.58 192.13 256 243.22 277.29 256 319.88 204.9 298.58 192.13"/><polygon class="cls-4" points="319.88 204.9 319.88 230.45 277.29 281.55 277.29 256 319.88 204.9"/><polygon class="cls-2" points="234.71 256 256 268.77 277.29 256 256 243.22 234.71 256"/><polygon class="cls-3" points="234.71 281.55 256 294.32 256 268.77 234.71 256 234.71 281.55"/><polygon class="cls-4" points="256 294.32 277.29 281.55 277.29 256 256 268.77 256 294.32"/><polygon class="cls-2" points="43.08 128.25 256 0.5 298.58 26.05 468.92 128.25 426.33 153.8 256 51.6 85.67 153.8 43.08 128.25"/><polygon class="cls-3" points="43.08 128.25 43.08 383.75 85.67 409.3 256 511.5 256 460.4 85.67 358.2 85.67 153.8 43.08 128.25"/><polygon class="cls-4" points="468.92 128.25 468.92 383.75 256 511.5 256 460.4 426.33 358.2 426.33 153.8 468.92 128.25"/><polygon class="cls-4" points="85.67 358.2 128.25 332.65 128.25 179.35 256 102.7 256 51.6 85.67 153.8 85.67 358.2"/><polygon class="cls-3" points="426.33 358.2 383.75 332.65 383.75 179.35 256 102.7 256 51.6 426.33 153.8 426.33 358.2"/><polygon class="cls-2" points="85.67 358.2 256 460.4 426.33 358.2 383.75 332.65 256 409.3 128.25 332.65 85.67 358.2"/></g></svg>