<svg width="20" height="20" viewBox="0 0 20 20" fill="none" xmlns="http://www.w3.org/2000/svg">
<path d="M14.4792 4.20297L5.9892 1.37297C2.1792 0.102967 0.109198 2.18297 1.3692 5.99297L4.1992 14.483C6.0992 20.193 9.2192 20.193 11.1192 14.483L11.9592 11.963L14.4792 11.123C20.1892 9.22296 20.1892 6.11297 14.4792 4.20297Z" fill="white"/>
<path fill-rule="evenodd" clip-rule="evenodd" d="M2.30867 2.30789C2.85051 1.76524 3.96268 1.48801 5.75203 2.08446L14.2413 4.91421C15.6207 5.37566 16.597 5.8916 17.2133 6.40093C17.8323 6.91244 18.0117 7.34773 18.0117 7.6667C18.0117 7.98543 17.8325 8.41996 17.2139 8.93009C16.5978 9.43818 15.622 9.95226 14.2424 10.4113L11.722 11.2514C11.4981 11.3261 11.3224 11.5018 11.2477 11.7258L10.4077 14.2458C9.94872 15.6251 9.43398 16.6012 8.92525 17.2173C8.4145 17.8358 7.97898 18.0154 7.6592 18.0154C7.33942 18.0154 6.90389 17.8358 6.39314 17.2173C5.88442 16.6012 5.3698 15.6255 4.91083 14.2461L2.08127 5.75746C1.48966 3.96796 1.76596 2.85141 2.30867 2.30789ZM1.24722 1.24802C0.117521 2.37941 -0.0109081 4.20843 0.657127 6.22844L0.657686 6.23012L3.48756 14.7197C3.97857 16.1952 4.56653 17.361 5.2365 18.1724C5.9045 18.9813 6.72398 19.5154 7.6592 19.5154C8.59442 19.5154 9.41389 18.9813 10.0819 18.1724C10.7519 17.3609 11.3398 16.1954 11.8308 14.7197L12.5521 12.5559L14.716 11.8346C16.1913 11.3436 17.357 10.7564 18.1683 10.0874C18.9772 9.4203 19.5117 8.60171 19.5117 7.6667C19.5117 6.73191 18.9774 5.91283 18.1689 5.24466C17.3577 4.57434 16.1925 3.98521 14.7171 3.49169L6.22637 0.661439C4.20572 -0.0121117 2.37788 0.115668 1.24722 1.24802Z" fill="#171717"/>
</svg>
