<svg width="16" height="22" viewBox="0 0 16 22" fill="none" xmlns="http://www.w3.org/2000/svg">
<path fill-rule="evenodd" clip-rule="evenodd" d="M5.09091 0.899994C3.88582 0.899994 2.90909 1.87683 2.90909 3.08181V8.24545C1.24945 8.58239 0 10.0498 0 11.8091V14.047C0 15.1081 0.331648 16.1427 0.948375 17.0061L3.11927 20.0454C3.66546 20.8099 4.54691 21.2636 5.48655 21.2636H11.0974C12.1411 21.2636 13.1055 20.7043 13.6233 19.7979L15.3295 16.8124C15.7687 16.0432 16 15.1726 16 14.2866V11.8091C16 9.85956 14.4662 8.26843 12.5389 8.17687C12.1397 7.72807 11.5571 7.44545 10.9091 7.44545C10.52 7.44545 10.1549 7.54719 9.83927 7.72545C9.45163 7.1197 8.77236 6.71818 8 6.71818C7.74473 6.71818 7.50036 6.76196 7.27273 6.84232V3.08181C7.27273 1.87683 6.296 0.899994 5.09091 0.899994Z" fill="white"/>
<path fill-rule="evenodd" clip-rule="evenodd" d="M5.09091 0.899994C3.88582 0.899994 2.90909 1.87683 2.90909 3.08181V8.24545C1.24945 8.58239 0 10.0498 0 11.8091V14.047C0 15.1081 0.331648 16.1427 0.948375 17.0061L3.11927 20.0454C3.66546 20.8099 4.54691 21.2636 5.48655 21.2636H11.0974C12.1411 21.2636 13.1055 20.7043 13.6233 19.7979L15.3295 16.8124C15.7687 16.0432 16 15.1726 16 14.2866V11.8091C16 9.85956 14.4662 8.26843 12.5389 8.17687C12.1397 7.72807 11.5571 7.44545 10.9091 7.44545C10.52 7.44545 10.1549 7.54719 9.83927 7.72545C9.45163 7.1197 8.77236 6.71818 8 6.71818C7.74473 6.71818 7.50036 6.76196 7.27273 6.84232V3.08181C7.27273 1.87683 6.296 0.899994 5.09091 0.899994ZM7.27273 8.89999C7.27273 9.30167 6.94691 9.62727 6.54545 9.62727C6.144 9.62727 5.81818 9.30167 5.81818 8.89999V3.08181C5.81818 2.68015 5.49236 2.35454 5.09091 2.35454C4.68945 2.35454 4.36364 2.68015 4.36364 3.08181V12.5364C4.36364 12.938 4.03782 13.2636 3.63636 13.2636C3.23491 13.2636 2.90909 12.938 2.90909 12.5364V9.75141C2.06182 10.0509 1.45455 10.8591 1.45455 11.8091V14.047C1.45455 14.8049 1.69166 15.5439 2.13166 16.1606L4.30256 19.2C4.57601 19.5822 5.01673 19.8091 5.48655 19.8091H11.0974C11.6196 19.8091 12.1011 19.5294 12.3607 19.0762L14.0662 16.0908C14.3804 15.5413 14.5455 14.9194 14.5455 14.2866V11.8091C14.5455 10.8591 13.9382 10.0509 13.0909 9.75141V10.3545C13.0909 10.7562 12.7651 11.0818 12.3636 11.0818C11.9622 11.0818 11.6364 10.7562 11.6364 10.3545V9.62727C11.6364 9.22559 11.3105 8.89999 10.9091 8.89999C10.5076 8.89999 10.1818 9.22559 10.1818 9.62727C10.1818 10.0289 9.856 10.3545 9.45455 10.3545C9.05309 10.3545 8.72727 10.0289 8.72727 9.62727V8.89999C8.72727 8.49832 8.40145 8.17272 8 8.17272C7.59855 8.17272 7.27273 8.49832 7.27273 8.89999Z" fill="#12131A"/>
</svg>
