<svg width="166" height="233" viewBox="0 0 166 233" fill="none" xmlns="http://www.w3.org/2000/svg">
<path d="M113 152C109.8 152 107.667 152.667 107 153C104.6 153.4 104 159.833 104 163L103.5 180.5C103.5 180.5 102.5 188 110.5 189.5C118.5 191 122.5 190.5 126 189C137 180.5 137 158 134.5 155C132.5 153.5 117.5 151.667 113 152Z" fill="white"/>
<path fill-rule="evenodd" clip-rule="evenodd" d="M78.3395 84.7231C83.5555 80.7501 96.6475 78.9641 102.214 82.7891C107.711 86.6301 108.31 92.8421 110.872 98.5571C113.289 97.4171 117.281 99.0501 117.982 101.293C118.851 102.352 118.89 105.325 119.489 106.747C145.569 110.9 149.528 131.24 152.667 154.332C156.82 177.764 166.247 201.145 162.154 225.257C162.687 226.029 163.108 226.779 163.497 227.67C164.428 229.256 163.228 231.5 161.349 231.413C158.918 231.2 156.51 230.908 154.066 230.817C147.293 230.582 140.514 230.61 133.738 230.696L132.814 230.708C98.6665 231.133 64.5205 231.971 30.3716 232.193C29.1327 232.195 28.5262 231.084 28.6916 229.987C29.0248 227.78 29.3339 225.571 29.6565 223.362C21.5793 225.497 12.9925 226.034 4.93819 223.587C4.37469 223.013 6.25099 223.324 6.54869 223.237C-0.863914 218.17 1.34979 207.495 2.00639 199.806C6.08939 173.461 7.52868 144.312 23.3039 121.832C30.1284 112.657 40.1339 105.394 51.6308 103.759L51.9498 103.716C55.3115 103.267 59.0581 103.123 61.9973 101.293C65.3035 98.6531 66.7115 93.7751 70.1895 93.7291C71.3375 93.7141 72.9005 95.1681 74.5815 96.1551C74.7065 93.9841 75.8765 92.1521 76.1345 90.4691L76.1555 90.3251C76.4245 88.3631 76.0555 86.5971 78.3395 84.7231ZM134.386 155.028C127.057 149.934 108.125 152.494 107.691 152.779C106.737 153.407 106.326 153.462 105.81 154.278C105.301 154.345 104.791 154.416 104.283 154.488C103.262 154.821 104.018 156.077 105.197 155.629C104.488 158.688 106.575 160.864 107.406 163.888C107.675 164.87 107.415 166.636 107.406 167.64C107.486 168.919 108.9 170.43 108.664 171.713C107.827 176.276 103.281 180.727 105.197 185.152C106.467 187.651 110.286 188.926 112.825 189.775C118.085 191.795 127.251 189.699 130.307 185.152C131.938 182.727 133.826 176.609 134.798 174.711L135.014 171.701C135.545 164.217 136.018 156.162 134.386 155.028Z" fill="white"/>
<path fill-rule="evenodd" clip-rule="evenodd" d="M68.9115 93.2881C69.4175 92.8401 70.1665 93.4031 69.8445 94.0091C69.1225 95.3701 68.3805 96.6591 67.4115 97.8621C66.8235 98.5921 66.1935 99.2821 65.5555 99.9641C67.1935 101.381 68.5975 103.141 69.9245 104.791C71.6205 106.9 73.2245 109.099 75.1285 111.029C77.0065 112.933 79.0825 114.264 81.5935 115.151L82.1005 115.327C84.6225 116.213 87.3185 117.409 88.7405 119.798C89.0205 120.269 88.4565 120.851 87.9815 120.557C85.5115 119.027 82.6085 118.719 79.9195 117.708C77.3215 116.732 75.0575 115.229 73.0565 113.31C71.0595 111.395 69.3825 109.216 67.6335 107.083C65.9035 104.974 64.0405 103.172 61.9947 101.388C58.8372 103.513 55.233 104.438 51.5682 105.346L51.1681 105.445C47.4988 106.354 43.8492 107.409 40.4068 108.992C37.3717 110.387 34.3865 112.053 31.9142 114.323C29.2899 116.733 27.2473 119.81 25.3778 122.819C21.196 129.552 18.256 136.928 15.6678 144.394C12.9758 152.159 10.7241 160.08 8.90643 168.095C7.98183 172.172 7.23103 176.278 6.61393 180.413C6.31683 182.404 6.05303 184.4 5.82123 186.4C5.57383 188.536 5.51703 190.733 4.86213 192.786C4.58133 193.666 3.91833 194.032 3.25473 194L3.12003 195.687C2.94123 197.935 2.77463 200.184 2.71833 202.446C2.62503 206.208 2.66733 209.959 2.93783 213.712L2.97613 214.224C3.18863 216.964 3.66353 220.042 5.72283 222.048C7.85533 224.125 11.1348 224.779 14.0091 224.816C20.7035 224.903 27.1476 221.739 33.0716 218.963C39.1726 216.104 45.1069 212.931 50.899 209.489C53.8487 207.736 56.7665 205.925 59.6471 204.061C61.0607 203.146 62.4644 202.216 63.8575 201.271C64.6555 200.729 65.4115 200.136 66.2235 199.655C65.8255 199.284 65.6485 198.702 65.9815 198.193C63.6333 196.153 62.656 192.515 62.5417 189.57C62.4494 187.194 62.799 184.824 63.075 182.47C63.2142 181.282 63.3862 180.097 63.5647 178.916C63.6352 178.449 63.6891 177.949 63.7715 177.456C57.4307 180.942 50.9123 184.046 44.2212 186.804C40.7915 188.218 37.3178 189.489 33.7962 190.654L33.0824 190.889C29.7457 191.982 26.3291 193.014 22.8796 193.638C22.6952 193.672 22.5454 193.399 22.7423 193.313C26.104 191.829 29.5821 190.577 32.9942 189.21L33.555 188.982C33.4905 188.978 33.4238 188.969 33.354 188.953C31.3529 188.47 29.3674 187.725 27.4047 187.098C25.5832 186.516 23.5366 186.151 21.834 185.273C21.703 185.205 21.7764 185.023 21.904 185.014C23.8176 184.881 25.895 185.439 27.7713 185.768L28.4761 185.891C29.6569 186.099 30.8639 186.323 32.0389 186.615C32.0814 186.221 32.3013 185.826 32.6142 185.594C36.0572 183.043 35.7076 177.892 36.0758 174.093L36.3489 171.272C36.8292 166.336 37.3373 161.4 38.1092 156.501C38.1504 156.24 38.555 156.315 38.5567 156.562C38.5965 162.635 38.1383 168.68 37.9086 174.743L37.873 175.738C37.746 179.48 37.6465 183.365 35.2909 186.244C35.6203 186.051 36.0657 186.051 36.3325 186.369C36.6604 186.759 36.8497 187.197 36.8438 187.627C38.9723 186.735 41.0915 185.819 43.2004 184.884C49.9806 181.879 56.6186 178.516 63.0811 174.878C63.7766 174.486 64.4375 174.794 64.7815 175.31L64.8315 175.303C64.8395 175.302 64.8475 175.301 64.8565 175.301L64.9055 175.299C64.9075 175.299 64.9095 175.299 64.9115 175.299C65.8215 174.799 67.0605 175.155 67.8405 175.884C67.8635 175.906 67.8835 175.93 67.9045 175.953C68.8925 175.509 69.8155 174.91 70.6525 174.151C72.3665 172.597 73.8185 170.676 75.0835 168.749C77.4145 165.2 79.3935 161.254 82.5415 158.333C85.0995 155.96 88.2705 154.482 91.5975 153.555C91.5835 153.458 91.6205 153.354 91.6875 153.285C91.8585 153.11 91.9805 153.049 92.2015 153.156C92.2195 153.164 92.2295 153.176 92.2365 153.189L92.5615 152.634C92.7385 152.333 92.9205 152.029 92.9835 151.95C93.3615 151.474 93.7505 151.002 94.1445 150.54C94.8135 149.757 95.5765 148.985 96.4595 148.442C98.3925 147.254 100.425 147.926 102.412 148.576C103.613 148.968 104.81 149.373 106.009 149.772L106.132 149.812C107.026 150.099 108.072 150.351 108.472 151.298C108.63 151.673 108.655 152.062 108.581 152.439C117.071 150.28 126.5 151.272 134.784 153.807C135.102 153.905 135.42 154.166 135.487 154.51C136.436 159.38 136.859 164.374 136.429 169.326C136.059 173.602 135.112 177.791 133.327 181.705L133.226 181.926C131.549 185.553 128.891 190.025 124.832 191.162C122.381 191.848 119.67 191.444 117.171 191.318C114.741 191.195 112.258 191.178 109.852 190.796C107.709 190.455 105.831 189.494 104.507 187.751C103.364 186.247 102.762 184.429 102.269 182.621C102.044 182.693 101.82 182.77 101.599 182.856C100.668 183.22 99.8785 183.807 99.1655 184.498C97.6595 185.957 96.4905 187.729 94.9155 189.121C93.4885 190.382 91.8635 191.362 90.1195 192.116C86.5065 193.678 82.6305 194.302 78.8095 195.129L78.5425 195.187C75.6655 195.819 72.7285 196.594 70.1895 198.093C70.1395 198.534 69.9385 198.949 69.6165 199.221C70.0645 199.642 70.2545 200.308 69.8605 200.933C68.7615 202.679 66.8675 203.672 65.1675 204.788L65.0575 204.861C63.3847 205.97 61.6977 207.057 59.997 208.122C56.5396 210.288 53.01 212.334 49.4304 214.29C43.6732 217.437 37.7923 220.405 31.805 223.097C32.1644 224.866 32.0331 226.689 32.3032 228.47L32.3446 228.724C32.46 229.385 32.3041 229.937 31.8491 230.369L31.801 230.413L31.8019 230.407L31.7592 230.447L31.7449 230.458L31.7497 230.455C31.6972 230.503 31.6431 230.548 31.588 230.586L31.5177 230.631C31.0795 230.897 30.5153 230.894 30.0666 230.659L30.0154 230.631L29.9292 230.582C29.3364 230.24 28.9276 229.395 29.1735 228.724C29.7779 227.074 30.0063 225.312 30.5645 223.651L30.1216 223.849L29.538 224.104C23.2258 226.834 16.2141 229.134 9.33654 227.272C6.29764 226.449 3.45733 224.709 1.93683 221.873C0.440735 219.082 0.229233 215.841 0.149733 212.736C0.0517332 208.904 0.257132 205.013 0.762232 201.214C1.10133 198.664 1.51143 196.066 2.14393 193.542C1.81853 193.255 1.57943 192.843 1.51623 192.333C1.21773 189.922 1.74023 187.416 2.06003 185.018C2.37253 182.677 2.71773 180.34 3.10813 178.011C3.89643 173.307 4.81223 168.612 5.87853 163.963C7.77613 155.688 10.2819 147.561 13.2988 139.627L13.563 138.936C16.3508 131.685 19.5786 124.589 24.0733 118.218C26.2233 115.171 28.4961 112.408 31.5342 110.211C34.3804 108.154 37.5908 106.672 40.9039 105.54C44.2206 104.407 47.6296 103.647 51.0988 103.175C54.6221 102.695 58.3411 102.401 61.6278 100.955C61.212 100.21 61.5688 99.2031 62.2685 98.7401C64.6235 97.1841 66.8005 95.1591 68.9115 93.2881ZM144.293 160.967C144.392 160.817 144.626 160.912 144.583 161.089C143.438 165.783 142.363 170.487 141.661 175.27C140.393 183.904 140.626 192.65 140.73 201.348L140.735 201.797C140.788 206.482 140.862 211.167 141.017 215.85C141.095 218.217 141.25 220.607 141.166 222.975C141.12 224.26 140.778 225.475 140.657 226.744C140.55 227.854 140.645 228.98 140.698 230.092C140.734 230.831 139.643 230.799 139.569 230.092L139.474 229.177C139.351 228.019 139.199 226.868 138.82 225.76C138.364 224.427 138.145 223.118 137.986 221.718C137.744 219.573 137.636 217.407 137.543 215.248L137.479 213.754C137.088 204.728 137.102 195.66 137.734 186.644L137.78 186C138.407 177.478 139.493 168.269 144.293 160.967ZM119.88 107.253C119.581 107.13 119.686 106.678 120.017 106.757L120.62 106.9C125.034 107.958 129.368 109.104 133.489 111.072C137.611 113.042 141.102 115.982 143.876 119.597C149.267 126.625 151.508 135.166 153.276 143.698C155.242 153.18 157.032 162.696 159.014 172.174L159.383 173.94C161.217 182.768 162.949 191.601 164.226 200.533L164.317 201.181C165.604 210.367 166.379 219.87 164.974 229.08C164.696 230.902 161.666 230.448 161.784 228.648C162.126 223.444 162.371 218.267 162.135 213.051C161.898 207.835 161.408 202.641 160.679 197.47C160.066 193.118 159.151 188.82 158.342 184.503L158.215 183.821C157.537 180.149 156.838 176.481 156.141 172.813L155.099 167.32C153.538 159.096 151.946 150.864 150.147 142.692L150.04 142.211C148.28 134.348 145.684 126.112 140.404 119.868C135.045 113.532 127.374 110.341 119.88 107.253ZM100.409 190.652C100.537 190.364 100.988 190.396 101.127 190.652C101.67 191.654 101.73 192.933 101.833 194.065L101.844 194.181C101.974 195.562 102.09 196.948 102.161 198.333C102.295 200.962 102.359 203.587 102.351 206.22C102.342 208.917 102.288 211.612 102.143 214.306L102.103 215.027C101.97 217.368 101.748 219.979 100.636 222.026C100.232 222.77 99.1325 222.551 98.8985 221.799C98.1315 219.335 98.5245 216.414 98.7215 213.891L98.8745 211.922C99.0255 209.953 99.1695 207.984 99.2845 206.012C99.4415 203.315 99.5705 200.616 99.6945 197.918C99.7355 197.041 99.7785 196.165 99.8255 195.288L99.8965 193.974C99.9565 192.874 99.9515 191.668 100.409 190.652ZM14.1796 194.143L14.5191 193.815C15.5613 192.795 16.8783 191.223 18.419 191.321C19.0333 191.36 19.4248 191.87 19.2974 192.475C19.0253 193.767 17.7072 194.438 16.7584 195.227C15.719 196.091 14.7393 197.015 13.7616 197.948C12.8941 198.775 12.0599 199.625 11.2458 200.502L10.9413 200.833C10.6495 201.151 8.57123 203.032 8.79593 203.52L8.80823 203.541C8.87073 203.635 8.76663 203.763 8.66283 203.731C7.76543 203.447 7.82133 202.677 8.16063 201.898C8.81263 200.4 9.95433 199.014 10.9513 197.735C11.9456 196.458 13.0217 195.27 14.1796 194.143ZM103.661 156.575C102.967 154.934 100.41 154.968 98.9585 155.067C95.3035 155.314 91.3485 156.239 88.0965 157.948C84.7255 159.719 82.4545 162.558 80.4215 165.697L80.3265 165.845C78.3465 168.925 76.4385 172.571 73.3375 174.689C71.7575 175.767 69.9135 176.753 67.9965 177.179C67.8645 177.411 67.6515 177.594 67.3725 177.661L67.2425 177.69C66.6965 177.811 65.8485 177.944 65.1155 177.864C65.1205 178.223 65.1165 178.579 65.1255 178.918C65.1515 179.892 65.1625 180.869 65.1625 181.843C65.1635 183.884 65.0535 185.928 65.1385 187.969C65.2145 189.773 65.4685 191.659 66.3355 193.272C66.9705 194.456 67.8085 195.239 68.8215 195.987C71.3115 194.469 74.1265 193.543 76.9845 192.848C80.4405 192.006 83.9785 191.445 87.3555 190.304C88.9815 189.754 90.5445 189.036 91.9605 188.059C93.4625 187.023 94.6105 185.62 95.7915 184.248L95.9765 184.035C97.1815 182.652 98.4965 181.329 100.2 180.58C101.667 179.934 103.601 179.819 104.883 178.819C105.554 178.296 105.61 177.538 105.681 176.761C104.859 176.878 103.99 176.69 103.171 176.594L102.747 176.544C101.973 176.452 101.216 176.351 100.454 176.154C100.313 176.117 100.313 175.904 100.454 175.867C101.355 175.635 102.247 175.536 103.171 175.427L103.388 175.4C104.223 175.291 105.101 175.125 105.921 175.309C106.068 174.75 106.28 174.215 106.578 173.68C106.996 172.928 107.787 172.076 107.894 171.198C107.926 170.936 107.865 170.626 107.741 170.395L107.699 170.315C107.647 170.222 107.585 170.128 107.495 170.07C107.485 170.082 107.464 170.095 107.418 170.109C106.788 170.308 106.238 169.999 105.946 169.523C104.706 169.677 103.353 169.625 102.191 169.677L101.016 169.734C99.7595 169.791 98.4465 169.816 97.2665 169.563C97.1015 169.527 97.0515 169.253 97.2165 169.182C98.6675 168.562 100.428 168.364 101.981 168.125C102.849 167.992 103.723 167.89 104.593 167.773C105.172 167.695 105.787 167.566 106.387 167.535C107.892 165.661 107.081 162.704 104.987 161.897C104.224 162.233 103.538 162.038 102.704 161.966C101.872 161.895 101.038 161.846 100.203 161.85C98.5285 161.857 96.7545 162.298 95.0975 162.108C94.8275 162.077 94.5765 161.718 94.8445 161.499C96.1135 160.463 97.9325 160.126 99.5425 159.905L99.8765 159.86C100.417 159.789 101.074 159.686 101.755 159.625C101.909 159.324 102.185 159.097 102.6 159.04C102.724 159.023 102.848 159.014 102.972 159.003L102.97 158.991C103.982 158.942 103.938 157.231 103.661 156.575ZM34.3497 188.579C34.3318 188.606 34.3123 188.633 34.2914 188.658L34.2593 188.695L34.4258 188.628L34.3497 188.579ZM121.327 152.908C117.066 152.45 112.799 152.547 108.525 152.67C108.183 153.788 106.993 154.742 105.84 154.777C106.743 156.152 106.836 158.013 106.203 159.471C107.547 160.006 108.705 160.968 109.409 162.338C110.384 164.236 110.256 166.349 109.292 168.103C110.115 168.848 110.6 170.058 110.552 171.198C110.497 172.469 109.74 173.555 109.11 174.608C108.43 175.746 108.408 176.748 108.199 178.023C107.893 179.889 106.635 181.02 105.017 181.727L105.103 182.066C105.52 183.691 106.039 185.405 107.232 186.593C108.766 188.122 111.146 188.108 113.173 188.204L113.271 188.209C115.127 188.302 116.982 188.411 118.838 188.516L120.229 188.594C122.366 188.711 124.417 188.726 126.161 187.313C129.008 185.006 130.96 181.19 132.196 177.811C134.789 170.719 134.82 162.936 133.63 155.55C129.638 154.262 125.496 153.356 121.327 152.908ZM85.8885 164.675L85.9205 164.677C86.7975 164.777 87.4005 165.488 87.6155 166.331C87.9265 167.556 87.7735 168.664 88.5245 169.77C89.2955 170.908 89.7705 171.818 89.8825 173.224C89.9285 173.802 89.9075 174.379 90.0365 174.945L90.1295 175.341C90.2285 175.764 90.3095 176.171 90.2605 176.625C90.2155 177.039 90.0135 177.362 89.5985 177.495C88.2455 177.928 87.2015 176.93 86.8515 175.669C86.5505 174.58 86.9535 173.282 86.5275 172.259C86.2915 171.692 85.8565 171.218 85.6105 170.647C85.3665 170.081 85.2445 169.49 85.2055 168.875C85.1305 167.711 86.1595 166.314 85.5855 165.26C85.4635 165.035 85.6015 164.668 85.8885 164.675ZM67.9205 152.67C68.8365 152.484 69.8755 152.057 70.7785 152.412C71.2435 152.594 71.4725 153.161 71.0805 153.555C70.3995 154.238 69.4095 154.276 68.4915 154.437L68.4105 154.451C67.3255 154.652 66.2395 154.843 65.1505 155.023C63.1036 155.362 61.0513 155.662 58.9919 155.917C56.8767 156.179 54.7555 156.412 52.6315 156.588L51.8092 156.655C50.0149 156.799 48.1479 156.907 46.3874 156.632C46.1316 156.592 46.1728 156.219 46.3874 156.154C48.3161 155.57 50.4317 155.413 52.4257 155.166C54.5455 154.903 56.6618 154.625 58.7726 154.296C60.88 153.966 62.9846 153.613 65.0815 153.222C66.0295 153.046 66.9755 152.862 67.9205 152.67ZM100.974 150.795C100.17 150.51 99.2855 150.089 98.4145 150.23C96.9125 150.473 95.5755 151.937 94.3865 152.901L94.9835 152.785C98.0385 152.198 102.084 151.565 104.648 153.508C104.655 153.497 104.66 153.486 104.667 153.475C104.875 153.16 105.114 152.915 105.376 152.646C105.401 152.622 105.425 152.598 105.449 152.573L105.59 152.423L105.267 152.311C104.575 152.066 103.756 151.75 103.626 151.704L103.617 151.701C102.735 151.402 101.852 151.106 100.974 150.795ZM75.8745 86.7401C75.7495 85.1231 78.2655 85.1361 78.3905 86.7401C78.6625 90.2421 77.8745 93.7111 76.1785 96.7821C76.1665 96.8041 76.1525 96.8241 76.1395 96.8451C77.1995 97.3971 78.2725 97.9271 79.3695 98.4001C80.7715 99.0061 82.2005 99.5571 83.6555 100.025C84.9705 100.449 86.5925 100.616 87.6985 101.497C90.0305 103.356 89.1545 107.212 88.7055 109.712L88.6355 110.106C88.4125 111.392 88.2505 112.712 88.7925 113.947C89.3715 115.265 90.5425 116.243 91.5865 117.187L91.7975 117.378C92.7225 118.221 93.7795 119.246 94.4585 120.389C95.0775 119.108 95.9225 118.061 96.8155 116.882C97.4525 116.041 96.9985 115.763 96.5415 114.942C96.1005 114.151 95.8855 113.308 96.0235 112.405C96.2775 110.739 97.6085 109.536 98.9335 108.631C100.499 107.564 102.246 106.773 103.863 105.78C107.187 103.739 110.425 101.406 113.341 98.8151C113.422 98.7441 113.561 98.8381 113.497 98.9351C111.193 102.441 108.491 105.47 105.171 108.042C103.825 109.084 102.411 109.949 100.987 110.858L100.578 111.121C100.006 111.491 99.2925 111.987 99.0345 112.617C98.7745 113.251 99.3285 113.73 99.6275 114.256C100.576 115.924 100.118 117.481 98.9945 118.896L98.9415 118.961C97.8245 120.338 96.9785 121.618 96.5735 123.377C95.7045 127.156 96.9155 131.091 98.1835 134.638L98.2335 134.778C98.9195 136.69 99.6485 138.588 100.245 140.53L100.409 141.067C100.949 142.855 101.391 144.617 100.786 146.455C100.58 147.08 99.7275 147.228 99.3735 146.639C98.1245 144.565 97.8135 142.069 97.0315 139.789C96.2685 137.566 95.3925 135.384 94.6565 133.152C93.7075 130.279 93.0725 127.186 93.4175 124.172C93.4075 124.154 93.3955 124.138 93.3875 124.119L93.1465 123.591C92.4875 122.16 91.8515 120.911 90.6545 119.77C89.4055 118.58 88.0495 117.527 87.0665 116.087C84.9315 112.959 86.2525 109.479 86.5095 106.059L86.5395 105.639C86.5865 104.929 86.6115 103.964 86.1485 103.472C85.6265 102.919 84.4035 102.778 83.7115 102.533C81.9225 101.9 80.1605 101.162 78.4815 100.276C76.8835 99.4331 75.3355 98.5011 73.8945 97.4101L73.1635 96.8601C72.0105 95.9901 70.8155 95.0401 70.0435 93.8551C69.9545 93.7191 70.1055 93.4991 70.2665 93.5641C71.5565 94.0881 72.7345 94.9211 73.9415 95.6451C73.9605 95.6011 73.9815 95.5561 74.0065 95.5121C75.4995 92.8091 76.1135 89.8141 75.8745 86.7401ZM117.069 105.258C117.583 103.848 119.925 103.957 119.831 105.632C119.76 106.919 119.214 108.08 118.714 109.248L118.661 109.373C118.145 110.59 117.55 111.733 116.838 112.849C115.477 114.981 113.882 116.96 112.179 118.828C110.635 120.521 108.609 121.557 106.273 121.385C105.29 121.312 104.296 121.062 103.434 120.57C102.41 119.986 101.298 118.232 99.9915 118.657C99.8645 118.698 99.7465 118.513 99.8565 118.425C101.365 117.21 103.077 119.094 104.521 119.548C106.697 120.232 108.93 119.476 110.33 117.716C111.792 115.879 113.138 113.822 114.367 111.821C114.991 110.805 115.56 109.751 116.052 108.665C116.548 107.568 116.661 106.376 117.069 105.258ZM113.562 96.5841C113.498 96.3891 113.74 96.2041 113.911 96.3151C114.902 96.9601 115.761 97.8131 116.675 98.5611C117.689 99.3901 118.711 100.202 119.748 101.002C121.261 102.169 119.507 104.316 118.175 103.042C116.353 101.299 114.358 99.0201 113.562 96.5841ZM108.121 89.7611C108.523 88.2081 110.904 88.8491 110.557 90.3841L110.546 90.4301C109.889 92.9661 110.825 95.5471 112.823 97.1911L112.897 97.2511C114.161 98.2631 112.37 100.032 111.118 99.0301C108.385 96.8421 107.249 93.1251 108.121 89.7611Z" fill="black"/>
<path fill-rule="evenodd" clip-rule="evenodd" d="M127.535 34.4318C125.623 26.3681 121.443 18.8638 114.75 12.7991C94.6096 -7.11982 57.6249 3.69178 57.7924 33.7082C57.0701 37.2141 56.7769 40.8189 57.016 44.3943C57.1149 45.9198 57.7749 48.0487 56.8882 49.422C54.8881 51.99 53.7256 53.883 54.4063 57.3C54.9751 60.283 57.0045 62.397 59.7434 63.52C61.386 63.992 62.9445 65.019 63.553 66.585C67.2095 73.281 69.9175 78.851 75.6815 83.415C77.1695 84.59 92.4236 91.637 97.4506 91.637C112.166 91.637 130.712 86.304 131.02 69.861C131.073 66.25 130.44 62.596 130.042 59.013C129.075 50.836 129.416 42.3634 127.535 34.4318Z" fill="white"/>
<path fill-rule="evenodd" clip-rule="evenodd" d="M127.204 30.3987C127.209 30.2989 127.352 30.2765 127.379 30.375C127.926 32.3163 128.236 34.2939 128.664 36.2654C129.076 38.1643 129.465 40.0688 129.789 41.9845C130.399 45.6 130.914 49.225 131.393 52.859L131.512 53.768C132.344 60.163 133.718 66.825 132.516 73.257C131.491 78.746 128.053 83.169 123.623 86.412C119.429 89.483 114.343 91.454 109.293 92.574C103.873 93.777 97.449 94.136 93.039 90.16C91.274 88.568 93.68 85.409 95.596 86.846C100.093 90.218 105.813 89.224 110.888 87.882L111.041 87.841C115.495 86.654 119.978 84.856 123.514 81.821C127.423 78.466 129.356 73.809 129.579 68.702C129.705 65.833 129.437 62.967 129.149 60.115L129.117 59.798C128.786 56.536 128.438 53.275 128.118 50.012C127.825 47.0363 127.573 44.0434 127.44 41.0544L127.378 39.5468C127.248 36.5074 127.074 33.4235 127.204 30.3987ZM74.463 5.14411C81.781 1.33281 90.191 -0.0312864 98.335 1.24781C106.164 2.47751 113.349 6.51891 118.72 12.3139C121.342 15.1433 123.669 18.416 125.156 21.9914C125.895 23.7676 126.474 25.6205 126.782 27.5235C126.94 28.5019 127.096 29.5155 127.126 30.5074C127.153 31.4257 126.884 32.2869 126.915 33.2205C126.92 33.3665 126.697 33.3946 126.663 33.2547C126.408 32.2138 125.795 31.4267 125.411 30.438C125.123 29.6998 124.797 28.9791 124.465 28.2605L124.18 27.6448C123.353 25.8553 122.363 24.1394 121.384 22.4296C119.414 18.9858 116.885 15.8561 113.924 13.2153C108.724 8.57872 102.054 5.58581 95.093 5.04681C87.867 4.48721 80.539 6.21011 74.368 10.0267C68.198 13.843 63.532 19.7756 61.1096 26.6063C59.8874 30.0532 59.2124 33.6446 59.0554 37.2964C58.976 39.1448 59.0501 41.0087 59.1796 42.8536L59.244 43.7334C59.3193 44.7884 59.371 45.8394 59.2134 46.8688C60.3264 46.5216 61.493 46.3777 62.6639 46.5495C64.404 46.8048 65.443 47.5183 66.224 49.073C66.264 49.155 66.183 49.236 66.102 49.195C65.09 48.6902 63.4529 48.9561 62.3814 49.221C61.2663 49.497 60.262 49.976 59.3144 50.624C57.5615 51.822 56.1875 53.679 55.8503 55.809C55.5243 57.867 56.3687 59.95 57.7872 61.425C58.5173 62.185 59.3901 62.841 60.3672 63.25C61.553 63.747 62.7268 63.732 63.776 64.552C64.425 65.059 64.268 65.927 63.8279 66.49C66.041 68.918 68.004 71.574 70.218 74.011C71.243 75.141 72.261 76.272 73.244 77.439L73.611 77.878C74.593 79.063 76.154 80.315 76.603 81.805C76.882 82.732 75.889 83.945 74.886 83.522C73.347 82.874 72.248 81.188 71.209 79.894L71.141 79.81C70.05 78.47 69.082 77.054 68.197 75.571L67.906 75.083C66.305 72.39 64.718 69.597 63.6974 66.638C63.63 66.707 63.5586 66.77 63.4834 66.824C62.0129 67.87 59.8753 67.066 58.4068 66.386C57.0205 65.745 55.7495 64.781 54.7589 63.618C52.6044 61.09 51.6112 57.816 52.3308 54.535C52.9403 51.755 54.866 49.051 57.3906 47.6455C56.2253 46.3035 55.7427 44.4943 55.4216 42.7255C55.0117 40.4677 54.93 38.1538 55.0413 35.8642C55.2634 31.3039 56.4365 26.8087 58.2501 22.6329C61.4947 15.161 67.231 8.91102 74.463 5.14411ZM59.061 55.004C60.597 54.716 62.0283 54.647 63.5097 55.297C65.117 56.002 66.248 57.167 67.299 58.532C68.495 60.085 65.429 61.781 64.656 59.72L64.634 59.656C64.427 59.046 64.056 58.456 63.5862 57.913C63.4453 58.129 63.2568 58.319 63.0354 58.428C62.7673 58.56 62.3579 58.469 62.2934 58.126C62.222 57.746 62.301 57.285 62.5203 56.963L62.5503 56.919C61.4847 56.062 60.2029 55.435 59.061 55.233C58.947 55.213 58.9482 55.025 59.061 55.004Z" fill="black"/>
<path fill-rule="evenodd" clip-rule="evenodd" d="M107.152 77.274C105.732 76.694 104.465 75.727 103.538 74.492C103.216 74.063 103.133 73.61 103.2 73.195C103.276 72.729 103.552 72.306 103.928 72.023C104.305 71.738 104.777 71.598 105.233 71.67C105.63 71.732 106.024 71.949 106.337 72.399L106.402 72.489C106.953 73.235 107.67 73.846 108.488 74.24C109.276 74.62 110.158 74.798 111.07 74.695C112.808 74.498 114.005 73.558 115.278 72.282C115.436 72.121 115.594 71.954 115.752 71.786C115.852 71.632 115.991 71.534 116.146 71.482C116.317 71.425 116.511 71.428 116.689 71.49C116.86 71.55 117.013 71.663 117.116 71.814C117.213 71.958 117.269 72.135 117.251 72.338C117.134 73.661 116.443 74.842 115.461 75.769C114.37 76.798 112.924 77.511 111.563 77.76C110.064 78.036 108.536 77.839 107.152 77.274ZM112.271 56.866C113.866 57.836 116.297 60.098 114.581 62.503C112.56 64.624 109.652 62.192 108.219 61.093C106.89 60.241 105.396 62.432 106.629 63.428C116.987 71.099 121.19 57.12 113.078 55.725C112.184 55.572 111.853 56.566 112.271 56.866ZM93.7115 47.9426C93.8875 45.7538 97.2194 45.2568 97.5514 47.4227C97.8474 49.363 97.4984 51.145 96.6244 52.892C95.7904 54.561 93.6925 53.782 93.5335 52.263C93.3205 50.226 93.6015 49.304 93.7115 47.9426ZM119.076 46.9736C119.541 46.3649 120.212 45.9494 121.015 46.1842C123.526 46.9182 122.786 50.484 121.904 52.22C121.425 53.163 119.876 53.402 119.176 52.572C118.036 51.218 117.489 48.5154 118.94 47.1822C118.979 47.1133 119.023 47.0438 119.076 46.9736ZM96.5895 38.3651L96.9864 38.2957C98.2134 38.0834 99.7385 37.8794 100.606 38.8662C101.067 39.3895 101.225 40.3622 100.606 40.8631C99.5185 41.7444 98.3144 41.4028 97.0104 41.4775C95.9354 41.5392 94.9025 41.7171 93.8675 42.0132C91.5955 42.6627 89.7445 43.8484 87.8045 45.1503C87.5505 45.3211 87.2905 44.9954 87.4115 44.7572C88.5315 42.5627 90.7015 40.7601 92.8755 39.6613C94.0365 39.0748 95.3055 38.5883 96.5895 38.3651ZM116.787 37.3821L117.091 37.4442C120.395 38.1351 124.687 39.515 126.251 42.7613C126.311 43.2203 126.248 43.3187 126.197 43.3829L126.18 43.4043C126.137 43.4592 126.104 43.5349 125.905 43.5974C125.85 43.5842 125.794 43.5703 125.737 43.5555C125.02 43.3675 124.453 43.1085 123.904 42.8398L123.308 42.5462C122.617 42.2073 121.92 41.8807 121.181 41.6396C119.605 41.1252 117.983 40.7628 116.337 40.5693C115.98 40.5274 115.636 40.4069 115.365 40.2004C115.108 40.0044 114.911 39.733 114.821 39.3722C114.705 38.9053 114.739 38.5518 114.989 38.1306C115.177 37.8143 115.447 37.5951 115.756 37.4692C116.071 37.3408 116.43 37.3106 116.787 37.3821Z" fill="black"/>
<path fill-rule="evenodd" clip-rule="evenodd" d="M93.4494 78.599C95.1604 74.59 98.8934 71.644 103.191 70.566C106.347 69.778 109.66 69.803 112.877 70.116C114.563 70.279 116.371 70.412 117.96 71.039C119.317 71.574 120.422 72.585 121.254 73.772C122.243 75.179 122.916 76.789 123.389 78.439C123.456 78.674 123.519 78.91 123.578 79.148C123.372 80.393 122.936 81.453 121.783 82.236C120.658 83 119.316 83.313 117.978 83.424C117.847 83.361 117.72 83.296 117.604 83.23C115.518 82.035 114.051 79.213 111.419 79.595C109.07 79.936 107.524 82.893 106.127 84.626C101.644 85.149 97.1644 83.801 93.5164 81.236C93.3304 80.359 93.3204 79.473 93.4494 78.599ZM126.625 75.558C126.266 74.551 125.815 73.576 125.279 72.657C123.509 69.619 120.792 67.198 117.566 65.814C109.934 62.546 100.06 64.85 93.8974 70.211C91.7924 72.044 89.6634 74.737 89.0194 77.634C88.8274 77.672 88.6464 77.772 88.4964 77.913C84.0444 75.108 79.4584 72.41 75.8704 68.523C73.2654 65.698 71.4524 62.355 70.3424 58.682C70.2524 58.38 69.7644 58.424 69.7794 58.759C69.7834 58.837 69.7874 58.915 69.7924 58.993C69.7454 58.849 69.5264 58.923 69.5094 59.063C68.9124 63.525 68.1654 68.256 68.8534 72.741C69.2644 75.418 70.4804 77.377 72.1044 79.493C73.8454 81.761 75.8154 83.87 77.8304 85.893C79.1094 87.177 80.4444 88.658 82.0104 89.6C83.8314 90.694 85.8964 91.525 87.8404 92.369C89.8164 93.231 91.8234 94.026 93.8674 94.716C97.9544 96.1 102.178 97.056 106.476 97.475C109.917 97.809 113.85 98.173 117.148 96.878C119.675 95.886 121.716 94.092 123.334 91.934C125.096 89.583 126.488 86.905 127.258 84.082C128.058 81.149 126.794 76.03 126.625 75.558Z" fill="black"/>
<path fill-rule="evenodd" clip-rule="evenodd" d="M134.723 51.353C132.709 64.983 118.648 66.49 116.15 52.959C116.551 52.784 116.839 52.438 116.779 51.767C116.765 48.8178 117.68 45.7012 120.339 44.0613C123.087 42.3693 126.302 42.2014 129.482 42.2441C135.55 42.0996 135.423 47.1735 134.723 51.353ZM113.949 45.4254C112.044 45.3451 109.635 45.4123 107.929 46.573C107.46 45.3096 106.242 43.9605 105.01 43.2392C109.587 43.3732 114.298 42.9226 118.908 42.5728C117.805 43.3254 116.778 44.4561 116.111 45.7633C115.491 45.433 114.604 45.4638 113.949 45.4254ZM105.555 52.798C100.274 70.982 87.093 63.056 85.656 60.726C83.064 56.87 82.576 47.4953 84.834 44.9889C88.066 42.7224 92.641 43.3057 96.459 43.2502C103.474 43.3448 108.455 45.444 105.555 52.798ZM140.958 44.4348C139.524 44.2471 137.99 44.2093 136.657 44.8412C136.246 43.0948 134.956 41.6348 133.501 40.9923C133.324 40.7712 133.351 40.6525 132.749 40.6856C129.053 39.5744 124.917 40.1623 121.365 41.3019C115.755 41.7745 109.87 42.1471 104.213 42.7983C98.914 40.4176 82.923 40.0687 81.929 45.9364C80.679 45.7494 78.55 44.7651 77.5 46.1002C69.795 44.7934 61.8329 46.6096 54.0944 47.4184C52.1465 47.7773 51.1432 51.645 53.3543 51.592C54.5974 51.254 53.3161 49.184 54.99 49.028C62.4564 48.212 69.759 47.0547 77.302 46.9192C77.04 48.2222 82.291 48.3069 82.369 47.5461C82.38 47.5518 82.392 47.5556 82.403 47.5606C81.106 52.398 82.277 59.361 84.622 62.361C87.908 66.289 96.157 67.416 99.814 64.888C104.532 62.556 109.441 50.847 108.062 46.9564C110.564 46.163 113.038 46.4012 115.635 46.8053C115.04 48.4853 114.014 52.621 115.491 52.98C115.22 61.191 122.689 66.314 129.575 62.946C135.536 60.147 137.62 51.287 136.891 45.91C137.633 47.3442 143.862 45.7828 140.958 44.4348Z" fill="black"/>
</svg>
