<svg width="166" height="233" viewBox="0 0 166 233" fill="none" xmlns="http://www.w3.org/2000/svg">
<path fill-rule="evenodd" clip-rule="evenodd" d="M183.426 127.544C180.409 127.84 177.392 128.136 174.376 128.432C159.927 129.537 145.485 131.843 131.147 133.227C130.79 132.646 130.092 132.742 129.667 133.145C128.237 133.02 126.633 131.926 125.337 133.064C125.295 133.058 125.253 133.051 125.211 133.047C122.903 128.617 121.308 123.891 119.76 119.159C118.772 116.25 117.443 113.434 114.986 111.48C110.794 108.569 101.188 102.665 96.2647 102.914C96.1827 102.032 95.7727 101.123 95.0977 100.536C96.5847 98.0001 90.6387 96.3451 90.2197 96.6391C90.4887 88.1671 86.5047 80.8091 77.7207 79.1211C69.8507 77.4811 58.6567 77.2052 54.4247 85.4332C53.9587 85.3812 49.2037 85.3562 48.7427 85.4072C48.0277 84.5012 40.1706 93.0911 43.3907 96.0811C14.6009 108.822 -1.76911 107.301 -9.73771 143.119C-10.815 146.483 -10.8935 150.165 -12.031 153.455C-16.0782 162.909 -19.3608 172.976 -20.1777 183.263C-22.1508 183.768 -22.3778 187.249 -20.0923 187.752C-19.2193 187.945 -18.4893 188.208 -17.8527 188.706C-18.3503 197.136 -16.3123 216.393 -15.0282 216.334C-12.4098 224.67 -0.730607 227.023 7.53789 224.093C6.11249 226.776 7.53789 228.462 7.53789 229.896C37.2901 231.022 69.8207 230.373 99.5647 231.918C103.37 231.864 107.372 232.853 111.125 232.283C113.413 231.734 113.417 228.135 111.096 227.689L121.239 225.485C121.012 225.4 125.42 222.467 128.752 216.986C131.853 210.855 129.742 203.454 131.147 196.784C142.122 195.886 153.277 195.502 164.131 193.643C165.611 198.073 172.018 192.775 174.054 190.644C174.051 190.641 174.049 190.638 174.046 190.634C175.032 190.365 175.822 189.441 175.849 188.347C176.54 187.359 176.685 185.966 176.022 185.012C179.06 167.476 183.691 149.572 185.365 131.872C185.956 131.741 186.514 131.482 186.986 131.082L186.948 131.044C187.748 130.151 187.904 128.61 186.569 127.851C185.493 127.239 184.594 127.429 183.426 127.544Z" fill="white"/>
<path fill-rule="evenodd" clip-rule="evenodd" d="M54.9727 83.5223C55.8697 81.2683 58.8997 82.1453 58.5617 84.5123C58.3597 85.9303 57.5827 87.4283 56.8857 88.6713C56.3177 89.6833 55.6697 90.6703 54.7917 91.4283C56.3557 92.8883 57.9777 94.2943 59.6417 95.6283C61.4577 97.0853 63.3667 98.4273 65.3407 99.6613C67.0707 100.743 68.8797 101.702 70.5107 102.937C72.0277 104.085 73.4087 105.465 74.1117 107.267C74.8607 109.186 74.5357 111.168 73.9837 113.086L73.9207 113.303C73.3577 115.203 72.3817 117.493 73.7347 119.284C74.4227 120.195 75.4237 120.84 76.2877 121.569C77.0567 122.217 77.7777 122.921 78.4387 123.677C79.8807 125.326 81.0537 127.182 81.7937 129.249L81.8597 129.437C82.4937 131.267 82.9577 133.509 82.1007 135.306C81.8547 135.821 81.0617 135.654 80.9237 135.152C80.6117 134.016 80.6287 132.826 80.3677 131.674C80.0957 130.475 79.6437 129.338 79.0527 128.262C77.9107 126.18 76.3637 124.401 74.5347 122.898L73.9877 122.453C72.5617 121.282 71.2517 120.04 70.9617 118.102C70.6527 116.029 71.4827 114.054 72.0167 112.092C72.3887 110.724 72.5097 109.414 72.1077 108.178C71.6167 108.98 70.9467 109.741 70.4167 110.42C69.3607 111.773 68.2957 113.118 67.2327 114.465C66.1427 115.846 65.0797 117.249 64.0677 118.689C63.6147 119.333 63.1667 119.981 62.7207 120.629C62.3847 121.116 61.9167 121.603 61.5507 122.1C61.6397 122.366 61.6327 122.673 61.4717 122.891C59.5317 125.513 56.7707 120.041 56.0507 118.658C54.5847 115.842 53.4937 112.851 52.0217 110.036C50.4977 107.117 48.7617 104.277 46.8277 101.612C45.6577 100.001 44.3457 98.4873 43.2757 96.8243C40.7533 99.1123 37.4348 100.646 34.3866 102.036C31.0375 103.564 27.5581 104.812 24.1243 106.138L23.11 106.532C17.1935 108.842 11.1324 111.379 6.21466 115.482C0.435864 120.304 -2.98284 127.024 -5.52804 133.983C-8.45784 141.994 -10.8817 150.221 -13.1412 158.444C-14.2975 162.651 -15.3946 166.877 -16.426 171.116C-17.3349 174.851 -18.0883 178.623 -19.1404 182.32C-17.0066 182.244 -14.573 183.071 -12.7512 183.309C-4.44864 184.396 3.74216 186.129 11.5809 189.13C12.5491 189.501 12.8293 190.468 12.6184 191.252C13.1768 191.095 13.7348 190.935 14.2931 190.778C13.6814 189.84 13.9734 188.164 14.0215 187.124L14.0244 187.053C14.0738 185.668 14.2241 184.281 14.3214 182.899C14.5069 180.264 14.7484 177.648 15.0694 175.027L15.1513 174.372C15.5151 171.522 15.7841 168.654 16.181 165.808L16.2279 165.483C16.0376 164.755 15.816 164.035 15.5834 163.319C14.9635 161.412 14.0886 159.616 13.3219 157.769C13.2315 157.552 13.5412 157.427 13.686 157.557C14.9844 158.726 16.0158 160.208 16.8444 161.758C16.8588 161.685 16.8715 161.612 16.8865 161.539L16.981 161.073C17.2142 159.938 17.4978 158.743 18.194 157.822C18.2681 157.725 18.4148 157.704 18.4849 157.822C19.1512 158.95 19.2258 160.379 19.3283 161.663C19.4443 163.114 19.4588 164.585 19.4384 166.041C19.3984 168.886 19.1979 171.74 19.0382 174.58C18.8815 177.372 18.5738 180.128 18.1773 182.892L18.1019 183.411C17.908 184.726 17.7493 186.058 17.4936 187.365L17.4214 187.721C17.2847 188.369 17.2006 189.282 16.9285 190.041C23.9295 188.088 30.9412 186.179 37.9663 184.304C43.0437 182.948 48.1267 181.613 53.2067 180.269C53.4747 179.786 53.8087 179.334 54.2257 178.931C55.5977 177.601 57.4167 177.008 59.0857 178.031C59.2207 178.115 59.2327 178.327 59.0857 178.408C58.7657 178.583 58.4457 178.762 58.1307 178.949L61.1817 178.122C63.4617 177.504 65.7697 176.731 68.1037 176.3C72.4017 174.178 77.0257 172.642 81.5537 171.124L82.0867 170.943C84.4057 170.153 86.8037 169.267 89.1997 168.829C90.9537 168.508 93.0117 168.895 93.7167 170.693C94.6097 171.281 95.4497 171.973 96.2607 172.653C96.8467 173.145 97.4087 173.668 97.9797 174.177L98.0847 174.269C98.5517 174.674 98.9217 174.946 99.0367 175.591C99.0957 175.924 98.8837 176.375 98.4727 176.331C97.2157 176.196 96.1937 174.738 95.3407 173.868C94.6817 173.195 94.0177 172.499 93.4167 171.76C93.0667 171.95 92.5857 171.916 92.3627 171.493C91.2057 169.302 88.0367 170.821 86.2837 171.34L83.7717 172.084C82.5157 172.456 81.2597 172.831 80.0067 173.212C76.5617 174.258 73.1347 175.429 69.6587 176.39C69.9697 176.732 69.9267 177.34 69.3357 177.572C66.6157 178.64 63.6307 179.192 60.8037 179.925C59.0197 180.388 57.2357 180.854 55.4527 181.322C55.1477 181.818 54.9277 182.378 54.8347 183.03C54.4947 185.429 55.1507 188.197 55.7897 190.517L55.8867 190.864C56.4117 192.729 57.1847 195.016 58.7937 196.194C59.1867 196.481 59.6867 196.681 60.1907 196.726C63.3397 195.104 66.4887 193.483 69.6397 191.864C70.2237 191.565 70.7637 191.971 70.8947 192.453C72.0057 192.271 73.1137 191.983 74.1237 191.641C75.8197 191.064 77.1447 189.965 78.7347 189.205C81.8127 187.734 84.9547 189.541 87.7107 190.914L88.3457 191.226C89.5807 191.826 92.1517 192.978 92.7437 191.338C93.3177 189.751 91.5047 188.055 90.3337 187.341C88.9387 186.489 87.3127 186.034 85.7357 185.654C84.8347 185.437 83.9237 185.26 83.0067 185.131C81.9657 184.985 80.8917 185.007 79.8897 184.669C79.3927 184.502 79.3157 183.711 79.8897 183.58C81.4317 183.229 83.2717 183.612 84.8807 184.004L85.7217 184.211C87.3427 184.609 88.9797 185.108 90.4567 185.902C91.5297 186.479 92.6637 187.357 93.4037 188.43C94.0467 187.833 94.8467 187.853 95.6797 188.075L96.1327 188.2C96.8797 188.408 97.4847 188.55 98.2117 188.407C98.3087 187.878 98.4077 187.348 98.5127 186.819C99.5487 181.617 100.685 176.435 101.938 171.28C104.101 162.389 106.602 153.596 109.423 144.892L109.706 144.022C110.356 142.031 110.88 139.863 111.929 138.034C112.921 136.305 114.51 135.308 116.398 134.781C118.54 134.182 120.792 133.869 122.978 133.465C123.465 133.375 123.954 133.289 124.442 133.201C124.03 132.456 123.722 131.61 123.445 130.961L123.396 130.849C122.8 129.49 122.265 128.107 121.748 126.716L121.362 125.671C120.429 123.153 119.466 120.677 118.154 118.323C116.773 115.845 114.941 113.819 112.658 112.143C108.002 108.724 102.39 106.98 97.8737 103.326C97.6887 103.177 97.9257 102.921 98.1137 103.016C101.163 104.548 104.455 105.59 107.626 106.838L108.252 107.085C110.759 108.079 113.305 109.162 115.474 110.771C117.893 112.566 119.799 114.795 121.231 117.445C122.642 120.058 123.545 122.982 124.54 125.773L124.807 126.517C125.208 127.632 125.623 128.743 126.098 129.829C126.476 130.69 127.18 131.673 127.5 132.657C128.376 132.505 129.251 132.353 130.128 132.207C149.114 129.036 168.312 127.172 187.553 126.627C188.305 126.606 188.695 127.324 188.584 127.981C186.737 138.904 185.096 149.864 183.296 160.795C182.51 165.566 181.708 170.333 180.888 175.098C180.473 177.512 179.992 179.917 179.599 182.335C179.281 184.287 179.05 186.255 178.505 188.162C178.015 189.872 177.264 191.521 176.031 192.826C174.702 194.232 172.847 194.913 170.979 195.234C166.238 196.051 161.375 196.384 156.595 196.928L131.149 199.824C131.521 203.205 131.549 206.534 131.378 209.955L131.281 211.822C131.201 213.324 131.106 214.828 130.891 216.315C130.62 218.179 129.767 219.758 128.511 221.151C127.358 222.43 125.957 223.522 124.594 224.568C123.179 225.653 121.718 226.702 120.054 227.373L119.839 227.459C118.379 228.029 115.642 228.911 113.648 228.589C113.908 229.895 114.413 231.301 113.965 232.594C113.758 233.194 112.973 233.494 112.492 232.983C111.54 231.97 111.465 230.633 111.24 229.312C111.005 227.937 110.803 226.558 110.623 225.175C110.275 222.501 110.004 219.803 109.922 217.106C109.837 214.337 109.87 211.564 110.019 208.798C110.095 207.378 110.191 205.958 110.371 204.547C110.448 203.945 110.526 203.342 110.616 202.742C110.649 202.523 110.685 202.305 110.724 202.087L108.44 202.345C104.938 202.736 101.434 203.09 97.9067 203.144C97.4897 203.151 97.1677 202.961 96.9577 202.683C96.7347 203.048 96.3447 203.309 95.7867 203.307C90.8617 203.288 86.2747 201.677 81.7957 199.778C79.5377 198.821 77.3147 197.785 75.0527 196.835C72.9417 195.949 70.6857 195.317 68.6257 194.319L63.2127 197.159C63.1737 197.299 63.1227 197.431 63.0687 197.542C62.7157 198.261 62.0207 198.652 61.3117 198.946C60.6307 199.229 59.9247 199.316 59.2377 199.245C55.1327 201.397 51.0267 203.547 46.9177 205.692L42.8087 207.835C34.6205 212.1 26.4649 216.435 18.2255 220.599L17.6189 220.905C14.7729 222.332 11.717 223.779 8.55866 224.859C8.50246 225.659 8.53796 226.437 8.60496 227.283L8.62106 227.468C8.71526 228.468 8.91716 229.721 8.11496 230.433C7.69776 230.804 6.95236 230.805 6.66866 230.247C6.15376 229.234 6.61606 227.638 6.77916 226.538C6.83706 226.147 6.90756 225.744 7.01196 225.354C3.39126 226.433 -0.33904 226.955 -4.02364 226.35C-7.61094 225.761 -10.3893 223.5 -12.6291 220.735C-14.993 217.817 -16.6728 214.416 -17.574 210.77C-18.5997 206.622 -18.6667 202.338 -18.6426 198.089C-18.6171 193.564 -18.4497 189.017 -17.8996 184.522C-18.5024 184.38 -19.1708 184.258 -19.7799 184.3C-20.0816 184.783 -20.6668 184.986 -21.1956 184.924C-22.3455 186.192 -19.4288 187.489 -18.4966 187.814C-18.173 187.926 -18.2076 188.452 -18.5809 188.436L-18.8161 188.425C-20.2564 188.349 -21.7444 188.103 -22.5912 186.764C-23.2698 185.69 -23.0659 184.419 -22.257 183.544C-21.7227 178.49 -20.4454 173.569 -19.2566 168.639C-18.09 163.8 -16.7926 158.992 -15.4174 154.208L-14.8009 152.067C-12.6358 144.567 -10.3727 137.006 -7.38614 129.803C-5.89474 126.207 -4.17674 122.677 -1.84794 119.541C0.322861 116.618 2.88566 114.117 5.83166 111.98C11.3236 107.997 17.7677 105.59 24.0994 103.298L24.3829 103.195C27.6641 102.008 30.9372 100.806 34.181 99.5203C37.0498 98.3823 39.7982 96.9393 42.6537 95.7853C42.5607 95.6163 42.4707 95.4463 42.3847 95.2743L42.3317 95.3183C42.3227 95.3253 42.3137 95.3323 42.3047 95.3393C42.0167 95.5383 41.5944 95.4403 41.3578 95.2173C40.6897 94.5863 40.9159 93.8863 41.3618 93.2323L41.4199 93.1483C41.9657 92.3843 42.4517 91.5763 42.9557 90.7843L43.2707 90.2883C44.1157 88.9653 45.0037 87.6333 46.1307 86.5393C46.6527 86.0323 47.2237 85.6533 47.8287 85.3703C47.7767 85.2613 48.2307 85.0373 48.3597 85.1503C50.2777 84.4483 52.4837 84.5953 54.5747 84.7883M129.918 199.964L127.251 200.267C124.318 200.601 121.384 200.924 118.449 201.244L112.075 201.937C112.058 202.3 112.014 202.656 112.006 202.93C111.965 204.346 111.934 205.762 111.904 207.177C111.845 210.015 111.91 212.856 112.097 215.689C112.278 218.433 112.516 221.178 112.887 223.904L112.962 224.449L113.006 224.736C113.309 224.765 113.606 224.909 113.853 225.204C114.392 225.848 116.344 225.222 117.107 224.951C118.36 224.504 119.541 223.75 120.631 222.994C121.695 222.256 122.653 221.395 123.573 220.488L124.327 219.742C125.076 218.997 125.826 218.204 126.285 217.267C126.908 215.996 126.988 214.436 127.171 213.053C127.396 211.35 127.663 209.648 127.946 207.955M52.5187 182.096L52.2417 182.169C42.1957 184.839 32.1649 187.588 22.0881 190.141C17.1013 191.404 12.0909 192.576 7.09796 193.815L6.28956 194.017C2.35076 195.013 -1.63544 196.212 -4.65164 199.07C-4.76304 199.175 -4.92464 199.013 -4.81984 198.901C-1.56904 195.439 3.05426 193.974 7.49346 192.704C8.31406 192.469 9.13566 192.239 9.95646 192.006C3.91926 189.853 -2.21324 187.98 -8.48724 186.644C-10.1028 186.3 -11.7371 186.047 -13.3514 185.702C-14.4773 185.461 -15.5767 185.112 -16.6907 184.823L-17.5669 184.603L-17.5785 187.373C-17.5931 191.297 -17.5861 195.217 -17.386 199.141L-17.3481 199.867C-17.1147 204.233 -16.7503 208.69 -15.2015 212.807C-13.943 216.152 -11.937 219.303 -9.31374 221.74C-7.98634 222.973 -6.55924 223.932 -4.79514 224.406C-3.15714 224.846 -1.44104 224.898 0.24276 224.78C8.31926 224.217 15.5088 219.828 22.5246 216.194C34 210.25 45.4767 204.309 56.9637 198.388C56.6527 198.176 56.3607 197.931 56.0947 197.656C54.5547 196.064 53.7417 193.886 53.2087 191.776C52.6397 189.53 52.3007 187.123 52.2607 184.805M67.1347 200.682C67.2357 200.628 67.3537 200.696 67.3577 200.811C67.3937 201.688 66.9087 202.554 66.5467 203.345L66.5077 203.429C66.0677 204.409 65.5857 205.375 65.0877 206.326C64.0917 208.226 63.0567 210.106 61.9757 211.959C59.8037 215.688 57.3887 219.259 54.5357 222.506C53.8907 223.239 52.8307 222.299 53.2437 221.509C55.2387 217.703 57.5637 214.109 59.9567 210.546C61.1547 208.762 62.3517 206.977 63.5617 205.201C64.0667 204.46 64.5777 203.722 65.1027 202.995L65.4197 202.56M186.28 128.807C176.199 129.112 166.13 129.77 156.097 130.8C146.766 131.759 137.469 133.035 128.225 134.625C126.294 134.957 124.366 135.303 122.44 135.663L121.285 135.88C119.358 136.245 117.005 136.396 115.29 137.425C113.482 138.511 112.993 140.779 112.391 142.649C111.684 144.849 110.995 147.055 110.324 149.267C107.66 158.047 105.227 166.903 103.056 175.818C101.979 180.243 101.023 184.693 100.016 189.134C99.1207 193.08 98.1327 196.981 97.1017 200.887C97.2287 200.788 97.3847 200.713 97.5727 200.673C102.696 199.583 107.925 199.109 113.124 198.506L113.627 198.448C119.006 197.815 124.385 197.187 129.767 196.581L165.399 192.573C167.5 192.336 169.752 192.304 171.797 191.74C175.274 190.781 176.089 186.892 176.672 183.795L176.69 183.701C178.448 174.344 179.848 164.906 181.489 155.525M97.9307 190.01C96.5477 189.919 94.6537 188.651 93.6047 188.742C94.1557 189.667 94.4037 190.722 94.0867 191.848C93.2027 194.983 89.2057 193.361 87.2807 192.403C85.7027 191.618 84.1787 190.657 82.4307 190.289C80.4517 189.872 79.1107 190.66 77.4377 191.568C76.0647 192.313 74.5687 192.848 73.0297 193.125C72.2117 193.273 71.4347 193.289 70.6597 193.231C70.6127 193.269 70.5597 193.304 70.4997 193.336L70.0897 193.551C71.9447 193.636 73.8347 194.209 75.5607 194.733C77.3497 195.276 79.1067 195.931 80.8537 196.601L82.5717 197.262C86.8107 198.886 91.1987 200.428 95.7867 200.414C96.1167 200.413 96.3867 200.505 96.5997 200.654M90.1907 180.188C91.5577 180.02 92.8187 180.2 93.9107 181.09C95.2277 182.163 96.1127 183.943 98.0057 184.06C98.5577 184.094 98.6867 184.87 98.1377 185.033C96.7287 185.45 95.5877 184.687 94.6267 183.697L93.9817 183.022C93.0327 182.039 92.1577 181.279 90.5477 181.338C88.8227 181.401 87.0957 181.8 85.3827 182.002C83.4417 182.232 81.5017 182.427 79.5547 182.596C79.4637 182.604 79.4487 182.462 79.5337 182.441L81.7137 181.898M88.8717 174.598L89.0967 174.576C91.0817 174.383 92.8967 174.375 94.6687 175.443L95.0087 175.649C96.6067 176.621 98.3457 177.765 99.3457 179.339C99.5087 179.596 99.2387 179.899 98.9647 179.834C97.0447 179.372 95.6407 177.963 94.0257 176.908C92.2127 175.724 90.3397 175.919 88.2737 176.103C86.2727 176.281 84.2717 176.526 82.2907 176.859C80.4287 177.173 78.5607 177.667 76.6807 177.825V177.821C76.4657 177.821 76.3437 177.498 76.5627 177.388C78.4707 176.435 80.6817 175.984 82.7577 175.548M20.9146 120.612C20.9121 120.455 21.1329 120.396 21.21 120.532C22.5012 122.805 23.1762 125.591 23.8641 128.095C24.5846 130.718 25.1662 133.367 25.6886 136.036C26.7469 141.44 27.3108 146.814 27.349 152.322C27.3543 153.108 26.0736 153.318 25.9483 152.512C25.1165 147.154 24.3196 141.79 23.4815 136.434C23.0598 133.74 22.5691 131.056 22.0994 128.37M33.698 124.571C33.6029 124.257 34.0589 124.153 34.1755 124.439C36.7669 130.803 37.6445 138.014 35.9808 144.728C35.7262 145.755 34.2226 145.31 34.4146 144.296M67.1247 118.916C67.1107 118.682 67.4157 118.645 67.5307 118.806C68.7577 120.537 69.2677 122.855 71.4217 123.749C72.4977 124.196 73.7077 124.118 74.6577 124.872C75.2937 125.377 75.7807 126.173 75.3037 126.937C75.1497 127.184 74.7197 127.308 74.5107 127.04C74.2057 126.649 74.0447 126.181 73.6307 125.888C73.0467 125.475 72.2597 125.449 71.5907 125.255C70.7247 125.004 69.9617 124.564 69.3367 123.912M87.6377 90.0493C87.7647 89.9853 87.8857 90.0263 87.9667 90.1363C88.0827 90.2923 88.0687 90.4433 87.9267 90.5503C88.1157 90.9373 88.3387 91.9053 88.3707 92.0463C88.5007 92.6183 88.6377 93.1863 88.7817 93.7533C89.0717 94.8983 89.3267 96.0523 89.6167 97.1973C89.9247 98.4113 90.2917 99.6123 90.7007 100.796C90.7267 100.873 90.7557 100.951 90.7857 101.031L90.8327 101.15L90.8437 101.132C90.9267 101.001 91.0997 101.093 91.0797 101.231C91.0607 101.358 91.0347 101.484 91.0127 101.61L91.0557 101.723C91.3227 102.442 91.5057 103.2 91.0157 103.835C90.8327 104.072 90.6307 104.213 90.3797 104.254C89.9767 105.584 89.4707 106.888 88.9287 108.141L88.7707 108.507C87.9737 110.335 87.1247 112.14 85.8557 113.696C84.4717 115.395 82.5667 116.556 81.3607 118.418C80.7997 119.284 80.4087 120.194 80.0927 121.173L79.9727 121.544C79.7477 122.236 79.4887 122.906 78.8397 123.312C78.6327 123.441 78.3227 123.4 78.1557 123.224C76.8257 121.816 78.2177 119.187 79.0207 117.824C80.1357 115.929 81.7497 114.716 83.3657 113.286C85.1067 111.745 86.2187 109.683 87.2927 107.652C87.9517 106.407 88.5867 105.136 89.2557 103.886C88.5567 103.268 88.3327 102.04 88.0957 101.187L88.0747 101.11C87.6827 99.7443 87.3717 98.3423 87.1757 96.9333C86.9867 95.5793 86.9077 94.2453 86.9577 92.8833L86.9717 92.5363M90.2367 96.4943C90.0827 96.2823 90.3387 96.0423 90.5497 96.0863C91.8387 96.3533 93.0977 97.1333 94.2547 97.7643L94.3777 97.8313C95.3007 98.3293 96.2297 98.9393 96.7147 99.9063C97.2417 100.957 97.1977 102.168 97.1257 103.311L97.1197 103.418C97.0307 104.788 97.0167 106.212 96.7267 107.557C96.5787 108.246 95.9557 108.44 95.4227 108.277C94.7877 110.28 93.0067 111.756 91.7047 113.337C90.0457 115.353 90.3577 118.074 90.5317 120.501C90.6017 121.484 89.3797 121.763 88.7507 121.239L87.2997 120.034C87.0587 119.833 86.8167 119.631 86.5767 119.429C86.3707 119.255 86.1667 119.081 85.9637 118.904L85.6617 118.637C85.5277 118.516 84.9357 117.855 84.7627 117.828C84.3437 117.761 83.3477 118.866 83.0067 119.213L82.9637 119.256C82.3227 119.885 81.7427 120.562 81.2027 121.28C81.1037 121.412 80.9097 121.302 80.9807 121.15C81.4637 120.113 82.0267 119.122 82.6947 118.195L82.8297 118.01C83.2737 117.411 83.8697 116.354 84.6547 116.177C85.6117 115.961 86.5677 116.922 87.2647 117.455L87.3087 117.488C87.6407 117.737 87.9677 117.99 88.2947 118.245C88.2607 116.438 88.4887 114.612 89.4217 113.054C90.0797 111.956 91.0647 111.142 91.9077 110.199C92.8467 109.148 93.3367 107.856 94.1867 106.761C94.2957 106.62 94.4467 106.545 94.6097 106.52C94.6427 105.64 94.7727 104.752 94.8727 103.881L94.9017 103.621C95.0027 102.675 95.2417 101.52 94.7787 100.634C94.3417 99.7973 93.3387 99.2073 92.5957 98.6393L91.9887 98.1683M48.4237 86.4933C48.0357 86.7173 47.6737 86.9973 47.3447 87.3463C46.3097 88.4443 45.5687 89.8123 44.8487 91.1273C44.4607 91.8363 44.0867 92.5523 43.6957 93.2593C43.5257 93.5663 43.3507 93.8703 43.1737 94.1743C43.0917 94.3143 42.8487 94.5923 42.7287 94.7643C42.8627 94.9513 43.0007 95.1363 43.1417 95.3193C43.1957 95.3883 46.9097 99.4363 48.2047 101.02C50.1877 103.447 51.9597 106.01 53.4747 108.753C54.9577 111.439 56.0877 114.284 57.4617 117.022C58.1497 118.393 58.9177 119.755 59.8967 120.941C59.9347 120.987 59.9747 121.031 60.0137 121.077C60.3867 120.067 61.3447 118.985 61.8147 118.364L61.8587 118.306C62.9257 116.867 64.0517 115.472 65.2027 114.101C66.2547 112.848 67.3327 111.623 68.4367 110.418L68.8517 109.967C69.6207 109.136 70.5977 107.892 71.7237 107.298C71.6037 107.083 71.4637 106.87 71.3037 106.66C70.2487 105.281 68.7567 104.28 67.2847 103.377L66.3307 102.796C62.7337 100.603 59.1917 98.3083 56.0687 95.4593C54.4167 93.9513 52.7867 92.3713 51.3977 90.6133L50.9067 89.9913M54.4267 85.4073C52.7417 85.5493 50.9227 85.5153 49.3657 86.0643C50.7497 87.3733 52.0657 88.7863 53.4167 90.1173C53.5367 89.2173 53.7827 88.3283 53.9917 87.4503" fill="black"/>
<path fill-rule="evenodd" clip-rule="evenodd" d="M105.464 33.651C103.552 25.5873 99.3722 18.083 92.6792 12.0183C72.5392 -7.90058 35.5545 2.91102 35.722 32.9274C34.9997 36.4333 34.7065 40.0381 34.9456 43.6135C35.0445 45.139 35.7045 47.2679 34.8178 48.6412C32.8177 51.2092 31.6553 53.1022 32.336 56.5192C32.9048 59.5022 34.9342 61.6162 37.6731 62.7392C39.3157 63.2112 40.8742 64.2382 41.4827 65.8042C45.1392 72.5002 47.8472 78.0702 53.6112 82.6342C55.0992 83.8092 70.3532 90.8562 75.3802 90.8562C90.0952 90.8562 108.641 85.5232 108.949 69.0802C109.002 65.4692 108.369 61.8152 107.971 58.2322C107.004 50.0552 107.345 41.5826 105.464 33.651Z" fill="white"/>
<path fill-rule="evenodd" clip-rule="evenodd" d="M105.134 29.618C105.139 29.5182 105.282 29.4958 105.309 29.5943C105.856 31.5356 106.166 33.5132 106.594 35.4847C107.006 37.3836 107.395 39.2881 107.719 41.2038C108.329 44.8193 108.844 48.4443 109.323 52.0783L109.442 52.9873C110.274 59.3823 111.648 66.0443 110.446 72.4763C109.421 77.9653 105.983 82.3883 101.553 85.6313C97.3587 88.7023 92.2727 90.6733 87.2227 91.7933C81.8027 92.9963 75.3787 93.3553 70.9687 89.3793C69.2037 87.7873 71.6096 84.6282 73.5256 86.0652C78.0226 89.4372 83.7427 88.4433 88.8177 87.1013L88.9707 87.0603C93.4247 85.8733 97.9077 84.0753 101.444 81.0403C105.353 77.6853 107.286 73.0283 107.509 67.9213C107.635 65.0523 107.367 62.1863 107.079 59.3343L107.047 59.0173C106.716 55.7552 106.368 52.4943 106.048 49.2313C105.755 46.2556 105.503 43.2627 105.37 40.2737L105.308 38.7661C105.178 35.7267 105.004 32.6428 105.134 29.618ZM52.3927 4.36335C59.7107 0.552053 68.1207 -0.812048 76.2647 0.467052C84.0937 1.69675 91.2787 5.73815 96.6497 11.5332C99.2717 14.3626 101.599 17.6353 103.086 21.2107C103.825 22.9869 104.404 24.8398 104.712 26.7428C104.87 27.7212 105.026 28.7348 105.056 29.7267C105.083 30.645 104.814 31.5062 104.845 32.4398C104.85 32.5858 104.627 32.6139 104.593 32.474C104.338 31.4331 103.725 30.646 103.341 29.6573C103.053 28.9191 102.727 28.1984 102.395 27.4798L102.11 26.8641C101.283 25.0746 100.293 23.3587 99.3137 21.6489C97.3437 18.2051 94.8146 15.0754 91.8536 12.4346C86.6536 7.79795 79.9837 4.80505 73.0227 4.26605C65.7967 3.70645 58.4686 5.42935 52.2976 9.24595C46.1276 13.0623 41.4616 18.9949 39.0392 25.8256C37.817 29.2725 37.142 32.8639 36.985 36.5157C36.9056 38.3641 36.9798 40.228 37.1093 42.0729L37.1737 42.9527C37.249 44.0077 37.3007 45.0587 37.1431 46.0881C38.2561 45.7409 39.4227 45.597 40.5936 45.7688C42.3337 46.0241 43.3727 46.7376 44.1537 48.2923C44.1937 48.3743 44.1126 48.4553 44.0316 48.4143C43.0196 47.9095 41.3826 48.1754 40.3111 48.4403C39.196 48.7163 38.1917 49.1953 37.2441 49.8433C35.4912 51.0413 34.1172 52.8983 33.78 55.0283C33.454 57.0863 34.2984 59.1693 35.7169 60.6443C36.447 61.4043 37.3198 62.0603 38.2969 62.4693C39.4827 62.9663 40.6565 62.9513 41.7057 63.7713C42.3547 64.2783 42.1977 65.1463 41.7576 65.7093C43.9707 68.1373 45.9337 70.7933 48.1477 73.2303C49.1727 74.3603 50.1907 75.4912 51.1737 76.6582L51.5407 77.0973C52.5227 78.2823 54.0836 79.5342 54.5326 81.0242C54.8117 81.9512 53.8187 83.1643 52.8157 82.7413C51.2767 82.0933 50.1777 80.4073 49.1387 79.1133L49.0707 79.0293C47.9797 77.6893 47.0117 76.2733 46.1267 74.7903L45.8357 74.3023C44.2347 71.6093 42.6477 68.8163 41.6271 65.8573C41.5597 65.9263 41.4883 65.9893 41.4131 66.0433C39.9426 67.0893 37.805 66.2853 36.3365 65.6053C34.9502 64.9643 33.6792 64.0002 32.6886 62.8372C30.5341 60.3092 29.5409 57.0353 30.2605 53.7543C30.87 50.9743 32.7957 48.2703 35.3203 46.8648C34.155 45.5228 33.6724 43.7136 33.3513 41.9448C32.9414 39.687 32.8597 37.3731 32.971 35.0835C33.1931 30.5232 34.3662 26.0279 36.1798 21.8521C39.4244 14.3802 45.1607 8.13025 52.3927 4.36335ZM36.9906 54.2233C38.5266 53.9353 39.9579 53.8663 41.4393 54.5163C43.0466 55.2213 44.1777 56.3863 45.2287 57.7513C46.4247 59.3043 43.3587 61.0003 42.5857 58.9393L42.5637 58.8753C42.3567 58.2653 41.9856 57.6753 41.5158 57.1323C41.3749 57.3483 41.1865 57.5383 40.9651 57.6473C40.697 57.7793 40.2876 57.6883 40.2231 57.3453C40.1517 56.9653 40.2307 56.5043 40.45 56.1823L40.48 56.1383C39.4144 55.2813 38.1325 54.6543 36.9906 54.4523C36.8766 54.4323 36.8778 54.2443 36.9906 54.2233Z" fill="black"/>
<path fill-rule="evenodd" clip-rule="evenodd" d="M85.0821 76.4932C83.6621 75.9132 82.3951 74.9462 81.4681 73.7112C81.1461 73.2822 81.0631 72.8292 81.1301 72.4142C81.2061 71.9482 81.4821 71.5252 81.8581 71.2422C82.2351 70.9572 82.7071 70.8172 83.1631 70.8892C83.5601 70.9512 83.9541 71.1682 84.2671 71.6182L84.3321 71.7082C84.8831 72.4542 85.6001 73.0652 86.4181 73.4592C87.2061 73.8392 88.0881 74.0172 89.0001 73.9142C90.7381 73.7172 91.9351 72.7772 93.2081 71.5012C93.3661 71.3402 93.5241 71.1732 93.6821 71.0052C93.7821 70.8512 93.9211 70.7532 94.0761 70.7012C94.2471 70.6442 94.4411 70.6472 94.6191 70.7092C94.7901 70.7692 94.9431 70.8822 95.0461 71.0332C95.1431 71.1772 95.1991 71.3542 95.1811 71.5572C95.0641 72.8802 94.3731 74.0612 93.3911 74.9882C92.3001 76.0172 90.8541 76.7302 89.4931 76.9792C87.9941 77.2552 86.4661 77.0582 85.0821 76.4932ZM90.2011 56.0852C91.7961 57.0552 94.2271 59.3172 92.5111 61.7222C90.4901 63.8432 87.5821 61.4112 86.1491 60.3122C84.8201 59.4602 83.3261 61.6512 84.5591 62.6472C94.9171 70.3182 99.1201 56.3392 91.0081 54.9442C90.1141 54.7912 89.7831 55.7852 90.2011 56.0852ZM71.6411 47.1618C71.8171 44.973 75.1491 44.476 75.4811 46.6419C75.7771 48.5822 75.4281 50.3642 74.5541 52.1112C73.7201 53.7802 71.6221 53.0012 71.4631 51.4822C71.2501 49.4452 71.5311 48.5232 71.6411 47.1618ZM97.0061 46.1928C97.4711 45.5841 98.1421 45.1686 98.9451 45.4034C101.456 46.1374 100.716 49.7032 99.8341 51.4392C99.3551 52.3822 97.8061 52.6212 97.1061 51.7912C95.9661 50.4372 95.4191 47.7346 96.8701 46.4014C96.9091 46.3325 96.9531 46.263 97.0061 46.1928ZM74.5191 37.5843L74.9161 37.5149C76.1431 37.3026 77.6681 37.0986 78.5361 38.0854C78.9971 38.6087 79.1551 39.5814 78.5361 40.0823C77.4481 40.9636 76.2441 40.622 74.9401 40.6967C73.8651 40.7584 72.8321 40.9363 71.7971 41.2324C69.5251 41.8819 67.6741 43.0676 65.7341 44.3695C65.4801 44.5403 65.2201 44.2146 65.3411 43.9764C66.4611 41.7819 68.6311 39.9793 70.8051 38.8805C71.9661 38.294 73.2351 37.8075 74.5191 37.5843ZM94.7171 36.6013L95.0211 36.6634C98.3251 37.3543 102.617 38.7342 104.181 41.9805C104.241 42.4395 104.178 42.5379 104.127 42.6021L104.11 42.6235C104.067 42.6784 104.034 42.7541 103.835 42.8166C103.78 42.8034 103.724 42.7895 103.667 42.7747C102.95 42.5867 102.383 42.3277 101.834 42.059L101.238 41.7654C100.547 41.4265 99.8501 41.0999 99.1111 40.8588C97.5351 40.3444 95.9131 39.982 94.2671 39.7885C93.9101 39.7466 93.5661 39.6261 93.2951 39.4196C93.0381 39.2236 92.8411 38.9522 92.7511 38.5914C92.6351 38.1245 92.6691 37.771 92.9191 37.3498C93.1071 37.0335 93.3771 36.8143 93.6861 36.6884C94.0011 36.56 94.3601 36.5298 94.7171 36.6013Z" fill="black"/>
<path fill-rule="evenodd" clip-rule="evenodd" d="M71.3791 77.8183C73.0901 73.8093 76.8231 70.8633 81.1211 69.7853C84.2771 68.9973 87.5901 69.0223 90.8071 69.3353C92.4931 69.4983 94.3011 69.6313 95.8901 70.2583C97.2471 70.7933 98.3521 71.8043 99.1841 72.9913C100.173 74.3983 100.846 76.0082 101.319 77.6582C101.386 77.8932 101.449 78.1292 101.508 78.3672C101.302 79.6122 100.866 80.6722 99.7131 81.4552C98.5881 82.2192 97.2461 82.5322 95.9081 82.6432C95.7771 82.5802 95.6501 82.5152 95.5341 82.4492C93.4481 81.2542 91.9811 78.4323 89.3491 78.8143C87.0001 79.1553 85.4541 82.1123 84.0571 83.8453C79.5741 84.3683 75.0941 83.0202 71.4461 80.4552C71.2601 79.5782 71.2501 78.6923 71.3791 77.8183ZM104.555 74.7773C104.196 73.7703 103.745 72.7953 103.209 71.8763C101.439 68.8383 98.7221 66.4173 95.4961 65.0333C87.8641 61.7653 77.9901 64.0693 71.8271 69.4303C69.7221 71.2633 67.5931 73.9563 66.9491 76.8533C66.7571 76.8913 66.5761 76.9912 66.4261 77.1322C61.9741 74.3272 57.3881 71.6293 53.8001 67.7423C51.1951 64.9173 49.3821 61.5743 48.2721 57.9013C48.1821 57.5993 47.6941 57.6433 47.7091 57.9783C47.7131 58.0563 47.7171 58.1342 47.7221 58.2122C47.6751 58.0682 47.4561 58.1423 47.4391 58.2823C46.8421 62.7443 46.0951 67.4753 46.7831 71.9603C47.1941 74.6373 48.4101 76.5962 50.0341 78.7122C51.7751 80.9802 53.7451 83.0893 55.7601 85.1123C57.0391 86.3963 58.3741 87.8773 59.9401 88.8193C61.7611 89.9133 63.8261 90.7443 65.7701 91.5883C67.7461 92.4503 69.7531 93.2453 71.7971 93.9353C75.8841 95.3193 80.1081 96.2753 84.4061 96.6943C87.8471 97.0283 91.7801 97.3923 95.0781 96.0973C97.6051 95.1053 99.6461 93.3113 101.264 91.1533C103.026 88.8023 104.418 86.1243 105.188 83.3013C105.988 80.3683 104.724 75.2493 104.555 74.7773Z" fill="black"/>
<path fill-rule="evenodd" clip-rule="evenodd" d="M112.653 50.5722C110.639 64.2022 96.5777 65.7092 94.0797 52.1782C94.4807 52.0032 94.7687 51.6572 94.7087 50.9862C94.6947 48.037 95.6097 44.9204 98.2687 43.2805C101.017 41.5885 104.232 41.4206 107.412 41.4633C113.48 41.3188 113.353 46.3927 112.653 50.5722ZM91.8787 44.6446C89.9737 44.5643 87.5647 44.6315 85.8587 45.7922C85.3897 44.5288 84.1717 43.1797 82.9397 42.4584C87.5167 42.5924 92.2277 42.1418 96.8377 41.792C95.7347 42.5446 94.7077 43.6753 94.0407 44.9825C93.4207 44.6522 92.5337 44.683 91.8787 44.6446ZM83.4847 52.0172C78.2037 70.2012 65.0227 62.2752 63.5857 59.9452C60.9937 56.0892 60.5057 46.7145 62.7637 44.2081C65.9957 41.9416 70.5707 42.5249 74.3887 42.4694C81.4037 42.564 86.3847 44.6632 83.4847 52.0172ZM118.888 43.654C117.454 43.4663 115.92 43.4285 114.587 44.0604C114.176 42.314 112.886 40.854 111.431 40.2115C111.254 39.9904 111.281 39.8717 110.679 39.9048C106.983 38.7936 102.847 39.3815 99.2947 40.5211C93.6847 40.9937 87.7997 41.3663 82.1427 42.0175C76.8437 39.6368 60.8527 39.2879 59.8587 45.1556C58.6087 44.9686 56.4797 43.9843 55.4297 45.3194C47.7247 44.0126 39.7626 45.8288 32.0241 46.6376C30.0762 46.9965 29.0729 50.8642 31.284 50.8112C32.5271 50.4732 31.2458 48.4032 32.9197 48.2472C40.3861 47.4312 47.6887 46.2739 55.2317 46.1384C54.9697 47.4414 60.2207 47.5261 60.2987 46.7653C60.3097 46.771 60.3217 46.7748 60.3327 46.7798C59.0357 51.6172 60.2067 58.5802 62.5517 61.5802C65.8377 65.5082 74.0867 66.6352 77.7437 64.1072C82.4617 61.7752 87.3707 50.0662 85.9917 46.1756C88.4937 45.3822 90.9677 45.6204 93.5647 46.0245C92.9697 47.7045 91.9437 51.8402 93.4207 52.1992C93.1497 60.4102 100.619 65.5332 107.505 62.1652C113.466 59.3662 115.55 50.5062 114.821 45.1292C115.563 46.5634 121.792 45.002 118.888 43.654Z" fill="black"/>
</svg>
