<svg width="166" height="233" viewBox="0 0 166 233" fill="none" xmlns="http://www.w3.org/2000/svg">
<path fill-rule="evenodd" clip-rule="evenodd" d="M163.638 231.532C167.72 231.335 166.078 224.19 165.785 221.566C162.553 211.983 163.313 201.527 162.041 191.482C161.249 182.105 160.231 172.757 159.375 163.387C157.694 144.366 145.621 105.646 131.843 99.4194C130.107 91.8014 122.939 84.6894 113.869 84.6894C107.683 77.3644 100.238 72.2094 90.6879 73.2504C86.7409 73.4294 82.9139 77.6174 79.1319 78.4254C77.0149 78.7174 58.2248 77.9654 54.4609 80.2024C51.839 81.5484 49.4722 84.0374 50.2431 87.2054C51.4731 91.0444 47.6507 86.8914 39.6768 90.9884C23.4169 100.757 33.1331 113.826 33.5637 114.231C23.4169 128.354 14.5482 139.812 10.4447 157.074C7.78534 169.89 8.08474 183.121 5.85644 196.002C5.06974 200.469 3.86274 204.783 2.55664 209.121C1.14114 214.797 0.45294 228.946 -0.32726 229.072C-1.74846 229.425 0.494042 232.345 1.99994 232.347C43.7515 239.275 86.1609 232.634 128.137 231.549C139.966 231.137 151.809 231.042 163.638 231.532Z" fill="white"/>
<path fill-rule="evenodd" clip-rule="evenodd" d="M100.356 115.477C100.375 115.286 100.633 115.287 100.653 115.477L100.948 118.324C101.306 121.801 101.651 125.271 101.902 128.764C102.214 133.119 102.423 137.474 102.523 141.84C102.874 157.043 102.944 172.255 102.973 187.463C105.029 187.321 107.085 187.184 109.142 187.051C110.538 186.961 111.933 186.874 113.329 186.789L116.889 186.573L118.354 186.483C119.344 186.422 120.469 186.172 121.162 187.05C121.439 187.401 121.578 187.858 121.319 188.275C120.723 189.237 119.808 189.203 118.773 189.245C117.796 189.284 116.819 189.323 115.842 189.36C113.748 189.442 111.655 189.519 109.561 189.577C107.363 189.639 105.167 189.689 102.97 189.726C102.948 196.147 102.682 202.559 102.395 208.972L102.265 211.858C101.914 219.662 101.536 227.473 100.999 235.267C100.955 235.905 100.053 235.904 100.009 235.267C99.4045 226.49 99.0055 217.694 98.6105 208.905C98.3235 202.532 98.1565 196.158 98.0775 189.783C97.7865 189.785 97.4965 189.789 97.2065 189.79C88.9615 189.826 80.7185 189.862 72.4725 189.785C72.4865 189.801 72.5005 189.817 72.5095 189.839C73.1055 191.248 73.1625 193.046 73.1485 194.558C73.1315 196.293 72.8975 198.006 72.4985 199.692C71.0685 205.735 67.3785 211.146 63.1755 215.621L63.0383 215.766C62.047 216.814 60.9098 217.867 60.3011 219.201C59.6794 220.564 59.4636 222.158 59.1568 223.623L59.121 223.791L57.9214 229.334C57.5403 231.094 57.4321 233.662 56.039 234.932C54.7393 236.117 53.0175 235.498 52.4058 233.972C51.9282 232.781 52.4039 231.473 52.6868 230.283L54.9033 220.963C55.2674 219.443 55.6654 217.913 56.4514 216.547C57.2565 215.149 58.4369 214.135 59.6413 213.098C61.922 211.133 64.0156 208.885 65.7865 206.45C67.5565 204.016 69.0685 201.333 70.1295 198.512C70.6605 197.1 71.0965 195.632 71.3965 194.153C71.6815 192.75 71.6795 191.296 71.9845 189.908C72.0055 189.812 72.0865 189.746 72.1795 189.717C72.1575 189.655 72.1905 189.571 72.2775 189.566L79.0205 189.132C85.0145 188.745 91.0085 188.349 96.9965 187.895L98.0555 187.819C97.9725 179.313 98.0425 170.806 98.1965 162.297C98.3365 154.494 98.3395 146.689 98.5715 138.887C98.6875 135.015 98.9355 131.152 99.2125 127.288C99.4955 123.336 99.9485 119.417 100.356 115.477ZM37.041 160.72C36.9691 160.287 37.514 160.018 37.7652 160.415C40.6365 164.942 42.021 169.86 42.6045 175.159C43.12 179.835 42.9681 184.578 42.7114 189.267C42.4376 194.267 42.1181 199.266 41.7951 204.264L41.2988 211.928L40.0534 231.142C39.9643 232.516 39.6524 233.766 38.4695 234.405C38.3198 234.53 38.1636 234.642 37.9817 234.74C37.3426 235.081 36.495 234.909 36.1255 234.253L36.2737 234.35C36.4027 234.432 36.2578 234.318 35.8388 234.01L35.4833 233.55C35.2249 233.161 35.0599 232.779 34.9936 232.318C34.8905 231.6 35.024 230.813 35.0709 230.092L35.8872 217.493C36.5221 207.698 37.2634 197.906 37.8222 188.107C38.0825 183.539 38.2648 178.968 38.1414 174.392C38.0185 169.842 37.7867 165.215 37.041 160.72ZM61.8805 76.3802L62.0398 76.3532C67.7435 75.4052 73.9445 75.5832 79.1565 78.3332C79.1995 78.3552 79.1805 78.4272 79.1315 78.4252L77.4545 78.3582C72.1435 78.1502 66.8485 78.0272 61.6264 79.2752L61.0918 79.4042C59.2111 79.8632 57.2472 80.4252 55.7367 81.6672C54.2929 82.8552 53.5739 84.6872 52.8826 86.3742L52.7902 86.5972C52.0888 88.2622 51.2011 89.8422 49.6638 90.8842C47.6726 92.2332 45.2779 92.0682 42.9947 92.2512C38.9747 92.5742 35.688 95.4892 34.0528 99.0552C33.0626 101.215 32.6402 103.636 32.5566 105.998C32.5137 107.2 32.5076 108.449 32.6677 109.644C32.7188 110.026 33.1908 111.417 33.4314 111.384C33.9662 111.309 34.455 111.588 34.6217 112.016C35.9426 110.739 37.3014 109.5 38.7041 108.304C42.2003 105.326 45.9662 102.626 49.9321 100.307C52.9589 98.5362 56.1516 96.7822 59.4577 95.4552C59.1957 95.4502 58.9374 95.5022 58.6874 95.6322C58.578 95.6892 58.4692 95.5522 58.5556 95.4612C59.5969 94.3652 60.8443 94.2092 62.1017 94.5012C62.37 94.4162 62.6386 94.3332 62.9081 94.2552C63.0423 94.2162 63.1091 94.4012 62.9996 94.4722L62.6907 94.6692C64.0625 95.1292 65.4093 96.0332 66.4755 96.7462C69.5385 98.7932 72.2345 101.297 74.9675 103.753L75.4645 104.199C77.8705 106.348 80.3365 108.436 83.0705 110.159C84.5005 111.062 86.0035 111.896 87.5795 112.517C88.9315 113.05 91.1325 113.385 91.7665 114.815C92.3285 115.499 92.0935 116.371 91.4345 116.832C90.3225 118.056 88.0995 117.265 86.7745 116.755C85.1775 116.141 83.6305 115.402 82.1545 114.536C79.2905 112.853 76.6485 110.762 74.1885 108.537C71.6185 106.213 69.1955 103.744 66.6955 101.347C65.6125 100.308 64.5549 99.2452 63.4704 98.2082L62.9257 97.6922C62.3722 97.1732 61.5835 96.3632 60.7403 95.8732C59.1518 96.8212 57.5388 97.7302 55.9646 98.7032C53.7672 100.06 51.6345 101.515 49.5347 103.018C45.4923 105.912 41.6616 109.153 38.1053 112.626C31.5831 118.997 26.0263 126.272 21.172 133.974L20.8034 134.561C18.0449 138.97 15.4363 143.521 13.5867 148.393C11.5515 153.754 10.5617 159.391 10.024 165.082C9.49039 170.732 9.31039 176.41 8.71399 182.055C8.10239 187.844 6.89729 193.505 5.52659 199.156L5.19969 200.495C3.95939 205.556 2.67929 210.617 2.04169 215.797C1.70139 218.564 1.49669 221.369 1.54289 224.158C1.58939 226.964 2.03009 229.707 2.38569 232.483C2.52189 233.547 1.47569 234.434 0.539592 234.575C-0.537008 234.737 -1.46191 234.05 -1.79661 233.05C-2.83981 229.931 -3.02931 226.483 -2.99661 223.209C-2.96361 219.886 -2.53961 216.584 -1.94301 213.318C-0.769609 206.893 1.04119 200.602 2.55599 194.254C3.89099 188.659 4.78689 183.054 5.26989 177.323C5.77119 171.376 6.07139 165.41 6.98599 159.506C7.88879 153.678 9.58739 148.111 12.149 142.797C14.4814 137.958 17.3888 133.404 20.437 128.989C24.1386 123.629 28.2041 118.528 32.7484 113.88C32.3402 113.862 31.9211 113.73 31.5362 113.49C30.3586 112.755 29.8101 111.318 29.6415 110.006C29.2469 106.935 29.3421 103.73 30.1314 100.728C31.4048 95.8862 34.7094 91.5832 39.4988 89.8382C40.7316 89.3882 42.0421 89.2242 43.3486 89.1922C44.5883 89.1612 45.9423 89.3232 47.1385 88.9302C49.0425 88.3032 49.8586 86.0602 50.5735 84.3602L50.6064 84.2822C51.5231 82.1152 52.6234 80.2572 54.6089 78.9042C56.7272 77.4602 59.3813 76.8042 61.8805 76.3802ZM116.07 84.9502C117.783 84.3552 119.926 84.8952 121.602 85.4142C123.469 85.9932 125.195 87.0602 126.674 88.3262C128.235 89.6622 129.524 91.3112 130.436 93.1542L130.523 93.3312C131.355 95.0412 132.303 97.3872 131.883 99.2652C131.871 99.3182 131.857 99.3692 131.842 99.4192C135.242 101.094 138.382 103.191 141.117 105.849C144.301 108.945 146.998 112.467 149.279 116.272C158.341 131.385 159.936 149.536 161.007 166.771L161.273 171.141C161.855 180.578 162.535 189.992 164.301 199.298L164.43 199.97C166.319 209.714 169.022 219.532 168.748 229.528C168.666 232.523 164.242 232.502 164.113 229.528C163.63 218.332 161.019 207.522 159.25 196.501C156.138 177.112 157.698 157.122 153.288 137.927C151.558 130.394 148.878 123.087 145.05 116.363C143.16 113.041 140.996 109.831 138.463 106.966C136.282 104.5 134.017 102.127 131.469 100.054C130.655 100.87 129.028 100.454 128.603 99.2652C128.311 98.4472 128.396 97.4922 128.209 96.6362C128.035 95.8412 127.795 95.0542 127.476 94.3052C126.839 92.8142 125.904 91.3822 124.825 90.1762C123.66 88.8712 122.32 87.7872 120.821 86.8922C119.312 85.9912 117.661 85.7222 116.07 85.0642C116.016 85.0422 116.011 84.9702 116.07 84.9502ZM122.728 188.573C122.731 188.495 122.823 188.458 122.88 188.51C123.481 189.063 123.844 189.857 124.287 190.538C124.797 191.322 125.332 192.091 125.894 192.839C127.019 194.339 128.271 195.752 129.534 197.137C130.708 198.425 131.96 199.659 133.258 200.822C134.665 202.082 136.241 203.206 137.519 204.602C140.185 207.513 140.616 211.509 141.179 215.261L141.241 215.667C141.584 217.894 141.891 220.127 142.168 222.363C142.303 223.45 142.437 224.539 142.547 225.629L142.581 225.975C142.679 227.042 142.705 228.125 142.092 229.058C141.436 230.056 139.945 230.405 139.058 229.449C137.535 227.805 137.821 224.885 137.622 222.771C137.459 221.022 137.273 219.276 137.065 217.532L136.959 216.66C136.714 214.677 136.515 212.653 136.062 210.704C135.662 208.988 134.9 207.692 133.649 206.448C132.39 205.196 131.081 204.026 129.918 202.677C128.685 201.246 127.573 199.712 126.571 198.111C125.713 196.742 125.026 195.251 124.397 193.762L124.292 193.514C123.684 192.063 122.68 190.173 122.728 188.573ZM144.724 126.216C144.737 126.013 145.036 126.01 145.04 126.216C145.078 127.957 145.115 129.699 145.151 131.441C145.441 145.475 145.262 159.542 146.67 173.528C147.334 180.122 148.556 186.619 149.97 193.09C150.694 196.401 151.453 199.703 152.175 203.015C152.878 206.242 153.632 209.485 154.19 212.742C154.738 215.943 155.229 219.169 155.449 222.411L155.476 222.834C155.571 224.405 156.024 226.715 155.159 228.107C154.223 229.615 152.429 229.642 151.425 228.202C150.483 226.851 150.717 224.446 150.551 222.834C150.382 221.191 150.203 219.547 149.999 217.908C149.603 214.711 149.08 211.521 148.537 208.346C147.405 201.733 145.764 195.204 144.552 188.601C143.31 181.836 142.428 175.023 142.39 168.135C142.353 161.189 143.088 154.256 143.459 147.324C143.836 140.285 144.265 133.25 144.724 126.216ZM78.4535 82.5652C78.8305 81.2962 80.1595 80.5032 81.4565 80.8592C82.6445 81.1862 83.6255 82.6292 83.1615 83.8632C82.6545 85.2102 81.7685 86.3592 81.0215 87.5842C80.3315 88.7152 79.3245 89.6062 78.6215 90.7172L79.3965 91.5522C79.7835 91.9692 80.1725 92.3832 80.5655 92.7902L81.9165 94.1902C82.9685 95.2782 84.0275 96.3602 85.1155 97.4112C88.3175 100.5 91.5685 103.487 95.1535 106.132C95.9695 106.734 96.7925 107.333 97.6375 107.893L97.9535 108.102C98.5335 108.482 99.1805 108.856 99.8815 108.791C101.583 108.635 103.122 106.826 104.292 105.7L104.353 105.641C107.253 102.881 109.938 99.8642 112.285 96.6192C112.806 95.8982 113.311 95.1652 113.803 94.4232C112.668 93.0972 112.939 90.5082 112.876 88.9002C112.832 87.7692 112.829 86.6382 112.823 85.5062L112.819 85.2782C112.806 84.5452 112.773 83.8422 113.248 83.2402C113.275 83.2052 113.333 83.2062 113.368 83.2242C114.019 83.5652 114.219 84.1372 114.497 84.7772L114.526 84.8442C114.864 85.6132 115.188 86.3892 115.515 87.1632C115.858 87.9732 116.173 88.7952 116.491 89.6142C116.64 89.9952 116.781 90.3782 116.919 90.7632C117.004 91.0092 117.091 91.2532 117.181 91.4982L117.202 91.5162C117.32 91.6172 117.42 91.7232 117.507 91.8322C117.87 92.0142 118.159 92.3452 118.294 92.8322C118.589 93.8912 117.979 94.7542 117.435 95.5952C115.225 99.0102 112.706 102.265 109.906 105.217C108.515 106.684 107.052 108.085 105.528 109.414L105.262 109.644C103.894 110.821 102.408 111.935 100.581 112.21C98.4425 112.532 96.7025 111.468 95.0645 110.243L94.9015 110.12C93.3495 108.944 91.8285 107.728 90.3555 106.455C87.3515 103.861 84.4935 101.075 81.9575 98.0192C79.4905 95.0462 77.0515 91.7222 75.5305 88.1442C75.4385 87.9272 75.6815 87.6982 75.8725 87.8802C76.6155 88.5882 77.3305 89.3342 78.0365 90.0892C78.0565 88.9772 77.8515 87.8562 77.9655 86.7372C78.1045 85.3772 78.0645 83.8742 78.4535 82.5652Z" fill="black"/>
<path fill-rule="evenodd" clip-rule="evenodd" d="M129.056 30.651C127.144 22.5873 122.964 15.083 116.271 9.01832C96.131 -10.9006 59.1463 -0.0889778 59.3138 29.9274C58.5915 33.4333 58.2983 37.0381 58.5374 40.6135C58.6363 42.139 59.2963 44.2679 58.4096 45.6412C56.4095 48.2092 55.2471 50.1022 55.9278 53.5192C56.4966 56.5022 58.526 58.6162 61.2649 59.7392C62.9075 60.2112 64.466 61.2382 65.0745 62.8042C68.731 69.5002 71.439 75.0702 77.203 79.6342C78.691 80.8092 93.945 87.8562 98.972 87.8562C113.687 87.8562 132.233 82.5232 132.541 66.0802C132.594 62.4692 131.961 58.8152 131.563 55.2322C130.596 47.0552 130.937 38.5826 129.056 30.651Z" fill="white"/>
<path fill-rule="evenodd" clip-rule="evenodd" d="M128.725 26.618C128.73 26.5182 128.873 26.4958 128.9 26.5943C129.447 28.5356 129.757 30.5132 130.185 32.4847C130.597 34.3836 130.986 36.2881 131.31 38.2038C131.92 41.8193 132.435 45.4443 132.914 49.0783L133.033 49.9873C133.865 56.3823 135.239 63.0443 134.037 69.4763C133.012 74.9653 129.574 79.3883 125.144 82.6313C120.95 85.7023 115.864 87.6733 110.814 88.7933C105.394 89.9963 98.9705 90.3553 94.5605 86.3793C92.7955 84.7873 95.2014 81.6282 97.1174 83.0652C101.614 86.4372 107.334 85.4433 112.409 84.1013L112.562 84.0603C117.016 82.8733 121.499 81.0753 125.035 78.0403C128.944 74.6853 130.877 70.0283 131.1 64.9213C131.226 62.0523 130.958 59.1863 130.67 56.3343L130.638 56.0173C130.307 52.7552 129.959 49.4943 129.639 46.2313C129.346 43.2556 129.094 40.2627 128.961 37.2737L128.899 35.7661C128.769 32.7267 128.595 29.6428 128.725 26.618ZM75.9844 1.36335C83.3024 -2.44795 91.7125 -3.81205 99.8565 -2.53295C107.685 -1.30325 114.87 2.73815 120.241 8.53315C122.863 11.3626 125.19 14.6353 126.677 18.2107C127.416 19.9869 127.995 21.8398 128.303 23.7428C128.461 24.7212 128.617 25.7348 128.647 26.7267C128.674 27.645 128.405 28.5062 128.436 29.4398C128.441 29.5858 128.218 29.6139 128.184 29.474C127.929 28.4331 127.316 27.646 126.932 26.6573C126.644 25.9191 126.318 25.1984 125.986 24.4798L125.701 23.8641C124.874 22.0746 123.884 20.3587 122.905 18.6489C120.935 15.2051 118.406 12.0754 115.445 9.43455C110.245 4.79795 103.575 1.80505 96.6145 1.26605C89.3885 0.706452 82.0604 2.42935 75.8894 6.24595C69.7194 10.0623 65.0534 15.9949 62.631 22.8256C61.4088 26.2725 60.7338 29.8639 60.5768 33.5157C60.4974 35.3641 60.5716 37.228 60.7011 39.0729L60.7655 39.9527C60.8408 41.0077 60.8925 42.0587 60.7349 43.0881C61.8479 42.7409 63.0145 42.597 64.1854 42.7688C65.9255 43.0241 66.9644 43.7376 67.7454 45.2923C67.7854 45.3743 67.7044 45.4553 67.6234 45.4143C66.6114 44.9095 64.9744 45.1754 63.9029 45.4403C62.7878 45.7163 61.7834 46.1953 60.8358 46.8433C59.0829 48.0413 57.709 49.8983 57.3718 52.0283C57.0458 54.0863 57.8902 56.1693 59.3087 57.6443C60.0388 58.4043 60.9116 59.0603 61.8887 59.4693C63.0745 59.9663 64.2483 59.9513 65.2975 60.7713C65.9465 61.2783 65.7895 62.1463 65.3494 62.7093C67.5625 65.1373 69.5255 67.7933 71.7395 70.2303C72.7645 71.3603 73.7825 72.4912 74.7655 73.6582L75.1325 74.0973C76.1145 75.2823 77.6754 76.5342 78.1244 78.0242C78.4034 78.9512 77.4105 80.1643 76.4075 79.7413C74.8685 79.0933 73.7694 77.4073 72.7304 76.1133L72.6624 76.0293C71.5714 74.6893 70.6034 73.2733 69.7184 71.7903L69.4274 71.3023C67.8264 68.6093 66.2395 65.8163 65.2189 62.8573C65.1515 62.9263 65.08 62.9893 65.0048 63.0433C63.5343 64.0893 61.3967 63.2853 59.9282 62.6053C58.5419 61.9643 57.271 61.0002 56.2804 59.8372C54.1259 57.3092 53.1327 54.0353 53.8523 50.7543C54.4618 47.9743 56.3875 45.2703 58.9121 43.8648C57.7468 42.5228 57.2641 40.7136 56.943 38.9448C56.5331 36.687 56.4514 34.3731 56.5627 32.0835C56.7848 27.5232 57.9579 23.0279 59.7715 18.8521C63.0161 11.3802 68.7524 5.13025 75.9844 1.36335ZM60.5824 51.2233C62.1184 50.9353 63.5497 50.8663 65.0311 51.5163C66.6384 52.2213 67.7695 53.3863 68.8205 54.7513C70.0165 56.3043 66.9504 58.0003 66.1774 55.9393L66.1555 55.8753C65.9485 55.2653 65.5774 54.6753 65.1076 54.1323C64.9667 54.3483 64.7782 54.5383 64.5568 54.6473C64.2887 54.7793 63.8794 54.6883 63.8149 54.3453C63.7435 53.9653 63.8225 53.5043 64.0418 53.1823L64.0717 53.1383C63.0061 52.2813 61.7243 51.6543 60.5824 51.4523C60.4684 51.4323 60.4696 51.2443 60.5824 51.2233Z" fill="black"/>
<path fill-rule="evenodd" clip-rule="evenodd" d="M108.674 73.4932C107.254 72.9132 105.987 71.9462 105.06 70.7112C104.738 70.2822 104.655 69.8292 104.722 69.4142C104.798 68.9482 105.074 68.5252 105.45 68.2422C105.827 67.9572 106.299 67.8172 106.755 67.8892C107.152 67.9512 107.546 68.1682 107.859 68.6182L107.924 68.7082C108.475 69.4542 109.192 70.0652 110.01 70.4592C110.798 70.8392 111.68 71.0172 112.592 70.9142C114.33 70.7172 115.527 69.7772 116.8 68.5012C116.958 68.3402 117.116 68.1732 117.274 68.0052C117.374 67.8512 117.513 67.7532 117.668 67.7012C117.839 67.6442 118.033 67.6472 118.211 67.7092C118.382 67.7692 118.535 67.8822 118.638 68.0332C118.735 68.1772 118.791 68.3542 118.773 68.5572C118.656 69.8802 117.965 71.0612 116.983 71.9882C115.892 73.0172 114.446 73.7302 113.085 73.9792C111.586 74.2552 110.058 74.0582 108.674 73.4932ZM113.793 53.0852C115.388 54.0552 117.819 56.3172 116.103 58.7222C114.082 60.8432 111.174 58.4112 109.741 57.3122C108.412 56.4602 106.918 58.6512 108.151 59.6472C118.509 67.3182 122.712 53.3392 114.6 51.9442C113.706 51.7912 113.375 52.7852 113.793 53.0852ZM95.2329 44.1618C95.4089 41.973 98.7409 41.476 99.0729 43.6419C99.3689 45.5822 99.0199 47.3642 98.1459 49.1112C97.3119 50.7802 95.2139 50.0012 95.0549 48.4822C94.8419 46.4452 95.1229 45.5232 95.2329 44.1618ZM120.598 43.1928C121.063 42.5841 121.734 42.1686 122.537 42.4034C125.048 43.1374 124.308 46.7032 123.426 48.4392C122.947 49.3822 121.398 49.6212 120.698 48.7912C119.558 47.4372 119.011 44.7346 120.462 43.4014C120.501 43.3325 120.545 43.263 120.598 43.1928ZM98.1109 34.5843L98.5079 34.5149C99.7349 34.3026 101.26 34.0986 102.128 35.0854C102.589 35.6087 102.747 36.5814 102.128 37.0823C101.04 37.9636 99.8359 37.622 98.5319 37.6967C97.4569 37.7584 96.4239 37.9363 95.3889 38.2324C93.1169 38.8819 91.2659 40.0676 89.3259 41.3695C89.0719 41.5403 88.8119 41.2146 88.9329 40.9764C90.0529 38.7819 92.2229 36.9793 94.3969 35.8805C95.5579 35.294 96.8269 34.8075 98.1109 34.5843ZM118.309 33.6013L118.613 33.6634C121.917 34.3543 126.209 35.7342 127.773 38.9805C127.833 39.4395 127.77 39.5379 127.719 39.6021L127.702 39.6235C127.659 39.6784 127.626 39.7541 127.427 39.8166C127.372 39.8034 127.316 39.7895 127.259 39.7747C126.542 39.5867 125.975 39.3277 125.426 39.059L124.83 38.7654C124.139 38.4265 123.442 38.0999 122.703 37.8588C121.127 37.3444 119.505 36.982 117.859 36.7885C117.502 36.7466 117.158 36.6261 116.887 36.4196C116.63 36.2236 116.433 35.9522 116.343 35.5914C116.227 35.1245 116.261 34.771 116.511 34.3498C116.699 34.0335 116.969 33.8143 117.278 33.6884C117.593 33.56 117.952 33.5298 118.309 33.6013Z" fill="black"/>
<path fill-rule="evenodd" clip-rule="evenodd" d="M94.9709 74.8183C96.6819 70.8093 100.415 67.8633 104.713 66.7853C107.869 65.9973 111.182 66.0223 114.399 66.3353C116.085 66.4983 117.893 66.6313 119.482 67.2583C120.839 67.7933 121.944 68.8043 122.776 69.9913C123.765 71.3983 124.438 73.0082 124.911 74.6582C124.978 74.8932 125.041 75.1292 125.1 75.3672C124.894 76.6122 124.458 77.6722 123.305 78.4552C122.18 79.2192 120.838 79.5322 119.5 79.6432C119.369 79.5802 119.242 79.5152 119.126 79.4492C117.04 78.2542 115.573 75.4323 112.941 75.8143C110.592 76.1553 109.046 79.1123 107.649 80.8453C103.166 81.3683 98.6859 80.0202 95.0379 77.4552C94.8519 76.5782 94.8419 75.6923 94.9709 74.8183ZM128.147 71.7773C127.788 70.7703 127.337 69.7953 126.801 68.8763C125.031 65.8383 122.314 63.4173 119.088 62.0333C111.456 58.7653 101.582 61.0693 95.4189 66.4303C93.3139 68.2633 91.1849 70.9563 90.5409 73.8533C90.3489 73.8913 90.1679 73.9912 90.0179 74.1322C85.5659 71.3272 80.9799 68.6293 77.3919 64.7423C74.7869 61.9173 72.9739 58.5743 71.8639 54.9013C71.7739 54.5993 71.2859 54.6433 71.3009 54.9783C71.3049 55.0563 71.3089 55.1342 71.3139 55.2122C71.2669 55.0682 71.0479 55.1423 71.0309 55.2823C70.4339 59.7443 69.6869 64.4753 70.3749 68.9603C70.7859 71.6373 72.0019 73.5962 73.6259 75.7122C75.3669 77.9802 77.3369 80.0893 79.3519 82.1123C80.6309 83.3963 81.9659 84.8773 83.5319 85.8193C85.3529 86.9133 87.4179 87.7443 89.3619 88.5883C91.3379 89.4503 93.3449 90.2453 95.3889 90.9353C99.4759 92.3193 103.7 93.2753 107.998 93.6943C111.439 94.0283 115.372 94.3923 118.67 93.0973C121.197 92.1053 123.238 90.3113 124.856 88.1533C126.618 85.8023 128.01 83.1243 128.78 80.3013C129.58 77.3683 128.316 72.2493 128.147 71.7773Z" fill="black"/>
<path fill-rule="evenodd" clip-rule="evenodd" d="M136.244 47.5722C134.23 61.2022 120.169 62.7092 117.671 49.1782C118.072 49.0032 118.36 48.6572 118.3 47.9862C118.286 45.037 119.201 41.9204 121.86 40.2805C124.608 38.5885 127.823 38.4206 131.003 38.4633C137.071 38.3188 136.944 43.3927 136.244 47.5722ZM115.471 41.6446C113.566 41.5643 111.156 41.6315 109.45 42.7922C108.981 41.5288 107.763 40.1797 106.531 39.4584C111.108 39.5924 115.819 39.1418 120.429 38.792C119.326 39.5446 118.299 40.6753 117.632 41.9825C117.012 41.6522 116.126 41.683 115.471 41.6446ZM107.076 49.0172C101.795 67.2012 88.6145 59.2752 87.1775 56.9452C84.5855 53.0892 84.0975 43.7145 86.3555 41.2081C89.5875 38.9416 94.1625 39.5249 97.9805 39.4694C104.995 39.564 109.976 41.6632 107.076 49.0172ZM142.479 40.654C141.045 40.4663 139.511 40.4285 138.178 41.0604C137.767 39.314 136.477 37.854 135.022 37.2115C134.845 36.9904 134.872 36.8717 134.27 36.9048C130.574 35.7936 126.438 36.3815 122.886 37.5211C117.276 37.9937 111.391 38.3663 105.734 39.0175C100.435 36.6368 84.4445 36.2879 83.4505 42.1556C82.2005 41.9686 80.0715 40.9843 79.0215 42.3194C71.3165 41.0126 63.3544 42.8288 55.6159 43.6376C53.668 43.9965 52.6647 47.8642 54.8758 47.8112C56.1189 47.4732 54.8376 45.4032 56.5115 45.2472C63.9779 44.4312 71.2805 43.2739 78.8235 43.1384C78.5615 44.4414 83.8125 44.5261 83.8905 43.7653C83.9015 43.771 83.9135 43.7748 83.9245 43.7798C82.6275 48.6172 83.7985 55.5802 86.1435 58.5802C89.4295 62.5082 97.6785 63.6352 101.335 61.1072C106.053 58.7752 110.962 47.0662 109.583 43.1756C112.085 42.3822 114.559 42.6204 117.156 43.0245C116.561 44.7045 115.535 48.8402 117.012 49.1992C116.741 57.4102 124.21 62.5332 131.096 59.1652C137.057 56.3662 139.141 47.5062 138.412 42.1292C139.154 43.5634 145.383 42.002 142.479 40.654Z" fill="black"/>
</svg>
